G04*
G04 #@! TF.GenerationSoftware,Altium Limited,Altium Designer,23.1.1 (15)*
G04*
G04 Layer_Physical_Order=1*
G04 Layer_Color=255*
%FSLAX44Y44*%
%MOMM*%
G71*
G04*
G04 #@! TF.SameCoordinates,EF6C7277-5682-414E-8E18-456B4B33E10A*
G04*
G04*
G04 #@! TF.FilePolarity,Positive*
G04*
G01*
G75*
%ADD11C,0.2000*%
%ADD14O,1.4000X0.3000*%
%ADD15O,0.3000X1.4000*%
%ADD16R,0.6000X1.1000*%
%ADD33C,0.2100*%
%ADD34C,0.3000*%
%ADD35C,0.2450*%
%ADD36C,0.4000*%
%ADD37C,1.0000*%
%ADD38C,0.5000*%
%ADD39C,1.5240*%
%ADD40C,1.8000*%
%ADD41R,1.8000X1.8000*%
%ADD42C,1.0000*%
G04:AMPARAMS|DCode=43|XSize=1mm|YSize=1mm|CornerRadius=0mm|HoleSize=0mm|Usage=FLASHONLY|Rotation=0.000|XOffset=0mm|YOffset=0mm|HoleType=Round|Shape=Octagon|*
%AMOCTAGOND43*
4,1,8,0.5000,-0.2500,0.5000,0.2500,0.2500,0.5000,-0.2500,0.5000,-0.5000,0.2500,-0.5000,-0.2500,-0.2500,-0.5000,0.2500,-0.5000,0.5000,-0.2500,0.0*
%
%ADD43OCTAGOND43*%

%ADD44C,1.6000*%
G04:AMPARAMS|DCode=45|XSize=1.524mm|YSize=1.524mm|CornerRadius=0mm|HoleSize=0mm|Usage=FLASHONLY|Rotation=0.000|XOffset=0mm|YOffset=0mm|HoleType=Round|Shape=Octagon|*
%AMOCTAGOND45*
4,1,8,0.7620,-0.3810,0.7620,0.3810,0.3810,0.7620,-0.3810,0.7620,-0.7620,0.3810,-0.7620,-0.3810,-0.3810,-0.7620,0.3810,-0.7620,0.7620,-0.3810,0.0*
%
%ADD45OCTAGOND45*%

%ADD46O,1.7000X4.5000*%
%ADD47O,4.0000X1.7000*%
%ADD48C,2.0000*%
G04:AMPARAMS|DCode=49|XSize=1.6mm|YSize=1.6mm|CornerRadius=0mm|HoleSize=0mm|Usage=FLASHONLY|Rotation=0.000|XOffset=0mm|YOffset=0mm|HoleType=Round|Shape=Octagon|*
%AMOCTAGOND49*
4,1,8,0.8000,-0.4000,0.8000,0.4000,0.4000,0.8000,-0.4000,0.8000,-0.8000,0.4000,-0.8000,-0.4000,-0.4000,-0.8000,0.4000,-0.8000,0.8000,-0.4000,0.0*
%
%ADD49OCTAGOND49*%

%ADD50C,0.5000*%
G36*
X1000000D02*
X0D01*
Y1000000D01*
X1000000D01*
Y0D01*
D02*
G37*
%LPC*%
G36*
X874651Y953540D02*
X874270D01*
Y942270D01*
X885540D01*
Y942651D01*
X884685Y945840D01*
X883035Y948700D01*
X880700Y951034D01*
X877840Y952685D01*
X874651Y953540D01*
D02*
G37*
G36*
X773677D02*
X773296D01*
Y942270D01*
X784566D01*
Y942651D01*
X783712Y945840D01*
X782061Y948700D01*
X779726Y951034D01*
X776867Y952685D01*
X773677Y953540D01*
D02*
G37*
G36*
X770756D02*
X770375D01*
X767186Y952685D01*
X764327Y951034D01*
X761992Y948700D01*
X760341Y945840D01*
X759486Y942651D01*
Y942270D01*
X770756D01*
Y953540D01*
D02*
G37*
G36*
X871730D02*
X871349D01*
X868160Y952685D01*
X865300Y951034D01*
X862965Y948700D01*
X861315Y945840D01*
X860460Y942651D01*
Y942270D01*
X871730D01*
Y953540D01*
D02*
G37*
G36*
X672698Y951956D02*
X672317D01*
Y940686D01*
X683587D01*
Y941067D01*
X682732Y944256D01*
X681081Y947116D01*
X678746Y949451D01*
X675887Y951102D01*
X672698Y951956D01*
D02*
G37*
G36*
X669777D02*
X669396D01*
X666207Y951102D01*
X663347Y949451D01*
X661012Y947116D01*
X659361Y944256D01*
X658507Y941067D01*
Y940686D01*
X669777D01*
Y951956D01*
D02*
G37*
G36*
X961694Y967200D02*
X958306D01*
X954983Y966539D01*
X951853Y965242D01*
X949036Y963360D01*
X946640Y960964D01*
X944758Y958147D01*
X943461Y955017D01*
X942800Y951694D01*
Y948306D01*
X943461Y944983D01*
X944758Y941853D01*
X946640Y939036D01*
X949036Y936640D01*
X951853Y934758D01*
X954983Y933461D01*
X958306Y932800D01*
X961694D01*
X965017Y933461D01*
X968147Y934758D01*
X970964Y936640D01*
X973360Y939036D01*
X975242Y941853D01*
X976539Y944983D01*
X977200Y948306D01*
Y951694D01*
X976539Y955017D01*
X975242Y958147D01*
X973360Y960964D01*
X970964Y963360D01*
X968147Y965242D01*
X965017Y966539D01*
X961694Y967200D01*
D02*
G37*
G36*
X51694D02*
X48306D01*
X44983Y966539D01*
X41853Y965242D01*
X39036Y963360D01*
X36640Y960964D01*
X34758Y958147D01*
X33461Y955017D01*
X32800Y951694D01*
Y948306D01*
X33461Y944983D01*
X34758Y941853D01*
X36640Y939036D01*
X39036Y936640D01*
X41853Y934758D01*
X44983Y933461D01*
X48306Y932800D01*
X51694D01*
X55017Y933461D01*
X58147Y934758D01*
X60964Y936640D01*
X63360Y939036D01*
X65242Y941853D01*
X66539Y944983D01*
X67200Y948306D01*
Y951694D01*
X66539Y955017D01*
X65242Y958147D01*
X63360Y960964D01*
X60964Y963360D01*
X58147Y965242D01*
X55017Y966539D01*
X51694Y967200D01*
D02*
G37*
G36*
X919606Y953200D02*
X916394D01*
X913291Y952369D01*
X910509Y950762D01*
X908238Y948491D01*
X906631Y945709D01*
X905800Y942606D01*
Y939394D01*
X906631Y936291D01*
X908238Y933509D01*
X910509Y931238D01*
X913291Y929631D01*
X916394Y928800D01*
X919606D01*
X922709Y929631D01*
X925491Y931238D01*
X927763Y933509D01*
X929369Y936291D01*
X930200Y939394D01*
Y942606D01*
X929369Y945709D01*
X927763Y948491D01*
X925491Y950762D01*
X922709Y952369D01*
X919606Y953200D01*
D02*
G37*
G36*
X818633D02*
X815420D01*
X812317Y952369D01*
X809535Y950762D01*
X807264Y948491D01*
X805658Y945709D01*
X804826Y942606D01*
Y939394D01*
X805658Y936291D01*
X807264Y933509D01*
X809535Y931238D01*
X812317Y929631D01*
X815420Y928800D01*
X818633D01*
X821735Y929631D01*
X824517Y931238D01*
X826789Y933509D01*
X828395Y936291D01*
X829226Y939394D01*
Y942606D01*
X828395Y945709D01*
X826789Y948491D01*
X824517Y950762D01*
X821735Y952369D01*
X818633Y953200D01*
D02*
G37*
G36*
X885540Y939730D02*
X874270D01*
Y928460D01*
X874651D01*
X877840Y929315D01*
X880700Y930965D01*
X883035Y933300D01*
X884685Y936160D01*
X885540Y939349D01*
Y939730D01*
D02*
G37*
G36*
X871730D02*
X860460D01*
Y939349D01*
X861315Y936160D01*
X862965Y933300D01*
X865300Y930965D01*
X868160Y929315D01*
X871349Y928460D01*
X871730D01*
Y939730D01*
D02*
G37*
G36*
X784566D02*
X773296D01*
Y928460D01*
X773677D01*
X776867Y929315D01*
X779726Y930965D01*
X782061Y933300D01*
X783712Y936160D01*
X784566Y939349D01*
Y939730D01*
D02*
G37*
G36*
X770756D02*
X759486D01*
Y939349D01*
X760341Y936160D01*
X761992Y933300D01*
X764327Y930965D01*
X767186Y929315D01*
X770375Y928460D01*
X770756D01*
Y939730D01*
D02*
G37*
G36*
X717653Y951616D02*
X714441D01*
X711338Y950785D01*
X708556Y949178D01*
X706284Y946907D01*
X704678Y944125D01*
X703847Y941022D01*
Y937810D01*
X704678Y934707D01*
X706284Y931925D01*
X708556Y929654D01*
X711338Y928047D01*
X714441Y927216D01*
X717653D01*
X720756Y928047D01*
X723538Y929654D01*
X725809Y931925D01*
X727415Y934707D01*
X728247Y937810D01*
Y941022D01*
X727415Y944125D01*
X725809Y946907D01*
X723538Y949178D01*
X720756Y950785D01*
X717653Y951616D01*
D02*
G37*
G36*
X683587Y938146D02*
X672317D01*
Y926876D01*
X672698D01*
X675887Y927731D01*
X678746Y929382D01*
X681081Y931716D01*
X682732Y934576D01*
X683587Y937765D01*
Y938146D01*
D02*
G37*
G36*
X669777D02*
X658507D01*
Y937765D01*
X659361Y934576D01*
X661012Y931716D01*
X663347Y929382D01*
X666207Y927731D01*
X669396Y926876D01*
X669777D01*
Y938146D01*
D02*
G37*
G36*
X576079Y923200D02*
X573920D01*
X571835Y922641D01*
X569965Y921562D01*
X568438Y920035D01*
X567359Y918165D01*
X566800Y916079D01*
Y913920D01*
X567359Y911835D01*
X568438Y909965D01*
X569965Y908438D01*
X571835Y907359D01*
X573920Y906800D01*
X576079D01*
X578165Y907359D01*
X580035Y908438D01*
X581562Y909965D01*
X582641Y911835D01*
X583200Y913920D01*
Y916079D01*
X582641Y918165D01*
X581562Y920035D01*
X580035Y921562D01*
X578165Y922641D01*
X576079Y923200D01*
D02*
G37*
G36*
X501079D02*
X498920D01*
X496835Y922641D01*
X494965Y921562D01*
X493438Y920035D01*
X492359Y918165D01*
X491800Y916079D01*
Y913920D01*
X492359Y911835D01*
X493438Y909965D01*
X494965Y908438D01*
X496835Y907359D01*
X498920Y906800D01*
X501079D01*
X503165Y907359D01*
X505035Y908438D01*
X506562Y909965D01*
X507641Y911835D01*
X508200Y913920D01*
Y916079D01*
X507641Y918165D01*
X506562Y920035D01*
X505035Y921562D01*
X503165Y922641D01*
X501079Y923200D01*
D02*
G37*
G36*
X363888Y915540D02*
X363770D01*
Y906270D01*
X373040D01*
Y906388D01*
X372322Y909068D01*
X370934Y911472D01*
X368972Y913434D01*
X366568Y914822D01*
X363888Y915540D01*
D02*
G37*
G36*
X361230D02*
X361112D01*
X358432Y914822D01*
X356028Y913434D01*
X354066Y911472D01*
X352678Y909068D01*
X351960Y906388D01*
Y906270D01*
X361230D01*
Y915540D01*
D02*
G37*
G36*
X373040Y903730D02*
X363770D01*
Y894460D01*
X363888D01*
X366568Y895178D01*
X368972Y896566D01*
X370934Y898528D01*
X372322Y900932D01*
X373040Y903612D01*
Y903730D01*
D02*
G37*
G36*
X361230D02*
X351960D01*
Y903612D01*
X352678Y900932D01*
X354066Y898528D01*
X356028Y896566D01*
X358432Y895178D01*
X361112Y894460D01*
X361230D01*
Y903730D01*
D02*
G37*
G36*
X874651Y888540D02*
X874270D01*
Y877270D01*
X885540D01*
Y877651D01*
X884685Y880840D01*
X883035Y883700D01*
X880700Y886034D01*
X877840Y887685D01*
X874651Y888540D01*
D02*
G37*
G36*
X773677D02*
X773296D01*
Y877270D01*
X784566D01*
Y877651D01*
X783712Y880840D01*
X782061Y883700D01*
X779726Y886034D01*
X776867Y887685D01*
X773677Y888540D01*
D02*
G37*
G36*
X871730D02*
X871349D01*
X868160Y887685D01*
X865300Y886034D01*
X862965Y883700D01*
X861315Y880840D01*
X860460Y877651D01*
Y877270D01*
X871730D01*
Y888540D01*
D02*
G37*
G36*
X770756D02*
X770375D01*
X767186Y887685D01*
X764327Y886034D01*
X761992Y883700D01*
X760341Y880840D01*
X759486Y877651D01*
Y877270D01*
X770756D01*
Y888540D01*
D02*
G37*
G36*
X672698Y886956D02*
X672317D01*
Y875686D01*
X683587D01*
Y876067D01*
X682732Y879256D01*
X681081Y882116D01*
X678746Y884451D01*
X675887Y886102D01*
X672698Y886956D01*
D02*
G37*
G36*
X669777D02*
X669396D01*
X666207Y886102D01*
X663347Y884451D01*
X661012Y882116D01*
X659361Y879256D01*
X658507Y876067D01*
Y875686D01*
X669777D01*
Y886956D01*
D02*
G37*
G36*
X919606Y888200D02*
X916394D01*
X913291Y887369D01*
X910509Y885762D01*
X908238Y883491D01*
X906631Y880709D01*
X905800Y877606D01*
Y874394D01*
X906631Y871291D01*
X908238Y868509D01*
X910509Y866238D01*
X913291Y864631D01*
X916394Y863800D01*
X919606D01*
X922709Y864631D01*
X925491Y866238D01*
X927763Y868509D01*
X929369Y871291D01*
X930200Y874394D01*
Y877606D01*
X929369Y880709D01*
X927763Y883491D01*
X925491Y885762D01*
X922709Y887369D01*
X919606Y888200D01*
D02*
G37*
G36*
X818633D02*
X815420D01*
X812317Y887369D01*
X809535Y885762D01*
X807264Y883491D01*
X805658Y880709D01*
X804826Y877606D01*
Y874394D01*
X805658Y871291D01*
X807264Y868509D01*
X809535Y866238D01*
X812317Y864631D01*
X815420Y863800D01*
X818633D01*
X821735Y864631D01*
X824517Y866238D01*
X826789Y868509D01*
X828395Y871291D01*
X829226Y874394D01*
Y877606D01*
X828395Y880709D01*
X826789Y883491D01*
X824517Y885762D01*
X821735Y887369D01*
X818633Y888200D01*
D02*
G37*
G36*
X885540Y874730D02*
X874270D01*
Y863460D01*
X874651D01*
X877840Y864315D01*
X880700Y865965D01*
X883035Y868300D01*
X884685Y871160D01*
X885540Y874349D01*
Y874730D01*
D02*
G37*
G36*
X871730D02*
X860460D01*
Y874349D01*
X861315Y871160D01*
X862965Y868300D01*
X865300Y865965D01*
X868160Y864315D01*
X871349Y863460D01*
X871730D01*
Y874730D01*
D02*
G37*
G36*
X784566D02*
X773296D01*
Y863460D01*
X773677D01*
X776867Y864315D01*
X779726Y865965D01*
X782061Y868300D01*
X783712Y871160D01*
X784566Y874349D01*
Y874730D01*
D02*
G37*
G36*
X770756D02*
X759486D01*
Y874349D01*
X760341Y871160D01*
X761992Y868300D01*
X764327Y865965D01*
X767186Y864315D01*
X770375Y863460D01*
X770756D01*
Y874730D01*
D02*
G37*
G36*
X717653Y886616D02*
X714441D01*
X711338Y885785D01*
X708556Y884178D01*
X706284Y881907D01*
X704678Y879125D01*
X703847Y876022D01*
Y872810D01*
X704678Y869707D01*
X706284Y866925D01*
X708556Y864654D01*
X711338Y863047D01*
X714441Y862216D01*
X717653D01*
X720756Y863047D01*
X723538Y864654D01*
X725809Y866925D01*
X727415Y869707D01*
X728247Y872810D01*
Y876022D01*
X727415Y879125D01*
X725809Y881907D01*
X723538Y884178D01*
X720756Y885785D01*
X717653Y886616D01*
D02*
G37*
G36*
X683587Y873146D02*
X672317D01*
Y861876D01*
X672698D01*
X675887Y862731D01*
X678746Y864382D01*
X681081Y866716D01*
X682732Y869576D01*
X683587Y872765D01*
Y873146D01*
D02*
G37*
G36*
X669777D02*
X658507D01*
Y872765D01*
X659361Y869576D01*
X661012Y866716D01*
X663347Y864382D01*
X666207Y862731D01*
X669396Y861876D01*
X669777D01*
Y873146D01*
D02*
G37*
G36*
X905935Y854700D02*
X904065D01*
X902338Y853984D01*
X902126Y853773D01*
X652732D01*
X652520Y853984D01*
X650793Y854700D01*
X648923D01*
X647196Y853984D01*
X645873Y852662D01*
X645158Y850935D01*
Y849065D01*
X645873Y847338D01*
X647196Y846016D01*
X648923Y845300D01*
X650793D01*
X652520Y846016D01*
X652732Y846227D01*
X902126D01*
X902338Y846016D01*
X904065Y845300D01*
X905935D01*
X907662Y846016D01*
X908984Y847338D01*
X909700Y849065D01*
Y850935D01*
X908984Y852662D01*
X907662Y853984D01*
X905935Y854700D01*
D02*
G37*
G36*
X552540Y821199D02*
Y817540D01*
X556199D01*
X555543Y819125D01*
X554125Y820543D01*
X552540Y821199D01*
D02*
G37*
G36*
X556199Y815000D02*
X552540D01*
Y811341D01*
X554125Y811997D01*
X555543Y813415D01*
X556199Y815000D01*
D02*
G37*
G36*
X908360Y790922D02*
X878540D01*
X876901Y790596D01*
X875512Y789668D01*
X869360Y783516D01*
X869323Y783537D01*
X866475Y784300D01*
X863525D01*
X860677Y783537D01*
X858123Y782062D01*
X856038Y779977D01*
X854563Y777423D01*
X853800Y774575D01*
Y771626D01*
X854563Y768777D01*
X856038Y766223D01*
X858123Y764138D01*
X860677Y762663D01*
X863525Y761900D01*
X866475D01*
X869323Y762663D01*
X871877Y764138D01*
X873962Y766223D01*
X875437Y768777D01*
X876200Y771626D01*
Y774575D01*
X875437Y777423D01*
X875416Y777460D01*
X878027Y780071D01*
X879200Y779585D01*
Y761900D01*
X895544D01*
X950718Y706726D01*
Y582806D01*
X950552Y582659D01*
X949282Y583228D01*
Y661449D01*
X948956Y663087D01*
X948028Y664476D01*
X899036Y713468D01*
X897647Y714396D01*
X896008Y714722D01*
X875440D01*
X873801Y714396D01*
X872412Y713468D01*
X866924Y707980D01*
X866475Y708100D01*
X863525D01*
X860677Y707337D01*
X858123Y705862D01*
X856038Y703777D01*
X854563Y701223D01*
X853800Y698374D01*
Y695425D01*
X854563Y692577D01*
X856038Y690023D01*
X858123Y687938D01*
X860677Y686463D01*
X863525Y685700D01*
X866475D01*
X869323Y686463D01*
X871877Y687938D01*
X873962Y690023D01*
X875437Y692577D01*
X876200Y695425D01*
Y698374D01*
X875437Y701223D01*
X874281Y703225D01*
X877214Y706158D01*
X882022D01*
X882549Y704888D01*
X881438Y703777D01*
X879963Y701223D01*
X879200Y698374D01*
Y695425D01*
X879963Y692577D01*
X881438Y690023D01*
X883523Y687938D01*
X886077Y686463D01*
X886118Y686452D01*
Y659600D01*
X886444Y657961D01*
X887372Y656572D01*
X925718Y618226D01*
Y479274D01*
X911052Y464608D01*
X908843Y465200D01*
X906157D01*
X903563Y464505D01*
X901237Y463162D01*
X899338Y461263D01*
X897995Y458937D01*
X897300Y456343D01*
Y453657D01*
X897892Y451448D01*
X893186Y446742D01*
X800463D01*
X799937Y448012D01*
X800662Y448737D01*
X802005Y451063D01*
X802700Y453657D01*
Y456343D01*
X802005Y458937D01*
X800662Y461263D01*
X798763Y463162D01*
X796437Y464505D01*
X793843Y465200D01*
X791157D01*
X788948Y464608D01*
X782988Y470568D01*
X781599Y471496D01*
X779960Y471822D01*
X687176D01*
X686650Y473092D01*
X703948Y490390D01*
X706157Y489798D01*
X708843D01*
X711437Y490494D01*
X713763Y491836D01*
X715662Y493735D01*
X716806Y495716D01*
X772145D01*
X792929Y474932D01*
X794319Y474004D01*
X795957Y473678D01*
X885462D01*
X887100Y474004D01*
X888490Y474932D01*
X903948Y490390D01*
X906157Y489798D01*
X908843D01*
X911437Y490494D01*
X913763Y491836D01*
X915662Y493735D01*
X917005Y496061D01*
X917700Y498656D01*
Y501341D01*
X917005Y503935D01*
X915662Y506261D01*
X913763Y508160D01*
X911437Y509503D01*
X908843Y510198D01*
X906157D01*
X903563Y509503D01*
X901237Y508160D01*
X899338Y506261D01*
X897995Y503935D01*
X897300Y501341D01*
Y498656D01*
X897892Y496446D01*
X883688Y482242D01*
X861169D01*
X860783Y483512D01*
X862558Y484698D01*
X865302Y487442D01*
X867458Y490668D01*
X868943Y494254D01*
X869700Y498060D01*
Y501940D01*
X868943Y505746D01*
X867458Y509331D01*
X865302Y512558D01*
X862558Y515302D01*
X859332Y517458D01*
X855746Y518943D01*
X851940Y519700D01*
X848060D01*
X844254Y518943D01*
X840668Y517458D01*
X837442Y515302D01*
X834698Y512558D01*
X832542Y509331D01*
X831057Y505746D01*
X830300Y501940D01*
Y498060D01*
X831057Y494254D01*
X832542Y490668D01*
X834698Y487442D01*
X837442Y484698D01*
X839217Y483512D01*
X838831Y482242D01*
X797731D01*
X791443Y488530D01*
X791970Y489800D01*
X793843D01*
X796437Y490495D01*
X798763Y491838D01*
X800662Y493737D01*
X802005Y496063D01*
X802700Y498657D01*
Y501343D01*
X802005Y503937D01*
X800662Y506263D01*
X798763Y508162D01*
X796437Y509505D01*
X793843Y510200D01*
X791157D01*
X788948Y509608D01*
X773488Y525068D01*
X772099Y525996D01*
X770460Y526322D01*
X638458D01*
X636819Y525996D01*
X635430Y525068D01*
X614645Y504282D01*
X601805D01*
X600662Y506263D01*
X598763Y508162D01*
X596437Y509505D01*
X593843Y510200D01*
X591157D01*
X588563Y509505D01*
X586237Y508162D01*
X584338Y506263D01*
X583194Y504282D01*
X477855D01*
X457070Y525068D01*
X455681Y525996D01*
X454042Y526322D01*
X314540D01*
X312901Y525996D01*
X311512Y525068D01*
X296052Y509608D01*
X293843Y510200D01*
X291157D01*
X288948Y509608D01*
X273488Y525068D01*
X272099Y525996D01*
X270460Y526322D01*
X138458D01*
X136819Y525996D01*
X135430Y525068D01*
X114644Y504282D01*
X101805D01*
X100662Y506263D01*
X98763Y508162D01*
X96437Y509505D01*
X93843Y510200D01*
X91157D01*
X88563Y509505D01*
X86237Y508162D01*
X84338Y506263D01*
X82995Y503937D01*
X82300Y501343D01*
Y498657D01*
X82995Y496063D01*
X84338Y493737D01*
X86237Y491838D01*
X88563Y490495D01*
X91157Y489800D01*
X93843D01*
X96437Y490495D01*
X98763Y491838D01*
X100662Y493737D01*
X101805Y495718D01*
X116418D01*
X118057Y496044D01*
X119446Y496972D01*
X130716Y508242D01*
X131793Y507523D01*
X131057Y505746D01*
X130300Y501940D01*
Y498060D01*
X131057Y494254D01*
X132542Y490668D01*
X134698Y487442D01*
X137442Y484698D01*
X140669Y482542D01*
X144254Y481057D01*
X148060Y480300D01*
X151940D01*
X155746Y481057D01*
X159332Y482542D01*
X162558Y484698D01*
X165302Y487442D01*
X167458Y490668D01*
X168943Y494254D01*
X169700Y498060D01*
Y501940D01*
X168943Y505746D01*
X167458Y509331D01*
X165302Y512558D01*
X162558Y515302D01*
X160783Y516488D01*
X161169Y517758D01*
X268686D01*
X282892Y503552D01*
X282300Y501343D01*
Y499469D01*
X281030Y498943D01*
X276947Y503026D01*
X275558Y503955D01*
X273919Y504281D01*
X216806D01*
X215662Y506261D01*
X213763Y508160D01*
X211437Y509503D01*
X208843Y510198D01*
X206157D01*
X203563Y509503D01*
X201237Y508160D01*
X199338Y506261D01*
X197995Y503935D01*
X197300Y501341D01*
Y498656D01*
X197995Y496061D01*
X199338Y493735D01*
X201237Y491836D01*
X203563Y490494D01*
X206157Y489798D01*
X208843D01*
X211437Y490494D01*
X213763Y491836D01*
X215662Y493735D01*
X216806Y495716D01*
X272145D01*
X292929Y474932D01*
X294319Y474004D01*
X295957Y473678D01*
X385462D01*
X387100Y474004D01*
X388490Y474932D01*
X403948Y490390D01*
X406157Y489798D01*
X408843D01*
X411052Y490390D01*
X428350Y473092D01*
X427824Y471822D01*
X360491D01*
X358852Y471496D01*
X357463Y470568D01*
X346177Y459282D01*
X301805D01*
X300662Y461263D01*
X298763Y463162D01*
X296437Y464505D01*
X293843Y465200D01*
X291157D01*
X288948Y464608D01*
X282988Y470568D01*
X281599Y471496D01*
X279960Y471822D01*
X160491D01*
X158852Y471496D01*
X157463Y470568D01*
X146177Y459282D01*
X101805D01*
X100662Y461263D01*
X98763Y463162D01*
X96437Y464505D01*
X93843Y465200D01*
X91157D01*
X88563Y464505D01*
X86237Y463162D01*
X84338Y461263D01*
X82995Y458937D01*
X82300Y456343D01*
Y453657D01*
X82995Y451063D01*
X84338Y448737D01*
X86237Y446838D01*
X88563Y445495D01*
X91157Y444800D01*
X93843D01*
X96437Y445495D01*
X98763Y446838D01*
X100662Y448737D01*
X101805Y450718D01*
X147951D01*
X149590Y451044D01*
X150979Y451972D01*
X162264Y463258D01*
X199537D01*
X200063Y461988D01*
X199338Y461263D01*
X197995Y458937D01*
X197300Y456343D01*
Y453657D01*
X197995Y451063D01*
X199338Y448737D01*
X201237Y446838D01*
X203563Y445495D01*
X206157Y444800D01*
X208843D01*
X211437Y445495D01*
X213763Y446838D01*
X215662Y448737D01*
X216806Y450718D01*
X246177D01*
X257463Y439432D01*
X258852Y438504D01*
X260491Y438178D01*
X394960D01*
X396599Y438504D01*
X397988Y439432D01*
X403948Y445392D01*
X406157Y444800D01*
X408843D01*
X411052Y445392D01*
X417012Y439432D01*
X418401Y438504D01*
X420040Y438178D01*
X694960D01*
X696599Y438504D01*
X697988Y439432D01*
X703948Y445392D01*
X706157Y444800D01*
X708843D01*
X711437Y445495D01*
X713763Y446838D01*
X715662Y448737D01*
X716806Y450718D01*
X746177D01*
X757463Y439432D01*
X758852Y438504D01*
X760491Y438178D01*
X820462D01*
X820948Y437004D01*
X813552Y429608D01*
X811343Y430200D01*
X808657D01*
X806448Y429608D01*
X800488Y435568D01*
X799099Y436496D01*
X797460Y436822D01*
X654806D01*
X653167Y436496D01*
X651778Y435568D01*
X640492Y424282D01*
X619305D01*
X618162Y426263D01*
X616263Y428162D01*
X613937Y429505D01*
X611343Y430200D01*
X608657D01*
X606063Y429505D01*
X603737Y428162D01*
X601838Y426263D01*
X600695Y424282D01*
X503823D01*
X492537Y435568D01*
X491148Y436496D01*
X489509Y436822D01*
X322540D01*
X320901Y436496D01*
X319512Y435568D01*
X313552Y429608D01*
X311343Y430200D01*
X308657D01*
X306448Y429608D01*
X300488Y435568D01*
X299099Y436496D01*
X297460Y436822D01*
X154806D01*
X153167Y436496D01*
X151778Y435568D01*
X140492Y424282D01*
X119306D01*
X118162Y426263D01*
X116263Y428162D01*
X113937Y429505D01*
X111343Y430200D01*
X108657D01*
X106063Y429505D01*
X103737Y428162D01*
X101838Y426263D01*
X100495Y423937D01*
X99800Y421343D01*
Y418657D01*
X100495Y416063D01*
X101838Y413737D01*
X103737Y411838D01*
X106063Y410495D01*
X108657Y409800D01*
X111343D01*
X113937Y410495D01*
X116263Y411838D01*
X118162Y413737D01*
X119306Y415718D01*
X140253D01*
X140888Y414618D01*
X140495Y413937D01*
X139800Y411343D01*
Y408657D01*
X140495Y406063D01*
X141838Y403737D01*
X143737Y401838D01*
X146063Y400495D01*
X148657Y399800D01*
X151343D01*
X153937Y400495D01*
X156263Y401838D01*
X158162Y403737D01*
X159505Y406063D01*
X160200Y408657D01*
Y411343D01*
X159505Y413937D01*
X158162Y416263D01*
X156263Y418162D01*
X153937Y419505D01*
X151343Y420200D01*
X150318D01*
X149792Y421470D01*
X156580Y428258D01*
X182037D01*
X182563Y426988D01*
X181838Y426263D01*
X180495Y423937D01*
X179800Y421343D01*
Y418657D01*
X180495Y416063D01*
X181838Y413737D01*
X183737Y411838D01*
X186063Y410495D01*
X188657Y409800D01*
X191343D01*
X193937Y410495D01*
X196263Y411838D01*
X198162Y413737D01*
X199505Y416063D01*
X200200Y418657D01*
Y421343D01*
X199505Y423937D01*
X198162Y426263D01*
X197437Y426988D01*
X197963Y428258D01*
X295686D01*
X300392Y423552D01*
X299800Y421343D01*
Y418657D01*
X300495Y416063D01*
X301838Y413737D01*
X303737Y411838D01*
X306063Y410495D01*
X308657Y409800D01*
X311343D01*
X313937Y410495D01*
X316263Y411838D01*
X318162Y413737D01*
X319505Y416063D01*
X320200Y418657D01*
Y421343D01*
X319608Y423552D01*
X324314Y428258D01*
X382037D01*
X382563Y426988D01*
X381838Y426263D01*
X380495Y423937D01*
X379800Y421343D01*
Y418657D01*
X380495Y416063D01*
X381838Y413737D01*
X383737Y411838D01*
X386063Y410495D01*
X388657Y409800D01*
X391343D01*
X393937Y410495D01*
X396263Y411838D01*
X398162Y413737D01*
X399505Y416063D01*
X400200Y418657D01*
Y421343D01*
X399505Y423937D01*
X398162Y426263D01*
X397437Y426988D01*
X397963Y428258D01*
X487735D01*
X499021Y416972D01*
X500410Y416044D01*
X502049Y415718D01*
X600695D01*
X601838Y413737D01*
X603737Y411838D01*
X606063Y410495D01*
X608657Y409800D01*
X611343D01*
X613937Y410495D01*
X616263Y411838D01*
X618162Y413737D01*
X619305Y415718D01*
X640253D01*
X640888Y414618D01*
X640495Y413937D01*
X639800Y411343D01*
Y408657D01*
X640495Y406063D01*
X641838Y403737D01*
X643737Y401838D01*
X646063Y400495D01*
X648657Y399800D01*
X651343D01*
X653937Y400495D01*
X656263Y401838D01*
X658162Y403737D01*
X659505Y406063D01*
X660200Y408657D01*
Y411343D01*
X659505Y413937D01*
X658162Y416263D01*
X656263Y418162D01*
X653937Y419505D01*
X651343Y420200D01*
X650318D01*
X649792Y421470D01*
X656580Y428258D01*
X682037D01*
X682563Y426988D01*
X681838Y426263D01*
X680495Y423937D01*
X679800Y421343D01*
Y418657D01*
X680495Y416063D01*
X681838Y413737D01*
X683737Y411838D01*
X686063Y410495D01*
X688657Y409800D01*
X691343D01*
X693937Y410495D01*
X696263Y411838D01*
X698162Y413737D01*
X699505Y416063D01*
X700200Y418657D01*
Y421343D01*
X699505Y423937D01*
X698162Y426263D01*
X697437Y426988D01*
X697963Y428258D01*
X795686D01*
X800392Y423552D01*
X799800Y421343D01*
Y418657D01*
X800495Y416063D01*
X801838Y413737D01*
X803737Y411838D01*
X806063Y410495D01*
X808657Y409800D01*
X811343D01*
X813937Y410495D01*
X816263Y411838D01*
X818162Y413737D01*
X819505Y416063D01*
X820200Y418657D01*
Y421343D01*
X819608Y423552D01*
X827825Y431769D01*
X906285D01*
X907924Y432095D01*
X909313Y433023D01*
X948028Y471738D01*
X948956Y473127D01*
X949282Y474766D01*
Y578204D01*
X950552Y578456D01*
X951015Y577338D01*
X952338Y576016D01*
X954065Y575300D01*
X955935D01*
X957662Y576016D01*
X958984Y577338D01*
X959448Y578456D01*
X960718Y578204D01*
Y556943D01*
X960300Y555935D01*
Y554065D01*
X961016Y552338D01*
X962338Y551016D01*
X964065Y550300D01*
X965935D01*
X967662Y551016D01*
X968984Y552338D01*
X969700Y554065D01*
Y555935D01*
X969282Y556943D01*
Y730000D01*
X968956Y731639D01*
X968028Y733028D01*
X911388Y789668D01*
X909999Y790596D01*
X908360Y790922D01*
D02*
G37*
G36*
X400935Y914700D02*
X399065D01*
X397338Y913985D01*
X396016Y912662D01*
X395300Y910935D01*
Y909065D01*
X396016Y907338D01*
X397338Y906016D01*
X399065Y905300D01*
X400935D01*
X402662Y906016D01*
X402874Y906227D01*
X433437D01*
X467332Y872333D01*
X467332Y872332D01*
X468556Y871515D01*
X470000Y871227D01*
X470000Y871227D01*
X538437D01*
X577332Y832333D01*
X577332Y832332D01*
X577564Y832178D01*
X577179Y830908D01*
X542645D01*
X541396Y830659D01*
X540338Y829952D01*
X530086Y819700D01*
X528565D01*
X526838Y818984D01*
X525516Y817662D01*
X524800Y815935D01*
Y814914D01*
X519193Y809307D01*
X518486Y808249D01*
X518237Y807000D01*
Y781755D01*
X517842Y781273D01*
X516263D01*
Y821649D01*
X544914Y850300D01*
X545935D01*
X547662Y851015D01*
X548984Y852338D01*
X549700Y854065D01*
Y855935D01*
X548984Y857662D01*
X547662Y858984D01*
X545935Y859700D01*
X544065D01*
X542338Y858984D01*
X541016Y857662D01*
X540300Y855935D01*
Y854914D01*
X510693Y825307D01*
X509986Y824249D01*
X509737Y823000D01*
Y781273D01*
X507500D01*
X506056Y780985D01*
X504832Y780168D01*
X504015Y778944D01*
X503727Y777500D01*
X504015Y776056D01*
X504720Y775000D01*
X504015Y773944D01*
X503727Y772500D01*
X503820Y772033D01*
X502800Y770763D01*
X493852D01*
X483263Y781351D01*
Y805000D01*
X483014Y806249D01*
X482307Y807307D01*
X477198Y812416D01*
Y813437D01*
X476483Y815164D01*
X475161Y816486D01*
X473433Y817202D01*
X471563D01*
X469836Y816486D01*
X468514Y815164D01*
X467798Y813437D01*
Y811567D01*
X468514Y809839D01*
X469836Y808517D01*
X471563Y807802D01*
X472584D01*
X476737Y803649D01*
Y780000D01*
X476819Y779592D01*
X475648Y778966D01*
X464700Y789914D01*
Y790935D01*
X463984Y792662D01*
X462662Y793984D01*
X460935Y794700D01*
X459065D01*
X457338Y793984D01*
X456016Y792662D01*
X455300Y790935D01*
Y789065D01*
X456016Y787338D01*
X457338Y786015D01*
X459065Y785300D01*
X460086D01*
X483450Y761936D01*
X483099Y761090D01*
X482827Y760763D01*
X463387D01*
X462665Y761484D01*
X460938Y762200D01*
X459068D01*
X457341Y761484D01*
X456019Y760162D01*
X455303Y758435D01*
Y756565D01*
X456019Y754838D01*
X457341Y753515D01*
X459068Y752800D01*
X460938D01*
X462665Y753515D01*
X463387Y754237D01*
X476271D01*
X476757Y753064D01*
X459630Y735936D01*
X458609D01*
X456881Y735221D01*
X455559Y733899D01*
X454844Y732171D01*
Y730301D01*
X455559Y728574D01*
X456881Y727252D01*
X458609Y726536D01*
X460479D01*
X462206Y727252D01*
X463528Y728574D01*
X464244Y730301D01*
Y731322D01*
X482159Y749237D01*
X484918D01*
X485404Y748064D01*
X445603Y708263D01*
X442956D01*
X442623Y708485D01*
X441180Y708773D01*
X336090D01*
X335771Y710042D01*
X336789Y711369D01*
X337515Y713120D01*
X337762Y715000D01*
X337515Y716880D01*
X336789Y718631D01*
X335635Y720135D01*
X334131Y721289D01*
X332379Y722015D01*
X330500Y722262D01*
X45000D01*
X43120Y722015D01*
X41369Y721289D01*
X39865Y720135D01*
X29865Y710135D01*
X28711Y708631D01*
X28532Y708200D01*
X27262Y708452D01*
Y816992D01*
X99135Y888865D01*
X100289Y890369D01*
X101015Y892120D01*
X101262Y894000D01*
Y898000D01*
X101015Y899880D01*
X100289Y901631D01*
X99135Y903135D01*
X97631Y904289D01*
X95880Y905015D01*
X94000Y905262D01*
X92120Y905015D01*
X90369Y904289D01*
X88865Y903135D01*
X87711Y901631D01*
X86985Y899880D01*
X86738Y898000D01*
Y897008D01*
X14865Y825135D01*
X13711Y823631D01*
X12985Y821880D01*
X12738Y820000D01*
Y130000D01*
X12985Y128120D01*
X13711Y126369D01*
X14865Y124865D01*
X119865Y19865D01*
X121369Y18711D01*
X123120Y17985D01*
X125000Y17738D01*
X325000D01*
X326880Y17985D01*
X328631Y18711D01*
X330135Y19865D01*
X362135Y51865D01*
X363289Y53369D01*
X364015Y55120D01*
X364262Y57000D01*
X364015Y58880D01*
X363289Y60631D01*
X362135Y62135D01*
X360631Y63289D01*
X358880Y64015D01*
X357000Y64262D01*
X355120Y64015D01*
X353369Y63289D01*
X351865Y62135D01*
X321992Y32262D01*
X128008D01*
X27262Y133008D01*
Y136548D01*
X28532Y136800D01*
X28711Y136369D01*
X29865Y134865D01*
X84865Y79865D01*
X86369Y78711D01*
X88120Y77985D01*
X90000Y77738D01*
X150000D01*
X151880Y77985D01*
X153631Y78711D01*
X155135Y79865D01*
X156289Y81369D01*
X157015Y83120D01*
X157262Y85000D01*
X157015Y86880D01*
X156289Y88631D01*
X155135Y90135D01*
X153631Y91289D01*
X151880Y92015D01*
X150000Y92262D01*
X93008D01*
X42262Y143008D01*
Y701992D01*
X48008Y707738D01*
X315607D01*
X316133Y706468D01*
X309365Y699700D01*
X309065D01*
X307338Y698985D01*
X306015Y697662D01*
X305300Y695935D01*
Y694065D01*
X306015Y692338D01*
X307338Y691016D01*
X309065Y690300D01*
X310935D01*
X312662Y691016D01*
X313984Y692338D01*
X314700Y694065D01*
Y694365D01*
X321563Y701227D01*
X441180D01*
X442623Y701515D01*
X442956Y701737D01*
X446954D01*
X448203Y701986D01*
X449262Y702693D01*
X481856Y735287D01*
X483101Y735039D01*
X483258Y734661D01*
X484425Y733494D01*
X484265Y732425D01*
X484121Y732139D01*
X483731Y732061D01*
X482656Y731343D01*
X434627Y683314D01*
X83212D01*
X81944Y683061D01*
X80869Y682343D01*
X52857Y654331D01*
X52139Y653256D01*
X51886Y651988D01*
Y353012D01*
X52139Y351744D01*
X52857Y350669D01*
X80669Y322857D01*
X81744Y322139D01*
X83012Y321886D01*
X198427D01*
X206686Y313627D01*
Y248333D01*
X206016Y247662D01*
X205300Y245935D01*
Y244065D01*
X206016Y242338D01*
X207338Y241015D01*
X209065Y240300D01*
X210935D01*
X212662Y241015D01*
X213985Y242338D01*
X214700Y244065D01*
Y245935D01*
X213985Y247662D01*
X213314Y248333D01*
Y315000D01*
X213061Y316268D01*
X212343Y317343D01*
X204173Y325513D01*
X204659Y326686D01*
X378627D01*
X386686Y318627D01*
Y253333D01*
X386016Y252662D01*
X385300Y250935D01*
Y249065D01*
X386016Y247338D01*
X387338Y246016D01*
X389065Y245300D01*
X390935D01*
X392662Y246016D01*
X393984Y247338D01*
X394700Y249065D01*
Y250935D01*
X393984Y252662D01*
X393314Y253333D01*
Y320000D01*
X393061Y321268D01*
X392343Y322343D01*
X384173Y330513D01*
X384659Y331686D01*
X738627D01*
X746686Y323627D01*
Y253333D01*
X746016Y252662D01*
X745300Y250935D01*
Y249065D01*
X746016Y247338D01*
X747338Y246016D01*
X749065Y245300D01*
X750935D01*
X752662Y246016D01*
X753984Y247338D01*
X754700Y249065D01*
Y250935D01*
X753984Y252662D01*
X753314Y253333D01*
Y325000D01*
X753061Y326268D01*
X752343Y327343D01*
X744173Y335513D01*
X744659Y336686D01*
X903627D01*
X921686Y318627D01*
Y258333D01*
X921016Y257662D01*
X920300Y255935D01*
Y254065D01*
X921016Y252338D01*
X922338Y251016D01*
X924065Y250300D01*
X925935D01*
X927662Y251016D01*
X928985Y252338D01*
X929700Y254065D01*
Y255935D01*
X928985Y257662D01*
X928314Y258333D01*
Y320000D01*
X928061Y321268D01*
X927343Y322343D01*
X907343Y342343D01*
X906268Y343061D01*
X905000Y343314D01*
X101373D01*
X73314Y371372D01*
Y375341D01*
X74487Y375827D01*
X102657Y347657D01*
X103732Y346939D01*
X105000Y346686D01*
X511667D01*
X512338Y346016D01*
X514065Y345300D01*
X515935D01*
X517662Y346016D01*
X518984Y347338D01*
X519700Y349065D01*
Y350935D01*
X518984Y352662D01*
X517662Y353984D01*
X515935Y354700D01*
X514065D01*
X512338Y353984D01*
X511667Y353314D01*
X106373D01*
X78314Y381372D01*
Y633628D01*
X96373Y651686D01*
X487071D01*
X488339Y651939D01*
X489414Y652657D01*
X534843Y698086D01*
X535561Y699161D01*
X535991Y699059D01*
X536056Y699015D01*
X537500Y698727D01*
X538944Y699015D01*
X540000Y699721D01*
X541056Y699015D01*
X542500Y698727D01*
X543944Y699015D01*
X545000Y699721D01*
X546056Y699015D01*
X547500Y698727D01*
X548944Y699015D01*
X550000Y699721D01*
X551056Y699015D01*
X552500Y698727D01*
X553944Y699015D01*
X555000Y699721D01*
X556056Y699015D01*
X557500Y698727D01*
X558944Y699015D01*
X559694Y699516D01*
X560924Y698694D01*
X561230Y698633D01*
Y702284D01*
X561273Y702500D01*
Y708000D01*
Y713500D01*
X561230Y713716D01*
Y718237D01*
X560814Y718579D01*
Y741127D01*
X584986Y765300D01*
X585935D01*
X586854Y765681D01*
X587722Y765962D01*
X588609Y765166D01*
X588721Y765000D01*
X588015Y763944D01*
X587728Y762500D01*
X588015Y761056D01*
X588721Y760000D01*
X588015Y758944D01*
X587728Y757500D01*
X588015Y756056D01*
X588721Y755000D01*
X588015Y753944D01*
X587728Y752500D01*
X588015Y751056D01*
X588721Y750000D01*
X588015Y748944D01*
X587728Y747500D01*
X588015Y746056D01*
X588721Y745000D01*
X588015Y743944D01*
X587728Y742500D01*
X588015Y741056D01*
X588721Y740000D01*
X588015Y738944D01*
X587728Y737500D01*
X588015Y736056D01*
X588721Y735000D01*
X588015Y733944D01*
X587728Y732500D01*
X588015Y731056D01*
X588721Y730000D01*
X588015Y728944D01*
X587728Y727500D01*
X588015Y726056D01*
X588721Y725000D01*
X588015Y723944D01*
X587728Y722500D01*
X588015Y721056D01*
X588833Y719832D01*
X590056Y719015D01*
X591500Y718727D01*
X602500D01*
X603910Y719008D01*
X812500D01*
X813836Y719274D01*
X814969Y720031D01*
X842069Y747131D01*
X842826Y748264D01*
X843092Y749600D01*
Y762441D01*
X843923Y762663D01*
X846477Y764138D01*
X848562Y766223D01*
X850037Y768777D01*
X850800Y771626D01*
Y774575D01*
X850037Y777423D01*
X848562Y779977D01*
X846477Y782062D01*
X843923Y783537D01*
X841075Y784300D01*
X838126D01*
X835277Y783537D01*
X832723Y782062D01*
X830638Y779977D01*
X829163Y777423D01*
X828400Y774575D01*
Y771626D01*
X829163Y768777D01*
X830638Y766223D01*
X832723Y764138D01*
X835277Y762663D01*
X836108Y762441D01*
Y751047D01*
X811053Y725992D01*
X752590D01*
X752104Y727165D01*
X765869Y740931D01*
X766626Y742064D01*
X766892Y743400D01*
Y762441D01*
X767723Y762663D01*
X770277Y764138D01*
X772362Y766223D01*
X773837Y768777D01*
X774600Y771626D01*
Y774575D01*
X773837Y777423D01*
X772362Y779977D01*
X770277Y782062D01*
X767723Y783537D01*
X764874Y784300D01*
X761926D01*
X759077Y783537D01*
X756523Y782062D01*
X754438Y779977D01*
X752963Y777423D01*
X752200Y774575D01*
Y771626D01*
X752963Y768777D01*
X754438Y766223D01*
X756523Y764138D01*
X759077Y762663D01*
X759908Y762441D01*
Y744846D01*
X746053Y730992D01*
X737590D01*
X737104Y732165D01*
X740469Y735531D01*
X741226Y736664D01*
X741492Y738000D01*
Y762441D01*
X742323Y762663D01*
X744877Y764138D01*
X746962Y766223D01*
X748437Y768777D01*
X749200Y771626D01*
Y774575D01*
X748437Y777423D01*
X746962Y779977D01*
X744877Y782062D01*
X742323Y783537D01*
X739474Y784300D01*
X736525D01*
X733677Y783537D01*
X731123Y782062D01*
X729038Y779977D01*
X727563Y777423D01*
X726800Y774575D01*
Y771626D01*
X727563Y768777D01*
X729038Y766223D01*
X731123Y764138D01*
X733677Y762663D01*
X734508Y762441D01*
Y739446D01*
X731053Y735992D01*
X717722D01*
X717017Y737048D01*
X717200Y737490D01*
Y739360D01*
X716484Y741087D01*
X715162Y742409D01*
X713435Y743125D01*
X711565D01*
X709838Y742409D01*
X709345Y741917D01*
X706025D01*
X704689Y741651D01*
X703702Y740992D01*
X632453D01*
X632067Y742262D01*
X632469Y742531D01*
X652469Y762531D01*
X653226Y763664D01*
X653492Y765000D01*
Y801845D01*
X653984Y802338D01*
X654700Y804065D01*
Y805935D01*
X653984Y807662D01*
X652662Y808984D01*
X650935Y809700D01*
X649065D01*
X647338Y808984D01*
X646015Y807662D01*
X645300Y805935D01*
Y804065D01*
X646015Y802338D01*
X646508Y801845D01*
Y766447D01*
X628554Y748492D01*
X616446D01*
X610992Y753947D01*
Y762410D01*
X612165Y762896D01*
X613791Y761270D01*
X618730D01*
Y766209D01*
X612104Y772835D01*
X612590Y774008D01*
X617500D01*
X618836Y774274D01*
X619969Y775031D01*
X620239Y775300D01*
X620935D01*
X622662Y776016D01*
X623984Y777338D01*
X624700Y779065D01*
Y780935D01*
X623984Y782662D01*
X622662Y783985D01*
X620935Y784700D01*
X619065D01*
X617338Y783985D01*
X616016Y782662D01*
X615324Y780992D01*
X603910D01*
X602500Y781273D01*
X594375D01*
X593890Y782446D01*
X623130Y811686D01*
X687948D01*
X688619Y811015D01*
X690346Y810300D01*
X692216D01*
X693944Y811015D01*
X695266Y812338D01*
X695981Y814065D01*
Y815935D01*
X695266Y817662D01*
X693944Y818984D01*
X692216Y819700D01*
X690346D01*
X688619Y818984D01*
X687948Y818314D01*
X621758D01*
X620489Y818061D01*
X619414Y817343D01*
X587318Y785247D01*
X586148Y785872D01*
X586273Y786500D01*
Y797500D01*
X585985Y798944D01*
X585763Y799277D01*
Y805723D01*
X585985Y806056D01*
X586273Y807500D01*
X585985Y808944D01*
X585168Y810168D01*
X584700Y810635D01*
Y810935D01*
X583984Y812662D01*
X582662Y813985D01*
X580935Y814700D01*
X579065D01*
X577338Y813985D01*
X576016Y812662D01*
X575300Y810935D01*
Y809065D01*
X576016Y807338D01*
X577338Y806016D01*
X579065Y805300D01*
X579237D01*
Y802200D01*
X577967Y801180D01*
X577500Y801273D01*
X576056Y800985D01*
X575000Y800279D01*
X573944Y800985D01*
X572500Y801273D01*
X571056Y800985D01*
X570000Y800279D01*
X568944Y800985D01*
X567500Y801273D01*
X566056Y800985D01*
X565000Y800279D01*
X563944Y800985D01*
X562500Y801273D01*
X561056Y800985D01*
X560000Y800279D01*
X558944Y800985D01*
X557500Y801273D01*
X556056Y800985D01*
X555000Y800279D01*
X553944Y800985D01*
X552500Y801273D01*
X551056Y800985D01*
X550000Y800279D01*
X548944Y800985D01*
X547500Y801273D01*
X546056Y800985D01*
X545000Y800279D01*
X543944Y800985D01*
X542500Y801273D01*
X541056Y800985D01*
X540000Y800279D01*
X538944Y800985D01*
X537500Y801273D01*
X537033Y801180D01*
X535763Y802200D01*
Y806149D01*
X542621Y813007D01*
X547405D01*
X548415Y811997D01*
X550000Y811341D01*
Y816270D01*
Y821199D01*
X548415Y820543D01*
X547405Y819533D01*
X541270D01*
X540862Y819451D01*
X540236Y820622D01*
X543997Y824382D01*
X679800D01*
X680522Y823661D01*
X682250Y822945D01*
X684119D01*
X685847Y823661D01*
X686569Y824382D01*
X782866D01*
X783588Y823661D01*
X785315Y822945D01*
X787185D01*
X788912Y823661D01*
X789634Y824382D01*
X880300D01*
Y824065D01*
X881015Y822338D01*
X882338Y821016D01*
X884065Y820300D01*
X885935D01*
X887662Y821016D01*
X888984Y822338D01*
X889700Y824065D01*
Y825935D01*
X888984Y827662D01*
X887662Y828984D01*
X885935Y829700D01*
X884914D01*
X884662Y829952D01*
X883604Y830659D01*
X882355Y830908D01*
X789634D01*
X788912Y831629D01*
X787185Y832345D01*
X785315D01*
X783588Y831629D01*
X782866Y830908D01*
X686569D01*
X685847Y831629D01*
X684119Y832345D01*
X682250D01*
X680522Y831629D01*
X679800Y830908D01*
X654351D01*
X653824Y832178D01*
X653984Y832338D01*
X654700Y834065D01*
Y835935D01*
X653984Y837662D01*
X652662Y838985D01*
X650935Y839700D01*
X649065D01*
X647338Y838985D01*
X647126Y838773D01*
X581563D01*
X542668Y877668D01*
X541444Y878485D01*
X540000Y878773D01*
X540000Y878773D01*
X471563D01*
X437668Y912668D01*
X436444Y913485D01*
X435000Y913773D01*
X435000Y913773D01*
X402874D01*
X402662Y913985D01*
X400935Y914700D01*
D02*
G37*
G36*
X715660Y784571D02*
X712711D01*
X709863Y783807D01*
X707309Y782333D01*
X705224Y780248D01*
X703749Y777694D01*
X702986Y774845D01*
Y771896D01*
X703749Y769048D01*
X705224Y766494D01*
X707309Y764408D01*
X709863Y762934D01*
X712711Y762171D01*
X715660D01*
X718509Y762934D01*
X721063Y764408D01*
X723148Y766494D01*
X724622Y769048D01*
X725386Y771896D01*
Y774845D01*
X724622Y777694D01*
X723148Y780248D01*
X721063Y782333D01*
X718509Y783807D01*
X715660Y784571D01*
D02*
G37*
G36*
X815675Y784300D02*
X812726D01*
X809877Y783537D01*
X807323Y782062D01*
X805238Y779977D01*
X803763Y777423D01*
X803000Y774575D01*
Y771626D01*
X803763Y768777D01*
X805238Y766223D01*
X807323Y764138D01*
X809877Y762663D01*
X812726Y761900D01*
X815675D01*
X818523Y762663D01*
X821077Y764138D01*
X823162Y766223D01*
X824637Y768777D01*
X825400Y771626D01*
Y774575D01*
X824637Y777423D01*
X823162Y779977D01*
X821077Y782062D01*
X818523Y783537D01*
X815675Y784300D01*
D02*
G37*
G36*
X790275D02*
X787326D01*
X784477Y783537D01*
X781923Y782062D01*
X779838Y779977D01*
X778363Y777423D01*
X777600Y774575D01*
Y771626D01*
X778363Y768777D01*
X779838Y766223D01*
X781923Y764138D01*
X784477Y762663D01*
X787326Y761900D01*
X790275D01*
X793123Y762663D01*
X795677Y764138D01*
X797762Y766223D01*
X799237Y768777D01*
X800000Y771626D01*
Y774575D01*
X799237Y777423D01*
X797762Y779977D01*
X795677Y782062D01*
X793123Y783537D01*
X790275Y784300D01*
D02*
G37*
G36*
X621270Y764929D02*
Y761270D01*
X624929D01*
X624273Y762855D01*
X622855Y764273D01*
X621270Y764929D01*
D02*
G37*
G36*
X624929Y758730D02*
X621270D01*
Y755071D01*
X622855Y755727D01*
X624273Y757145D01*
X624929Y758730D01*
D02*
G37*
G36*
X618730D02*
X615071D01*
X615727Y757145D01*
X617145Y755727D01*
X618730Y755071D01*
Y758730D01*
D02*
G37*
G36*
X332600Y915200D02*
X322400D01*
X317300Y910100D01*
Y907469D01*
X316865Y907135D01*
X151992Y742262D01*
X50000D01*
X48120Y742015D01*
X46369Y741289D01*
X44865Y740135D01*
X43711Y738631D01*
X42985Y736880D01*
X42738Y735000D01*
X42985Y733120D01*
X43711Y731369D01*
X44865Y729865D01*
X46369Y728711D01*
X48120Y727985D01*
X50000Y727738D01*
X155000D01*
X156880Y727985D01*
X158631Y728711D01*
X160135Y729865D01*
X325070Y894800D01*
X332600D01*
X337700Y899900D01*
Y910100D01*
X332600Y915200D01*
D02*
G37*
G36*
X578770Y717366D02*
Y713716D01*
X578727Y713500D01*
Y708000D01*
X576273D01*
Y713500D01*
X576230Y713716D01*
Y717366D01*
X575924Y717306D01*
X574694Y716484D01*
X573944Y716985D01*
X572500Y717272D01*
X571056Y716985D01*
X570000Y716280D01*
X568944Y716985D01*
X567500Y717272D01*
X566056Y716985D01*
X565306Y716484D01*
X564076Y717306D01*
X563770Y717366D01*
Y713716D01*
X563727Y713500D01*
Y708000D01*
Y702500D01*
X563770Y702284D01*
Y698633D01*
X564076Y698694D01*
X565306Y699516D01*
X566056Y699015D01*
X567500Y698727D01*
X568944Y699015D01*
X570000Y699721D01*
X571056Y699015D01*
X572500Y698727D01*
X573742Y698975D01*
X574210Y698838D01*
X574457Y698673D01*
X574608Y697151D01*
X570720Y693263D01*
X555000D01*
X553751Y693014D01*
X552693Y692307D01*
X546361Y685975D01*
X545654Y684917D01*
X545406Y683668D01*
Y681173D01*
X544684Y680451D01*
X543968Y678724D01*
Y676854D01*
X544684Y675126D01*
X546006Y673804D01*
X547733Y673089D01*
X549603D01*
X551331Y673804D01*
X552653Y675126D01*
X553368Y676854D01*
Y678724D01*
X552653Y680451D01*
X552020Y681084D01*
Y682406D01*
X556352Y686737D01*
X572071D01*
X573320Y686986D01*
X574378Y687693D01*
X584807Y698122D01*
X585514Y699180D01*
X585763Y700429D01*
Y700723D01*
X585985Y701056D01*
X586273Y702500D01*
Y713500D01*
X585985Y714944D01*
X585168Y716168D01*
X583944Y716985D01*
X582500Y717272D01*
X581056Y716985D01*
X580306Y716484D01*
X579076Y717306D01*
X578770Y717366D01*
D02*
G37*
G36*
X790319Y708440D02*
X790070D01*
Y698170D01*
X800340D01*
Y698419D01*
X799554Y701354D01*
X798034Y703986D01*
X795886Y706134D01*
X793254Y707654D01*
X790319Y708440D01*
D02*
G37*
G36*
X787530D02*
X787281D01*
X784346Y707654D01*
X781714Y706134D01*
X779566Y703986D01*
X778046Y701354D01*
X777260Y698419D01*
Y698170D01*
X787530D01*
Y708440D01*
D02*
G37*
G36*
X714074Y708100D02*
X711125D01*
X708277Y707337D01*
X705723Y705862D01*
X703638Y703777D01*
X702163Y701223D01*
X701400Y698374D01*
Y695425D01*
X702163Y692577D01*
X703638Y690023D01*
X705723Y687938D01*
X708277Y686463D01*
X711125Y685700D01*
X714074D01*
X716923Y686463D01*
X719477Y687938D01*
X721562Y690023D01*
X723037Y692577D01*
X723800Y695425D01*
Y698374D01*
X723037Y701223D01*
X721562Y703777D01*
X719477Y705862D01*
X716923Y707337D01*
X714074Y708100D01*
D02*
G37*
G36*
X800340Y695630D02*
X790070D01*
Y685360D01*
X790319D01*
X793254Y686146D01*
X795886Y687666D01*
X798034Y689814D01*
X799554Y692446D01*
X800340Y695381D01*
Y695630D01*
D02*
G37*
G36*
X787530D02*
X777260D01*
Y695381D01*
X778046Y692446D01*
X779566Y689814D01*
X781714Y687666D01*
X784346Y686146D01*
X787281Y685360D01*
X787530D01*
Y695630D01*
D02*
G37*
G36*
X815675Y708100D02*
X812726D01*
X809877Y707337D01*
X807323Y705862D01*
X805238Y703777D01*
X803763Y701223D01*
X803000Y698374D01*
Y695425D01*
X803763Y692577D01*
X805238Y690023D01*
X807323Y687938D01*
X809877Y686463D01*
X809918Y686452D01*
Y650404D01*
X810244Y648766D01*
X811172Y647376D01*
X811773Y646775D01*
X812382Y645305D01*
X813705Y643982D01*
X815432Y643267D01*
X817302D01*
X819029Y643982D01*
X820351Y645305D01*
X821067Y647032D01*
Y648902D01*
X820351Y650629D01*
X819029Y651951D01*
X818483Y652178D01*
X818482Y652178D01*
Y686452D01*
X818523Y686463D01*
X821077Y687938D01*
X823162Y690023D01*
X824637Y692577D01*
X825400Y695425D01*
Y698374D01*
X824637Y701223D01*
X823162Y703777D01*
X821077Y705862D01*
X818523Y707337D01*
X815675Y708100D01*
D02*
G37*
G36*
X841075D02*
X838126D01*
X835277Y707337D01*
X832723Y705862D01*
X830638Y703777D01*
X829163Y701223D01*
X828400Y698374D01*
Y695425D01*
X829163Y692577D01*
X830638Y690023D01*
X832723Y687938D01*
X835277Y686463D01*
X835318Y686452D01*
Y650429D01*
X835644Y648790D01*
X836572Y647401D01*
X858258Y625715D01*
Y597963D01*
X856988Y597437D01*
X856263Y598162D01*
X853937Y599505D01*
X851343Y600200D01*
X850815D01*
X850732Y600324D01*
X771639Y679417D01*
Y689155D01*
X771615Y689276D01*
X772362Y690023D01*
X773837Y692577D01*
X774600Y695425D01*
Y698374D01*
X773837Y701223D01*
X772362Y703777D01*
X770277Y705862D01*
X767723Y707337D01*
X764874Y708100D01*
X761926D01*
X759077Y707337D01*
X756523Y705862D01*
X754438Y703777D01*
X752963Y701223D01*
X752200Y698374D01*
Y695425D01*
X752963Y692577D01*
X754438Y690023D01*
X756523Y687938D01*
X759077Y686463D01*
X761926Y685700D01*
X763074D01*
Y677643D01*
X763332Y676348D01*
X762282Y675566D01*
X761682Y676057D01*
Y677500D01*
X761356Y679139D01*
X760428Y680528D01*
X748416Y692540D01*
X748437Y692577D01*
X749200Y695425D01*
Y698374D01*
X748437Y701223D01*
X746962Y703777D01*
X744877Y705862D01*
X742323Y707337D01*
X739474Y708100D01*
X736525D01*
X733677Y707337D01*
X731123Y705862D01*
X729038Y703777D01*
X727563Y701223D01*
X726800Y698374D01*
Y695425D01*
X727563Y692577D01*
X729038Y690023D01*
X731123Y687938D01*
X733677Y686463D01*
X736525Y685700D01*
X739474D01*
X742323Y686463D01*
X742360Y686484D01*
X753118Y675726D01*
Y674115D01*
X753444Y672476D01*
X754372Y671087D01*
X763837Y661622D01*
X764295Y660517D01*
X765617Y659195D01*
X767344Y658479D01*
X769214D01*
X770941Y659195D01*
X772263Y660517D01*
X772979Y662244D01*
Y664114D01*
X772940Y664208D01*
X774017Y664927D01*
X842260Y596684D01*
X841838Y596263D01*
X840695Y594282D01*
X819508D01*
X805762Y608028D01*
X804373Y608956D01*
X802734Y609282D01*
X680000D01*
X678361Y608956D01*
X676972Y608028D01*
X663226Y594282D01*
X659305D01*
X658162Y596263D01*
X656263Y598162D01*
X653937Y599505D01*
X651343Y600200D01*
X648657D01*
X646063Y599505D01*
X643737Y598162D01*
X641838Y596263D01*
X640695Y594282D01*
X619508D01*
X605762Y608028D01*
X604373Y608956D01*
X602734Y609282D01*
X375000D01*
X373361Y608956D01*
X371972Y608028D01*
X359751Y595807D01*
X358349Y595939D01*
X358162Y596263D01*
X356263Y598162D01*
X353937Y599505D01*
X351343Y600200D01*
X348657D01*
X346063Y599505D01*
X343737Y598162D01*
X341838Y596263D01*
X340695Y594282D01*
X319508D01*
X305762Y608028D01*
X304373Y608956D01*
X302734Y609282D01*
X167719D01*
X166080Y608956D01*
X164691Y608028D01*
X155351Y598688D01*
X153937Y599505D01*
X151343Y600200D01*
X148657D01*
X146063Y599505D01*
X143737Y598162D01*
X141838Y596263D01*
X140495Y593937D01*
X139800Y591343D01*
Y588657D01*
X140495Y586063D01*
X141838Y583737D01*
X143737Y581838D01*
X145964Y580552D01*
X145993Y580438D01*
X145343Y579282D01*
X120200D01*
Y581343D01*
X119505Y583937D01*
X118162Y586263D01*
X116263Y588162D01*
X113937Y589505D01*
X111343Y590200D01*
X108657D01*
X106063Y589505D01*
X103737Y588162D01*
X101838Y586263D01*
X100495Y583937D01*
X99800Y581343D01*
Y578657D01*
X100495Y576063D01*
X101838Y573737D01*
X103737Y571838D01*
X106063Y570495D01*
X108657Y569800D01*
X111343D01*
X113937Y570495D01*
X115811Y571577D01*
X116608Y571044D01*
X118247Y570718D01*
X155343D01*
X156981Y571044D01*
X158371Y571972D01*
X174656Y588258D01*
X182037D01*
X182563Y586988D01*
X181838Y586263D01*
X180495Y583937D01*
X179800Y581343D01*
Y578657D01*
X180495Y576063D01*
X181838Y573737D01*
X183737Y571838D01*
X186063Y570495D01*
X188657Y569800D01*
X191343D01*
X193937Y570495D01*
X196263Y571838D01*
X198162Y573737D01*
X199305Y575718D01*
X208226D01*
X220852Y563092D01*
X220326Y561822D01*
X160491D01*
X158852Y561496D01*
X157463Y560568D01*
X146177Y549282D01*
X101805D01*
X100662Y551263D01*
X98763Y553162D01*
X96437Y554505D01*
X93843Y555200D01*
X91157D01*
X88563Y554505D01*
X86237Y553162D01*
X84338Y551263D01*
X82995Y548937D01*
X82300Y546343D01*
Y543657D01*
X82995Y541063D01*
X84338Y538737D01*
X86237Y536838D01*
X88563Y535495D01*
X91157Y534800D01*
X93843D01*
X96437Y535495D01*
X98763Y536838D01*
X100662Y538737D01*
X101805Y540718D01*
X147951D01*
X149590Y541044D01*
X150979Y541972D01*
X162264Y553258D01*
X199537D01*
X200063Y551988D01*
X199338Y551263D01*
X197995Y548937D01*
X197300Y546343D01*
Y543657D01*
X197995Y541063D01*
X199338Y538737D01*
X201237Y536838D01*
X203563Y535495D01*
X206157Y534800D01*
X208843D01*
X211437Y535495D01*
X213763Y536838D01*
X215662Y538737D01*
X216806Y540718D01*
X246177D01*
X257463Y529432D01*
X258852Y528504D01*
X260491Y528178D01*
X394960D01*
X396599Y528504D01*
X397988Y529432D01*
X403948Y535392D01*
X406157Y534800D01*
X408843D01*
X411437Y535495D01*
X413763Y536838D01*
X415662Y538737D01*
X416540Y540258D01*
X482798D01*
X483284Y539084D01*
X482800Y538600D01*
Y531400D01*
X486400Y527800D01*
X493600D01*
X497200Y531400D01*
Y538600D01*
X496716Y539084D01*
X497202Y540258D01*
X502863D01*
X503596Y538988D01*
X502974Y537910D01*
X502534Y536270D01*
X517466D01*
X517026Y537910D01*
X516404Y538988D01*
X517137Y540258D01*
X520656D01*
X531482Y529432D01*
X532871Y528504D01*
X534510Y528178D01*
X667460D01*
X669099Y528504D01*
X670488Y529432D01*
X681774Y540718D01*
X698195D01*
X699338Y538737D01*
X701237Y536838D01*
X703563Y535495D01*
X706157Y534800D01*
X708843D01*
X711437Y535495D01*
X713763Y536838D01*
X715662Y538737D01*
X716806Y540718D01*
X746177D01*
X757463Y529432D01*
X758852Y528504D01*
X760491Y528178D01*
X894960D01*
X896599Y528504D01*
X897988Y529432D01*
X903948Y535392D01*
X906157Y534800D01*
X908843D01*
X911437Y535495D01*
X913763Y536838D01*
X915662Y538737D01*
X917005Y541063D01*
X917700Y543657D01*
Y546343D01*
X917005Y548937D01*
X915662Y551263D01*
X913763Y553162D01*
X911437Y554505D01*
X908843Y555200D01*
X906157D01*
X903563Y554505D01*
X901237Y553162D01*
X899338Y551263D01*
X897995Y548937D01*
X897300Y546343D01*
Y543657D01*
X897892Y541448D01*
X893186Y536742D01*
X800463D01*
X799937Y538012D01*
X800662Y538737D01*
X802005Y541063D01*
X802700Y543657D01*
Y546343D01*
X802005Y548937D01*
X800662Y551263D01*
X798763Y553162D01*
X796437Y554505D01*
X793843Y555200D01*
X791157D01*
X788948Y554608D01*
X782988Y560568D01*
X781599Y561496D01*
X779960Y561822D01*
X660491D01*
X658852Y561496D01*
X657463Y560568D01*
X646177Y549282D01*
X601805D01*
X600662Y551263D01*
X598763Y553162D01*
X596437Y554505D01*
X593843Y555200D01*
X591157D01*
X588563Y554505D01*
X586237Y553162D01*
X584338Y551263D01*
X583194Y549282D01*
X551774D01*
X540488Y560568D01*
X539099Y561496D01*
X537460Y561822D01*
X379674D01*
X379148Y563092D01*
X386448Y570392D01*
X388657Y569800D01*
X391343D01*
X393937Y570495D01*
X395811Y571577D01*
X396608Y571044D01*
X398247Y570718D01*
X558226D01*
X564512Y564432D01*
X565901Y563504D01*
X567540Y563178D01*
X677460D01*
X679099Y563504D01*
X680488Y564432D01*
X686448Y570392D01*
X688657Y569800D01*
X691343D01*
X693937Y570495D01*
X696263Y571838D01*
X698162Y573737D01*
X699305Y575718D01*
X746177D01*
X757463Y564432D01*
X758852Y563504D01*
X760491Y563178D01*
X877460D01*
X879099Y563504D01*
X880488Y564432D01*
X886448Y570392D01*
X888657Y569800D01*
X891343D01*
X893937Y570495D01*
X896263Y571838D01*
X898162Y573737D01*
X899505Y576063D01*
X900200Y578657D01*
Y581343D01*
X899505Y583937D01*
X898162Y586263D01*
X896263Y588162D01*
X893937Y589505D01*
X891343Y590200D01*
X888657D01*
X886063Y589505D01*
X883737Y588162D01*
X881838Y586263D01*
X880495Y583937D01*
X879800Y581343D01*
Y578657D01*
X880392Y576448D01*
X875686Y571742D01*
X817963D01*
X817437Y573012D01*
X818162Y573737D01*
X819305Y575718D01*
X831177D01*
X832463Y574432D01*
X833852Y573504D01*
X835491Y573178D01*
X857460D01*
X859099Y573504D01*
X860488Y574432D01*
X865568Y579512D01*
X866496Y580901D01*
X866822Y582540D01*
Y627489D01*
X866496Y629127D01*
X865568Y630517D01*
X843882Y652202D01*
Y686452D01*
X843923Y686463D01*
X846477Y687938D01*
X848562Y690023D01*
X850037Y692577D01*
X850800Y695425D01*
Y698374D01*
X850037Y701223D01*
X848562Y703777D01*
X846477Y705862D01*
X843923Y707337D01*
X841075Y708100D01*
D02*
G37*
G36*
X517466Y533730D02*
X511270D01*
Y527534D01*
X512910Y527974D01*
X514630Y528966D01*
X516034Y530370D01*
X517026Y532090D01*
X517466Y533730D01*
D02*
G37*
G36*
X508730D02*
X502534D01*
X502974Y532090D01*
X503966Y530370D01*
X505370Y528966D01*
X507090Y527974D01*
X508730Y527534D01*
Y533730D01*
D02*
G37*
G36*
X891343Y430200D02*
X888657D01*
X886063Y429505D01*
X883737Y428162D01*
X881838Y426263D01*
X880495Y423937D01*
X879800Y421343D01*
Y418657D01*
X880495Y416063D01*
X881838Y413737D01*
X883737Y411838D01*
X886063Y410495D01*
X888657Y409800D01*
X891343D01*
X893937Y410495D01*
X896263Y411838D01*
X898162Y413737D01*
X899505Y416063D01*
X900200Y418657D01*
Y421343D01*
X899505Y423937D01*
X898162Y426263D01*
X896263Y428162D01*
X893937Y429505D01*
X891343Y430200D01*
D02*
G37*
G36*
X851343Y420200D02*
X848657D01*
X846063Y419505D01*
X843737Y418162D01*
X841838Y416263D01*
X840495Y413937D01*
X839800Y411343D01*
Y408657D01*
X840495Y406063D01*
X841838Y403737D01*
X843737Y401838D01*
X846063Y400495D01*
X848657Y399800D01*
X851343D01*
X853937Y400495D01*
X856263Y401838D01*
X858162Y403737D01*
X859505Y406063D01*
X860200Y408657D01*
Y411343D01*
X859505Y413937D01*
X858162Y416263D01*
X856263Y418162D01*
X853937Y419505D01*
X851343Y420200D01*
D02*
G37*
G36*
X351343D02*
X348657D01*
X346063Y419505D01*
X343737Y418162D01*
X341838Y416263D01*
X340495Y413937D01*
X339800Y411343D01*
Y408657D01*
X340495Y406063D01*
X341838Y403737D01*
X343737Y401838D01*
X346063Y400495D01*
X348657Y399800D01*
X351343D01*
X353937Y400495D01*
X356263Y401838D01*
X358162Y403737D01*
X359505Y406063D01*
X360200Y408657D01*
Y411343D01*
X359505Y413937D01*
X358162Y416263D01*
X356263Y418162D01*
X353937Y419505D01*
X351343Y420200D01*
D02*
G37*
G36*
X460756Y304700D02*
X450355D01*
Y299866D01*
X441094D01*
X441094Y299866D01*
X439650Y299579D01*
X438426Y298761D01*
X438426Y298761D01*
X434365Y294700D01*
X434065D01*
X432338Y293985D01*
X431016Y292662D01*
X430300Y290935D01*
Y289065D01*
X431016Y287338D01*
X432338Y286016D01*
X434065Y285300D01*
X435935D01*
X437662Y286016D01*
X438984Y287338D01*
X439700Y289065D01*
Y289365D01*
X442656Y292321D01*
X450355D01*
Y289300D01*
X460756D01*
Y304700D01*
D02*
G37*
G36*
X816311D02*
X805911D01*
Y300772D01*
X797000D01*
X795556Y300485D01*
X794332Y299667D01*
X789365Y294700D01*
X789065D01*
X787338Y293985D01*
X786015Y292662D01*
X785300Y290935D01*
Y289065D01*
X786015Y287338D01*
X787338Y286016D01*
X789065Y285300D01*
X790935D01*
X792662Y286016D01*
X793984Y287338D01*
X794700Y289065D01*
Y289365D01*
X798563Y293228D01*
X805911D01*
Y289300D01*
X816311D01*
Y304700D01*
D02*
G37*
G36*
X638533D02*
X628133D01*
Y300772D01*
X622000D01*
X620556Y300485D01*
X619332Y299667D01*
X619332Y299667D01*
X609365Y289700D01*
X609065D01*
X607338Y288984D01*
X606016Y287662D01*
X605300Y285935D01*
Y284065D01*
X606016Y282338D01*
X607338Y281015D01*
X609065Y280300D01*
X610935D01*
X612662Y281015D01*
X613984Y282338D01*
X614700Y284065D01*
Y284365D01*
X623563Y293228D01*
X628133D01*
Y289300D01*
X638533D01*
Y304700D01*
D02*
G37*
G36*
X282978D02*
X272578D01*
Y301282D01*
X262000D01*
X260361Y300956D01*
X258972Y300028D01*
X253346Y294402D01*
X252338Y293985D01*
X251016Y292662D01*
X250300Y290935D01*
Y289065D01*
X251016Y287338D01*
X252338Y286016D01*
X254065Y285300D01*
X255935D01*
X257662Y286016D01*
X258984Y287338D01*
X259402Y288346D01*
X263774Y292718D01*
X272578D01*
Y289300D01*
X282978D01*
Y304700D01*
D02*
G37*
G36*
X105200D02*
X94800D01*
Y301282D01*
X92000D01*
X90361Y300956D01*
X88972Y300028D01*
X88346Y299402D01*
X87338Y298984D01*
X86016Y297662D01*
X85300Y295935D01*
Y294065D01*
X86016Y292338D01*
X87338Y291015D01*
X89065Y290300D01*
X90935D01*
X92662Y291015D01*
X93530Y291883D01*
X94800Y291357D01*
Y289300D01*
X105200D01*
Y304700D01*
D02*
G37*
G36*
X555214Y281040D02*
Y274270D01*
X559484D01*
Y281040D01*
X555214D01*
D02*
G37*
G36*
X381707D02*
X377437D01*
Y274270D01*
X381707D01*
Y281040D01*
D02*
G37*
G36*
X203929D02*
X199659D01*
Y274270D01*
X203929D01*
Y281040D01*
D02*
G37*
G36*
X732992D02*
Y274270D01*
X737262D01*
Y281040D01*
X732992D01*
D02*
G37*
G36*
X910770D02*
Y274270D01*
X915040D01*
Y281040D01*
X910770D01*
D02*
G37*
G36*
X915040Y271730D02*
X910770D01*
Y264960D01*
X915040D01*
Y271730D01*
D02*
G37*
G36*
X737262D02*
X732992D01*
Y264960D01*
X737262D01*
Y271730D01*
D02*
G37*
G36*
X559484D02*
X555214D01*
Y264960D01*
X559484D01*
Y271730D01*
D02*
G37*
G36*
X381707D02*
X377437D01*
Y264960D01*
X381707D01*
Y271730D01*
D02*
G37*
G36*
X203929D02*
X199659D01*
Y264960D01*
X203929D01*
Y271730D01*
D02*
G37*
G36*
X470256Y280700D02*
X459855D01*
Y265300D01*
X460263D01*
Y257893D01*
X458993Y257641D01*
X458984Y257662D01*
X457662Y258984D01*
X455935Y259700D01*
X455635D01*
X450898Y264437D01*
X451255Y265300D01*
X451255D01*
Y280700D01*
X440855D01*
Y265300D01*
X442283D01*
Y263945D01*
X442283Y263944D01*
X442570Y262501D01*
X443388Y261277D01*
X450300Y254365D01*
Y254065D01*
X451016Y252338D01*
X452338Y251016D01*
X454065Y250300D01*
X455935D01*
X457662Y251016D01*
X458984Y252338D01*
X458993Y252359D01*
X460263Y252107D01*
Y204945D01*
X460263Y204944D01*
X460628Y203111D01*
X461667Y201556D01*
X476612Y186611D01*
X477004Y186349D01*
X477338Y186016D01*
X477774Y185835D01*
X478166Y185573D01*
X478629Y185481D01*
X479065Y185300D01*
X479537D01*
X480000Y185208D01*
X480463Y185300D01*
X480935D01*
X481371Y185481D01*
X481834Y185573D01*
X482226Y185835D01*
X482662Y186016D01*
X482996Y186349D01*
X483388Y186611D01*
X483651Y187004D01*
X483984Y187338D01*
X484165Y187774D01*
X484427Y188166D01*
X484519Y188629D01*
X484700Y189065D01*
Y189537D01*
X484792Y190000D01*
X484700Y190463D01*
Y190935D01*
X484519Y191371D01*
X484427Y191834D01*
X484165Y192226D01*
X483984Y192662D01*
X483651Y192996D01*
X483388Y193389D01*
X469848Y206929D01*
Y265300D01*
X470256D01*
Y280700D01*
D02*
G37*
G36*
X194089Y304700D02*
X183689D01*
Y289300D01*
X184607D01*
Y281963D01*
X184589Y280700D01*
X174189D01*
Y265300D01*
X175107D01*
Y257460D01*
X174227Y257096D01*
X172904Y255773D01*
X172189Y254046D01*
Y252176D01*
X172904Y250449D01*
X174227Y249127D01*
X175954Y248411D01*
X177824D01*
X179551Y249127D01*
X180873Y250449D01*
X181291Y251457D01*
X182417Y252583D01*
X183345Y253972D01*
X183671Y255611D01*
Y256800D01*
X184941Y257609D01*
X185954Y257189D01*
X187824D01*
X189551Y257904D01*
X190873Y259227D01*
X191291Y260235D01*
X191917Y260861D01*
X192845Y262250D01*
X193171Y263889D01*
Y264960D01*
X197119D01*
Y273000D01*
Y281040D01*
X193171D01*
Y289300D01*
X194089D01*
Y304700D01*
D02*
G37*
G36*
X371867D02*
X361467D01*
Y289300D01*
X362384D01*
Y281963D01*
X362367Y280700D01*
X351967D01*
Y265300D01*
X352884D01*
Y259211D01*
X352338Y258984D01*
X351016Y257662D01*
X350300Y255935D01*
Y254065D01*
X351016Y252338D01*
X352338Y251016D01*
X354065Y250300D01*
X355935D01*
X357662Y251016D01*
X358984Y252338D01*
X359402Y253346D01*
X360195Y254139D01*
X361085Y255472D01*
X361146Y255537D01*
X361952Y255861D01*
X362501Y255948D01*
X364065Y255300D01*
X365935D01*
X367662Y256015D01*
X368984Y257338D01*
X369402Y258346D01*
X369695Y258639D01*
X370623Y260028D01*
X370949Y261667D01*
Y264960D01*
X374897D01*
Y273000D01*
Y281040D01*
X370949D01*
Y289300D01*
X371867D01*
Y304700D01*
D02*
G37*
G36*
X549644D02*
X539244D01*
Y289300D01*
X540672D01*
Y281751D01*
X540144Y280700D01*
X539402Y280700D01*
X529744D01*
Y265300D01*
X531172D01*
Y262005D01*
X529782Y261429D01*
X528460Y260107D01*
X527744Y258379D01*
Y256509D01*
X528460Y254782D01*
X529782Y253460D01*
X531510Y252744D01*
X533379D01*
X535107Y253460D01*
X536429Y254782D01*
X537144Y256509D01*
Y256809D01*
X537612Y257277D01*
X538271Y258263D01*
X539045Y258281D01*
X539199Y258257D01*
X539595Y258132D01*
X540243Y256566D01*
X541566Y255243D01*
X543293Y254528D01*
X545163D01*
X546890Y255243D01*
X548212Y256566D01*
X548928Y258293D01*
Y260163D01*
X548217Y261879D01*
Y263768D01*
X548404Y264960D01*
X549487Y264960D01*
X552674D01*
Y273000D01*
Y281040D01*
X548404Y281040D01*
X548217Y282232D01*
Y289300D01*
X549644D01*
Y304700D01*
D02*
G37*
G36*
X905200D02*
X894800D01*
Y289300D01*
X896227D01*
Y281751D01*
X895700Y280700D01*
X894958Y280700D01*
X885300D01*
Y265300D01*
X886227D01*
Y257874D01*
X886016Y257662D01*
X885300Y255935D01*
Y254065D01*
X886016Y252338D01*
X887338Y251016D01*
X889065Y250300D01*
X890935D01*
X892662Y251016D01*
X893984Y252338D01*
X894313Y253130D01*
X895687D01*
X896016Y252338D01*
X897338Y251016D01*
X899065Y250300D01*
X900935D01*
X902662Y251016D01*
X903985Y252338D01*
X904700Y254065D01*
Y255935D01*
X903985Y257662D01*
X903773Y257874D01*
Y263768D01*
X903960Y264960D01*
X905042Y264960D01*
X908230D01*
Y273000D01*
Y281040D01*
X903960Y281040D01*
X903773Y282232D01*
Y289300D01*
X905200D01*
Y304700D01*
D02*
G37*
G36*
X727422D02*
X717022D01*
Y289300D01*
X718450D01*
Y281751D01*
X717922Y280700D01*
X707522D01*
Y265300D01*
X708950D01*
Y259652D01*
X707338Y258984D01*
X706016Y257662D01*
X705300Y255935D01*
Y254065D01*
X706016Y252338D01*
X707338Y251016D01*
X709065Y250300D01*
X710935D01*
X712662Y251016D01*
X713984Y252338D01*
X714313Y253130D01*
X715687D01*
X716016Y252338D01*
X717338Y251016D01*
X719065Y250300D01*
X720935D01*
X722662Y251016D01*
X723985Y252338D01*
X724700Y254065D01*
Y254365D01*
X724890Y254555D01*
X725707Y255779D01*
X725995Y257222D01*
X725995Y257222D01*
Y263768D01*
X726182Y264960D01*
X727265Y264960D01*
X730452D01*
Y273000D01*
Y281040D01*
X726182Y281040D01*
X725995Y282232D01*
Y289300D01*
X727422D01*
Y304700D01*
D02*
G37*
G36*
X629033Y280700D02*
X618633D01*
Y265300D01*
X620061D01*
Y261167D01*
X620061Y261167D01*
X620348Y259723D01*
X621166Y258499D01*
X625300Y254365D01*
Y254065D01*
X626016Y252338D01*
X627338Y251016D01*
X629065Y250300D01*
X630935D01*
X632662Y251016D01*
X633984Y252338D01*
X634700Y254065D01*
Y255935D01*
X633984Y257662D01*
X632662Y258984D01*
X630935Y259700D01*
X630635D01*
X627606Y262729D01*
Y265300D01*
X629033D01*
Y280700D01*
D02*
G37*
G36*
X273478D02*
X263078D01*
Y265300D01*
X263995D01*
Y261722D01*
X264321Y260084D01*
X265250Y258694D01*
X270598Y253346D01*
X271016Y252338D01*
X272338Y251016D01*
X274065Y250300D01*
X275935D01*
X277662Y251016D01*
X278985Y252338D01*
X279700Y254065D01*
Y255935D01*
X278985Y257662D01*
X277662Y258984D01*
X276654Y259402D01*
X272560Y263496D01*
Y265300D01*
X273478D01*
Y280700D01*
D02*
G37*
G36*
X95700D02*
X85300D01*
Y265300D01*
X85718D01*
Y256943D01*
X85300Y255935D01*
Y254065D01*
X86016Y252338D01*
X87338Y251016D01*
X89065Y250300D01*
X90935D01*
X92662Y251016D01*
X93984Y252338D01*
X94700Y254065D01*
Y255935D01*
X94282Y256943D01*
Y265300D01*
X95700D01*
Y280700D01*
D02*
G37*
G36*
X806811D02*
X796411D01*
Y265300D01*
X797839D01*
Y256611D01*
X797839Y256611D01*
X798126Y255167D01*
X798943Y253944D01*
X804411Y248476D01*
Y248176D01*
X805127Y246449D01*
X806449Y245127D01*
X808176Y244411D01*
X810046D01*
X811773Y245127D01*
X813095Y246449D01*
X813811Y248176D01*
Y250046D01*
X813095Y251773D01*
X811773Y253095D01*
X810046Y253811D01*
X809746D01*
X805384Y258174D01*
Y265300D01*
X806811D01*
Y280700D01*
D02*
G37*
G36*
X292478D02*
X282078D01*
Y265300D01*
X282995D01*
Y262722D01*
X283321Y261084D01*
X284250Y259694D01*
X295718Y248226D01*
Y191943D01*
X295300Y190935D01*
Y189065D01*
X296016Y187338D01*
X297338Y186016D01*
X299065Y185300D01*
X300935D01*
X302662Y186016D01*
X303985Y187338D01*
X304700Y189065D01*
Y190935D01*
X304282Y191943D01*
Y250000D01*
X303956Y251639D01*
X303028Y253028D01*
X292026Y264030D01*
X292478Y265300D01*
X292478D01*
Y280700D01*
D02*
G37*
G36*
X114700D02*
X104300D01*
Y265300D01*
X105218D01*
Y260500D01*
X105544Y258861D01*
X106472Y257472D01*
X110718Y253226D01*
Y191943D01*
X110300Y190935D01*
Y189065D01*
X111016Y187338D01*
X112338Y186016D01*
X114065Y185300D01*
X115935D01*
X117662Y186016D01*
X118984Y187338D01*
X119700Y189065D01*
Y190935D01*
X119282Y191943D01*
Y255000D01*
X118956Y256639D01*
X118028Y258028D01*
X113782Y262274D01*
Y265300D01*
X114700D01*
Y280700D01*
D02*
G37*
G36*
X648033D02*
X637633D01*
Y265300D01*
X641256D01*
X650208Y256348D01*
Y190000D01*
X650300Y189537D01*
Y189065D01*
X650481Y188629D01*
X650573Y188166D01*
X650835Y187774D01*
X651016Y187338D01*
X651349Y187004D01*
X651611Y186611D01*
X652004Y186349D01*
X652338Y186016D01*
X652774Y185835D01*
X653166Y185573D01*
X653629Y185481D01*
X654065Y185300D01*
X654537D01*
X655000Y185208D01*
X655463Y185300D01*
X655935D01*
X656371Y185481D01*
X656834Y185573D01*
X657226Y185835D01*
X657662Y186016D01*
X657996Y186349D01*
X658389Y186611D01*
X658651Y187004D01*
X658985Y187338D01*
X659165Y187774D01*
X659427Y188166D01*
X659519Y188629D01*
X659700Y189065D01*
Y189537D01*
X659792Y190000D01*
Y258333D01*
X659792Y258333D01*
X659427Y260167D01*
X658389Y261722D01*
X658388Y261722D01*
X648033Y272077D01*
Y280700D01*
D02*
G37*
G36*
X825811D02*
X815411D01*
Y265300D01*
X819034D01*
X830208Y254126D01*
Y185000D01*
X830300Y184537D01*
Y184065D01*
X830481Y183629D01*
X830573Y183166D01*
X830835Y182774D01*
X831016Y182338D01*
X831349Y182004D01*
X831611Y181611D01*
X832004Y181349D01*
X832338Y181016D01*
X832774Y180835D01*
X833166Y180573D01*
X833629Y180481D01*
X834065Y180300D01*
X834537D01*
X835000Y180208D01*
X835463Y180300D01*
X835935D01*
X836371Y180481D01*
X836834Y180573D01*
X837226Y180835D01*
X837662Y181016D01*
X837996Y181349D01*
X838389Y181611D01*
X838651Y182004D01*
X838985Y182338D01*
X839165Y182774D01*
X839427Y183166D01*
X839519Y183629D01*
X839700Y184065D01*
Y184537D01*
X839792Y185000D01*
Y256111D01*
X839427Y257945D01*
X838389Y259499D01*
X838388Y259499D01*
X825811Y272077D01*
Y280700D01*
D02*
G37*
G36*
X746388Y105540D02*
X746270D01*
Y96270D01*
X755540D01*
Y96388D01*
X754822Y99068D01*
X753434Y101472D01*
X751472Y103434D01*
X749068Y104822D01*
X746388Y105540D01*
D02*
G37*
G36*
X743730D02*
X743612D01*
X740932Y104822D01*
X738528Y103434D01*
X736566Y101472D01*
X735178Y99068D01*
X734460Y96388D01*
Y96270D01*
X743730D01*
Y105540D01*
D02*
G37*
G36*
X460270Y115968D02*
Y92270D01*
X470135D01*
Y105000D01*
X469756Y107882D01*
X468643Y110568D01*
X466874Y112874D01*
X464568Y114643D01*
X461882Y115756D01*
X460270Y115968D01*
D02*
G37*
G36*
X457730D02*
X456118Y115756D01*
X453432Y114643D01*
X451126Y112874D01*
X449357Y110568D01*
X448244Y107882D01*
X447865Y105000D01*
Y92270D01*
X457730D01*
Y115968D01*
D02*
G37*
G36*
X585935Y189700D02*
X584065D01*
X582338Y188985D01*
X581016Y187662D01*
X580300Y185935D01*
Y184065D01*
X581016Y182338D01*
X582338Y181016D01*
X584065Y180300D01*
X584365D01*
X642332Y122332D01*
X642332Y122332D01*
X643556Y121515D01*
X645000Y121228D01*
X789437D01*
X811580Y99085D01*
X811495Y98937D01*
X810800Y96343D01*
Y93657D01*
X811495Y91063D01*
X812838Y88737D01*
X814737Y86838D01*
X817063Y85495D01*
X819657Y84800D01*
X822343D01*
X824937Y85495D01*
X827263Y86838D01*
X829162Y88737D01*
X830505Y91063D01*
X831200Y93657D01*
Y96343D01*
X830505Y98937D01*
X829162Y101263D01*
X827263Y103162D01*
X824937Y104505D01*
X822343Y105200D01*
X819657D01*
X817063Y104505D01*
X816915Y104420D01*
X793668Y127668D01*
X792444Y128485D01*
X791000Y128772D01*
X791000Y128772D01*
X646563D01*
X589700Y185635D01*
Y185935D01*
X588984Y187662D01*
X587662Y188985D01*
X585935Y189700D01*
D02*
G37*
G36*
X755540Y93730D02*
X746270D01*
Y84460D01*
X746388D01*
X749068Y85178D01*
X751472Y86566D01*
X753434Y88528D01*
X754822Y90932D01*
X755540Y93612D01*
Y93730D01*
D02*
G37*
G36*
X743730D02*
X734460D01*
Y93612D01*
X735178Y90932D01*
X736566Y88528D01*
X738528Y86566D01*
X740932Y85178D01*
X743612Y84460D01*
X743730D01*
Y93730D01*
D02*
G37*
G36*
X470135Y89730D02*
X460270D01*
Y66032D01*
X461882Y66244D01*
X464568Y67357D01*
X466874Y69126D01*
X468643Y71432D01*
X469756Y74118D01*
X470135Y77000D01*
Y89730D01*
D02*
G37*
G36*
X457730D02*
X447865D01*
Y77000D01*
X448244Y74118D01*
X449357Y71432D01*
X451126Y69126D01*
X453432Y67357D01*
X456118Y66244D01*
X457730Y66032D01*
Y89730D01*
D02*
G37*
G36*
X541000Y114792D02*
X538207Y114425D01*
X535604Y113346D01*
X533369Y111631D01*
X531654Y109396D01*
X530575Y106793D01*
X530208Y104000D01*
Y76000D01*
X530575Y73207D01*
X531654Y70604D01*
X533369Y68369D01*
X535604Y66654D01*
X538207Y65575D01*
X541000Y65208D01*
X543793Y65575D01*
X546396Y66654D01*
X548631Y68369D01*
X550346Y70604D01*
X551425Y73207D01*
X551792Y76000D01*
Y104000D01*
X551425Y106793D01*
X550346Y109396D01*
X548631Y111631D01*
X546396Y113346D01*
X543793Y114425D01*
X541000Y114792D01*
D02*
G37*
G36*
X511500Y61135D02*
X501270D01*
Y51270D01*
X522468D01*
X522256Y52882D01*
X521143Y55568D01*
X519374Y57874D01*
X517068Y59643D01*
X514382Y60756D01*
X511500Y61135D01*
D02*
G37*
G36*
X498730D02*
X488500D01*
X485618Y60756D01*
X482932Y59643D01*
X480626Y57874D01*
X478857Y55568D01*
X477744Y52882D01*
X477532Y51270D01*
X498730D01*
Y61135D01*
D02*
G37*
G36*
X522468Y48730D02*
X501270D01*
Y38865D01*
X511500D01*
X514382Y39244D01*
X517068Y40357D01*
X519374Y42126D01*
X521143Y44432D01*
X522256Y47118D01*
X522468Y48730D01*
D02*
G37*
G36*
X498730D02*
X477532D01*
X477744Y47118D01*
X478857Y44432D01*
X480626Y42126D01*
X482932Y40357D01*
X485618Y39244D01*
X488500Y38865D01*
X498730D01*
Y48730D01*
D02*
G37*
G36*
X961694Y67200D02*
X958306D01*
X954983Y66539D01*
X951853Y65242D01*
X949036Y63360D01*
X946640Y60964D01*
X944758Y58147D01*
X943461Y55017D01*
X942800Y51694D01*
Y48306D01*
X943461Y44983D01*
X944758Y41853D01*
X946640Y39036D01*
X949036Y36640D01*
X951853Y34758D01*
X954983Y33461D01*
X958306Y32800D01*
X961694D01*
X965017Y33461D01*
X968147Y34758D01*
X970964Y36640D01*
X973360Y39036D01*
X975242Y41853D01*
X976539Y44983D01*
X977200Y48306D01*
Y51694D01*
X976539Y55017D01*
X975242Y58147D01*
X973360Y60964D01*
X970964Y63360D01*
X968147Y65242D01*
X965017Y66539D01*
X961694Y67200D01*
D02*
G37*
G36*
X51694D02*
X48306D01*
X44983Y66539D01*
X41853Y65242D01*
X39036Y63360D01*
X36640Y60964D01*
X34758Y58147D01*
X33461Y55017D01*
X32800Y51694D01*
Y48306D01*
X33461Y44983D01*
X34758Y41853D01*
X36640Y39036D01*
X39036Y36640D01*
X41853Y34758D01*
X44983Y33461D01*
X48306Y32800D01*
X51694D01*
X55017Y33461D01*
X58147Y34758D01*
X60964Y36640D01*
X63360Y39036D01*
X65242Y41853D01*
X66539Y44983D01*
X67200Y48306D01*
Y51694D01*
X66539Y55017D01*
X65242Y58147D01*
X63360Y60964D01*
X60964Y63360D01*
X58147Y65242D01*
X55017Y66539D01*
X51694Y67200D01*
D02*
G37*
%LPD*%
G36*
X960718Y728226D02*
Y583228D01*
X959448Y582659D01*
X959282Y582806D01*
Y708500D01*
X958956Y710139D01*
X958028Y711528D01*
X901600Y767956D01*
Y782358D01*
X906586D01*
X960718Y728226D01*
D02*
G37*
G36*
X782892Y503552D02*
X782300Y501343D01*
Y499469D01*
X781030Y498943D01*
X776947Y503026D01*
X775558Y503955D01*
X773919Y504281D01*
X716806D01*
X715662Y506261D01*
X713763Y508160D01*
X711437Y509503D01*
X708843Y510198D01*
X706157D01*
X703563Y509503D01*
X701237Y508160D01*
X699338Y506261D01*
X697995Y503935D01*
X697300Y501341D01*
Y498656D01*
X697892Y496446D01*
X680728Y479282D01*
X653334D01*
X653208Y480552D01*
X655746Y481057D01*
X659331Y482542D01*
X662558Y484698D01*
X665302Y487442D01*
X667458Y490668D01*
X668943Y494254D01*
X669700Y498060D01*
Y501940D01*
X668943Y505746D01*
X667458Y509331D01*
X665302Y512558D01*
X662558Y515302D01*
X660783Y516488D01*
X661169Y517758D01*
X768686D01*
X782892Y503552D01*
D02*
G37*
G36*
X339217Y516488D02*
X337442Y515302D01*
X334698Y512558D01*
X332542Y509331D01*
X331057Y505746D01*
X330300Y501940D01*
Y498060D01*
X331057Y494254D01*
X332542Y490668D01*
X334698Y487442D01*
X337442Y484698D01*
X339217Y483512D01*
X338831Y482242D01*
X297731D01*
X291444Y488530D01*
X291970Y489800D01*
X293843D01*
X296437Y490495D01*
X298763Y491838D01*
X300662Y493737D01*
X302005Y496063D01*
X302700Y498657D01*
Y501343D01*
X302108Y503552D01*
X316314Y517758D01*
X338831D01*
X339217Y516488D01*
D02*
G37*
G36*
X473054Y496972D02*
X474443Y496044D01*
X476082Y495718D01*
X583194D01*
X584338Y493737D01*
X586237Y491838D01*
X588563Y490495D01*
X591157Y489800D01*
X593843D01*
X596437Y490495D01*
X598763Y491838D01*
X600662Y493737D01*
X601805Y495718D01*
X616418D01*
X618057Y496044D01*
X619446Y496972D01*
X630716Y508242D01*
X631793Y507523D01*
X631057Y505746D01*
X630300Y501940D01*
Y498060D01*
X631057Y494254D01*
X632542Y490668D01*
X634698Y487442D01*
X637442Y484698D01*
X640668Y482542D01*
X644254Y481057D01*
X646792Y480552D01*
X646666Y479282D01*
X434272D01*
X417108Y496446D01*
X417700Y498656D01*
Y501341D01*
X417005Y503935D01*
X415662Y506261D01*
X413763Y508160D01*
X411437Y509503D01*
X408843Y510198D01*
X406157D01*
X403563Y509503D01*
X401237Y508160D01*
X399338Y506261D01*
X397995Y503935D01*
X397300Y501341D01*
Y498656D01*
X397892Y496446D01*
X383688Y482242D01*
X361169D01*
X360783Y483512D01*
X362558Y484698D01*
X365302Y487442D01*
X367458Y490668D01*
X368943Y494254D01*
X369700Y498060D01*
Y501940D01*
X368943Y505746D01*
X367458Y509331D01*
X365302Y512558D01*
X362558Y515302D01*
X360783Y516488D01*
X361169Y517758D01*
X452268D01*
X473054Y496972D01*
D02*
G37*
G36*
X656342Y469448D02*
X646177Y459282D01*
X601805D01*
X600662Y461263D01*
X598763Y463162D01*
X596437Y464505D01*
X593843Y465200D01*
X591157D01*
X588563Y464505D01*
X586237Y463162D01*
X584338Y461263D01*
X582995Y458937D01*
X582407Y456742D01*
X516598D01*
X516012Y458012D01*
X516709Y459221D01*
X517200Y461052D01*
Y462948D01*
X516709Y464779D01*
X515761Y466421D01*
X514421Y467761D01*
X512779Y468709D01*
X510948Y469200D01*
X509052D01*
X507221Y468709D01*
X505579Y467761D01*
X504239Y466421D01*
X503291Y464779D01*
X502800Y462948D01*
Y461052D01*
X503291Y459221D01*
X503988Y458012D01*
X503402Y456742D01*
X497202D01*
X496716Y457916D01*
X497200Y458400D01*
Y465600D01*
X493600Y469200D01*
X486400D01*
X482800Y465600D01*
Y458400D01*
X483284Y457916D01*
X482798Y456742D01*
X446535D01*
X433829Y469448D01*
X434356Y470718D01*
X655816D01*
X656342Y469448D01*
D02*
G37*
G36*
X940718Y659675D02*
Y476539D01*
X918970Y454792D01*
X917700Y455318D01*
Y456343D01*
X917108Y458552D01*
X933028Y474472D01*
X933956Y475861D01*
X934282Y477500D01*
Y620000D01*
X933956Y621639D01*
X933028Y623028D01*
X894682Y661374D01*
Y686452D01*
X894723Y686463D01*
X897277Y687938D01*
X899362Y690023D01*
X900837Y692577D01*
X901600Y695425D01*
Y696996D01*
X902870Y697522D01*
X940718Y659675D01*
D02*
G37*
G36*
X782892Y458552D02*
X782300Y456343D01*
Y453657D01*
X782995Y451063D01*
X784338Y448737D01*
X785063Y448012D01*
X784537Y446742D01*
X762264D01*
X750979Y458028D01*
X749589Y458956D01*
X747951Y459282D01*
X716806D01*
X715662Y461263D01*
X714937Y461988D01*
X715463Y463258D01*
X778186D01*
X782892Y458552D01*
D02*
G37*
G36*
X700063Y461988D02*
X699338Y461263D01*
X697995Y458937D01*
X697300Y456343D01*
Y453657D01*
X697892Y451448D01*
X693186Y446742D01*
X600463D01*
X599937Y448012D01*
X600662Y448737D01*
X601805Y450718D01*
X647951D01*
X649589Y451044D01*
X650979Y451972D01*
X662264Y463258D01*
X699537D01*
X700063Y461988D01*
D02*
G37*
G36*
X441733Y449432D02*
X443122Y448504D01*
X444761Y448178D01*
X583757D01*
X583867Y448012D01*
X583188Y446742D01*
X421814D01*
X417108Y451448D01*
X417700Y453657D01*
Y456343D01*
X417005Y458937D01*
X415662Y461263D01*
X414937Y461988D01*
X415463Y463258D01*
X427907D01*
X441733Y449432D01*
D02*
G37*
G36*
X400063Y461988D02*
X399338Y461263D01*
X397995Y458937D01*
X397300Y456343D01*
Y453657D01*
X397892Y451448D01*
X393186Y446742D01*
X300463D01*
X299937Y448012D01*
X300662Y448737D01*
X301805Y450718D01*
X347951D01*
X349590Y451044D01*
X350979Y451972D01*
X362265Y463258D01*
X399537D01*
X400063Y461988D01*
D02*
G37*
G36*
X282892Y458552D02*
X282300Y456343D01*
Y453657D01*
X282995Y451063D01*
X284338Y448737D01*
X285063Y448012D01*
X284537Y446742D01*
X262264D01*
X250979Y458028D01*
X249590Y458956D01*
X247951Y459282D01*
X216806D01*
X215662Y461263D01*
X214937Y461988D01*
X215463Y463258D01*
X278186D01*
X282892Y458552D01*
D02*
G37*
G36*
X561056Y783015D02*
X561118Y783002D01*
X561988Y781535D01*
X561887Y781212D01*
X561338Y780984D01*
X560015Y779662D01*
X559300Y777935D01*
Y776065D01*
X560015Y774338D01*
X561338Y773016D01*
X563065Y772300D01*
X563246D01*
X563839Y771413D01*
Y770464D01*
X545157Y751782D01*
X544439Y750707D01*
X544186Y749439D01*
Y718232D01*
X542916Y717190D01*
X542500Y717272D01*
X541056Y716985D01*
X540000Y716280D01*
X538944Y716985D01*
X537500Y717272D01*
X536056Y716985D01*
X535000Y716280D01*
X533944Y716985D01*
X532500Y717272D01*
X531056Y716985D01*
X530000Y716280D01*
X528944Y716985D01*
X527500Y717272D01*
X526056Y716985D01*
X524832Y716168D01*
X524015Y714944D01*
X523727Y713500D01*
Y707314D01*
X483659D01*
X483173Y708487D01*
X491373Y716686D01*
X505000D01*
X506268Y716939D01*
X507343Y717657D01*
X508414Y718727D01*
X518500D01*
X519944Y719015D01*
X521168Y719832D01*
X521985Y721056D01*
X522272Y722500D01*
X521985Y723944D01*
X521279Y725000D01*
X521985Y726056D01*
X522272Y727500D01*
X521985Y728944D01*
X521279Y730000D01*
X521985Y731056D01*
X522272Y732500D01*
X521985Y733944D01*
X521935Y734019D01*
X521820Y734486D01*
X522878Y735193D01*
X534307Y746622D01*
X535014Y747680D01*
X535263Y748929D01*
Y771255D01*
X535253Y771304D01*
X536423Y771930D01*
X537338Y771016D01*
X539065Y770300D01*
X540935D01*
X542662Y771016D01*
X543984Y772338D01*
X544700Y774065D01*
Y775086D01*
X549807Y780193D01*
X550514Y781251D01*
X550640Y781882D01*
X551766Y782753D01*
X552033Y782821D01*
X552500Y782728D01*
X553944Y783015D01*
X555000Y783720D01*
X556056Y783015D01*
X557500Y782728D01*
X558944Y783015D01*
X560000Y783720D01*
X561056Y783015D01*
D02*
G37*
G36*
X433756Y675513D02*
X431556Y673314D01*
X83008D01*
X82482Y674584D01*
X84584Y676686D01*
X433270D01*
X433756Y675513D01*
D02*
G37*
G36*
X524832Y699833D02*
X525185Y699597D01*
X525346Y697962D01*
X485699Y658314D01*
X441730D01*
X441244Y659487D01*
X482444Y700686D01*
X524262D01*
X524832Y699833D01*
D02*
G37*
G36*
X810208Y591470D02*
X809682Y590200D01*
X808657D01*
X806448Y589608D01*
X800488Y595568D01*
X799099Y596496D01*
X797460Y596822D01*
X684806D01*
X683167Y596496D01*
X681778Y595568D01*
X665492Y579282D01*
X654657D01*
X654007Y580438D01*
X654036Y580552D01*
X656263Y581838D01*
X658162Y583737D01*
X659305Y585718D01*
X665000D01*
X666639Y586044D01*
X668028Y586972D01*
X681774Y600718D01*
X800960D01*
X810208Y591470D01*
D02*
G37*
G36*
X610208D02*
X609682Y590200D01*
X608657D01*
X606448Y589608D01*
X600488Y595568D01*
X599099Y596496D01*
X597460Y596822D01*
X376167D01*
X374528Y596496D01*
X373987Y596135D01*
X373177Y597121D01*
X376774Y600718D01*
X600960D01*
X610208Y591470D01*
D02*
G37*
G36*
X310208D02*
X309682Y590200D01*
X308657D01*
X306448Y589608D01*
X300488Y595568D01*
X299099Y596496D01*
X297460Y596822D01*
X172882D01*
X171244Y596496D01*
X169855Y595568D01*
X160992Y586705D01*
X159853Y587363D01*
X160200Y588657D01*
Y591343D01*
X160183Y591408D01*
X169493Y600718D01*
X300961D01*
X310208Y591470D01*
D02*
G37*
G36*
X800392Y583552D02*
X799800Y581343D01*
Y578657D01*
X800495Y576063D01*
X801838Y573737D01*
X802563Y573012D01*
X802037Y571742D01*
X762264D01*
X750979Y583028D01*
X749589Y583956D01*
X747951Y584282D01*
X699305D01*
X698162Y586263D01*
X697437Y586988D01*
X697963Y588258D01*
X795686D01*
X800392Y583552D01*
D02*
G37*
G36*
X600392D02*
X599800Y581343D01*
Y578657D01*
X600495Y576063D01*
X601838Y573737D01*
X602563Y573012D01*
X602037Y571742D01*
X569314D01*
X563028Y578028D01*
X561639Y578956D01*
X560000Y579282D01*
X400200D01*
Y581343D01*
X399505Y583937D01*
X398162Y586263D01*
X397437Y586988D01*
X397963Y588258D01*
X595686D01*
X600392Y583552D01*
D02*
G37*
G36*
X382563Y586988D02*
X381838Y586263D01*
X380495Y583937D01*
X379800Y581343D01*
Y578657D01*
X380392Y576448D01*
X373226Y569282D01*
X314657D01*
X314007Y570438D01*
X314036Y570552D01*
X315811Y571577D01*
X316608Y571044D01*
X318247Y570718D01*
X358627D01*
X360265Y571044D01*
X361655Y571972D01*
X377940Y588258D01*
X382037D01*
X382563Y586988D01*
D02*
G37*
G36*
X300392Y583552D02*
X299800Y581343D01*
Y578657D01*
X300495Y576063D01*
X301838Y573737D01*
X303737Y571838D01*
X305964Y570552D01*
X305993Y570438D01*
X305343Y569282D01*
X226774D01*
X213028Y583028D01*
X211639Y583956D01*
X210000Y584282D01*
X199305D01*
X198162Y586263D01*
X197437Y586988D01*
X197963Y588258D01*
X295686D01*
X300392Y583552D01*
D02*
G37*
G36*
X782892Y548552D02*
X782300Y546343D01*
Y543657D01*
X782995Y541063D01*
X784338Y538737D01*
X785063Y538012D01*
X784537Y536742D01*
X762264D01*
X750979Y548028D01*
X749589Y548956D01*
X747951Y549282D01*
X716806D01*
X715662Y551263D01*
X714937Y551988D01*
X715463Y553258D01*
X778186D01*
X782892Y548552D01*
D02*
G37*
G36*
X700063Y551988D02*
X699338Y551263D01*
X698195Y549282D01*
X680000D01*
X678361Y548956D01*
X676972Y548028D01*
X665686Y536742D01*
X600463D01*
X599937Y538012D01*
X600662Y538737D01*
X601805Y540718D01*
X647951D01*
X649589Y541044D01*
X650979Y541972D01*
X662264Y553258D01*
X699537D01*
X700063Y551988D01*
D02*
G37*
G36*
X546972Y541972D02*
X548361Y541044D01*
X550000Y540718D01*
X583194D01*
X584338Y538737D01*
X585063Y538012D01*
X584537Y536742D01*
X536283D01*
X525458Y547568D01*
X524068Y548496D01*
X522430Y548822D01*
X417036D01*
X417005Y548937D01*
X415662Y551263D01*
X414937Y551988D01*
X415463Y553258D01*
X535686D01*
X546972Y541972D01*
D02*
G37*
G36*
X400063Y551988D02*
X399338Y551263D01*
X397995Y548937D01*
X397300Y546343D01*
Y543657D01*
X397892Y541448D01*
X393186Y536742D01*
X300463D01*
X299937Y538012D01*
X300662Y538737D01*
X302005Y541063D01*
X302700Y543657D01*
Y546343D01*
X302108Y548552D01*
X306814Y553258D01*
X399537D01*
X400063Y551988D01*
D02*
G37*
G36*
X282892Y548552D02*
X282300Y546343D01*
Y543657D01*
X282995Y541063D01*
X284338Y538737D01*
X285063Y538012D01*
X284537Y536742D01*
X262264D01*
X250979Y548028D01*
X249590Y548956D01*
X247951Y549282D01*
X216806D01*
X215662Y551263D01*
X214937Y551988D01*
X215463Y553258D01*
X278186D01*
X282892Y548552D01*
D02*
G37*
D11*
X441180Y705000D02*
X446954D01*
X489454Y747500D01*
X487531Y737515D02*
X492941Y742925D01*
X532500Y807500D02*
X541270Y816270D01*
X551270D01*
X532500Y792000D02*
Y807500D01*
X520571Y737500D02*
X532000Y748929D01*
X521500Y781754D02*
X532000Y771255D01*
Y748929D02*
Y771255D01*
X492941Y742925D02*
X502177D01*
X512863Y737363D02*
X513000Y737500D01*
X502602Y742500D02*
X513000D01*
Y737500D02*
X520571D01*
X499953Y737363D02*
X512863D01*
X502177Y742925D02*
X502602Y742500D01*
X499816Y737225D02*
X499953Y737363D01*
X489454Y747500D02*
X513000D01*
X564000Y777541D02*
X567500Y781041D01*
Y783500D01*
X567500Y783500D02*
X567500Y783500D01*
X564000Y777000D02*
Y777541D01*
X567500Y783500D02*
Y792000D01*
X459544Y731236D02*
X480807Y752500D01*
X460003Y757500D02*
X482944D01*
X482944Y757500D02*
X507500D01*
X507500Y757500D01*
X482944D02*
X482944Y757500D01*
X507500Y757500D02*
X513000D01*
Y823000D02*
X545000Y855000D01*
X545000D01*
X527500Y813000D02*
X529500Y815000D01*
X683185Y827645D02*
X786250D01*
X542645D02*
X683185D01*
X530000Y815000D02*
X542645Y827645D01*
X529500Y815000D02*
X530000D01*
X582500Y792000D02*
Y807500D01*
X480807Y752500D02*
X513000D01*
X521500Y807000D02*
X527500Y813000D01*
X513000Y772500D02*
X522500D01*
X521500Y781754D02*
Y807000D01*
X522500Y772500D02*
X525000Y770000D01*
X548668Y683668D02*
X555000Y690000D01*
X548668Y677789D02*
Y683668D01*
X555000Y690000D02*
X572071D01*
X582500Y700429D02*
Y708000D01*
X572071Y690000D02*
X582500Y700429D01*
X786250Y827645D02*
X882355D01*
X885000Y825000D01*
X480000Y780000D02*
X492500Y767500D01*
X480000Y780000D02*
Y805000D01*
X492500Y767500D02*
X513000D01*
X460000Y790000D02*
X487500Y762500D01*
X513000D01*
Y777500D02*
Y823000D01*
X547500Y782500D02*
Y792000D01*
X540000Y775000D02*
X547500Y782500D01*
X527500Y792000D02*
Y813000D01*
X472498Y812502D02*
X480000Y805000D01*
D14*
X513000Y742500D02*
D03*
X597000Y772500D02*
D03*
X513000Y777500D02*
D03*
Y772500D02*
D03*
Y767500D02*
D03*
Y762500D02*
D03*
Y757500D02*
D03*
Y752500D02*
D03*
Y747500D02*
D03*
Y737500D02*
D03*
Y732500D02*
D03*
Y727500D02*
D03*
Y722500D02*
D03*
X597000D02*
D03*
Y727500D02*
D03*
Y732500D02*
D03*
Y737500D02*
D03*
Y742500D02*
D03*
Y747500D02*
D03*
Y752500D02*
D03*
Y757500D02*
D03*
Y762500D02*
D03*
Y767500D02*
D03*
Y777500D02*
D03*
D15*
X562500Y708000D02*
D03*
X577500D02*
D03*
X532500Y792000D02*
D03*
X527500Y708000D02*
D03*
X532500D02*
D03*
X537500D02*
D03*
X542500D02*
D03*
X547500D02*
D03*
X552500D02*
D03*
X557500D02*
D03*
X567500D02*
D03*
X572500D02*
D03*
X582500D02*
D03*
Y792000D02*
D03*
X577500D02*
D03*
X572500D02*
D03*
X567500D02*
D03*
X562500D02*
D03*
X557500D02*
D03*
X552500D02*
D03*
X547500D02*
D03*
X542500D02*
D03*
X537500D02*
D03*
X527500D02*
D03*
D16*
X179389Y273000D02*
D03*
X198389D02*
D03*
X188889Y297000D02*
D03*
X534944Y273000D02*
D03*
X544444Y297000D02*
D03*
X553944Y273000D02*
D03*
X890500D02*
D03*
X900000Y297000D02*
D03*
X909500Y273000D02*
D03*
X801611D02*
D03*
X811111Y297000D02*
D03*
X820611Y273000D02*
D03*
X100000Y297000D02*
D03*
X109500Y273000D02*
D03*
X90500D02*
D03*
X268278D02*
D03*
X277778Y297000D02*
D03*
X287278Y273000D02*
D03*
X357167D02*
D03*
X366667Y297000D02*
D03*
X376167Y273000D02*
D03*
X446055D02*
D03*
X455555Y297000D02*
D03*
X465056Y273000D02*
D03*
X623833D02*
D03*
X633333Y297000D02*
D03*
X642833Y273000D02*
D03*
X712722D02*
D03*
X722222Y297000D02*
D03*
X731722Y273000D02*
D03*
D33*
X435999Y680000D02*
X484999Y729000D01*
X81757Y670000D02*
X432929D01*
X484999Y729000D02*
X499592D01*
X432929Y670000D02*
X487629Y724700D01*
X502080D01*
X435000Y665000D02*
X490000Y720000D01*
X505000D01*
X83212Y680000D02*
X435999D01*
X85000Y665000D02*
X435000D01*
X499592Y729000D02*
X503092Y732500D01*
X502080Y724700D02*
X504880Y727500D01*
X505000Y720000D02*
X507206Y722206D01*
X503092Y732500D02*
X513000D01*
X504880Y727500D02*
X513000D01*
X512706Y722206D02*
X513000Y722500D01*
X507206Y722206D02*
X512706D01*
X547500Y749439D02*
X568539Y770478D01*
X552500Y745743D02*
X621758Y815000D01*
X552500Y708000D02*
Y745743D01*
X621758Y815000D02*
X691281D01*
X55200Y651988D02*
X83212Y680000D01*
X60000Y355000D02*
X85000Y330000D01*
X60000Y648243D02*
X81757Y670000D01*
X70000Y370000D02*
X100000Y340000D01*
X70000Y370000D02*
Y638243D01*
X65000Y365000D02*
X95000Y335000D01*
X60000Y355000D02*
Y648243D01*
X55200Y353012D02*
Y651988D01*
Y353012D02*
X83012Y325200D01*
X65000Y365000D02*
Y645000D01*
X85000Y665000D01*
X70000Y638243D02*
X91757Y660000D01*
X75000Y635000D02*
X95000Y655000D01*
X75000Y380000D02*
Y635000D01*
Y380000D02*
X105000Y350000D01*
X91757Y660000D02*
X437071D01*
X100000Y340000D02*
X905000D01*
X85000Y330000D02*
X380000D01*
X95000Y335000D02*
X740000D01*
X105000Y350000D02*
X515000D01*
X83012Y325200D02*
X199800D01*
X95000Y655000D02*
X487071D01*
X547500Y708000D02*
Y749439D01*
X487071Y655000D02*
X532500Y700429D01*
X437071Y660000D02*
X481071Y704000D01*
X557500Y708000D02*
Y742500D01*
X585000Y770000D01*
X905000Y340000D02*
X925000Y320000D01*
X740000Y335000D02*
X750000Y325000D01*
X380000Y330000D02*
X390000Y320000D01*
X199800Y325200D02*
X210000Y315000D01*
X532500Y700429D02*
Y708000D01*
X527500Y704000D02*
Y708000D01*
X481071Y704000D02*
X527500D01*
X925000Y255000D02*
Y320000D01*
X750000Y250000D02*
Y325000D01*
X390000Y250000D02*
Y320000D01*
X210000Y245000D02*
Y315000D01*
D34*
X487531Y737515D02*
X488072D01*
X400000Y910000D02*
X435000D01*
X470000Y875000D02*
X540000D01*
X435000Y910000D02*
X470000Y875000D01*
X320000Y705000D02*
X441180D01*
X540000Y875000D02*
X580000Y835000D01*
X650000D01*
X580000Y810000D02*
X582500Y807500D01*
X791000Y125000D02*
X821000Y95000D01*
X645000Y125000D02*
X791000D01*
X585000Y185000D02*
X645000Y125000D01*
X310000Y695000D02*
X320000Y705000D01*
X649858Y850000D02*
X905000D01*
X790000Y290000D02*
X797000Y297000D01*
X900000Y255000D02*
Y297000D01*
X900000Y297000D02*
X900000Y297000D01*
X890000Y255000D02*
Y272500D01*
X890500Y273000D01*
X801611Y256611D02*
Y273000D01*
Y256611D02*
X809111Y249111D01*
X797000Y297000D02*
X811111D01*
X720000Y255000D02*
X722222Y257222D01*
Y297000D01*
X712722Y257722D02*
Y273000D01*
X710000Y255000D02*
X712722Y257722D01*
X610000Y285000D02*
X622000Y297000D01*
X633333D01*
X441094Y296094D02*
X454649D01*
X435000Y290000D02*
X441094Y296094D01*
X454649D02*
X455555Y297000D01*
X544228Y259228D02*
X544444Y259444D01*
Y297000D01*
X623833Y261167D02*
X630000Y255000D01*
X623833Y261167D02*
Y273000D01*
X534944Y259944D02*
Y273000D01*
X532444Y257444D02*
X534944Y259944D01*
X446055Y263944D02*
Y273000D01*
Y263944D02*
X455000Y255000D01*
D35*
X597000Y737500D02*
X705100D01*
X597000Y732500D02*
X732500D01*
X706025Y738425D02*
X712500D01*
X738000Y738000D02*
Y773100D01*
X732500Y732500D02*
X738000Y738000D01*
X705100Y737500D02*
X706025Y738425D01*
X630000Y745000D02*
X650000Y765000D01*
Y805000D01*
X615000Y745000D02*
X630000D01*
X607500Y752500D02*
X615000Y745000D01*
X607500Y752500D02*
Y764571D01*
X604571Y767500D02*
X607500Y764571D01*
X597000Y767500D02*
X604571D01*
X607500Y772500D02*
X620000Y760000D01*
X597000Y772500D02*
X607500D01*
X617500Y777500D02*
X620000Y780000D01*
X597000Y777500D02*
X617500D01*
X812500Y722500D02*
X839600Y749600D01*
X597000Y727500D02*
X747500D01*
X763400Y743400D01*
X597000Y722500D02*
X812500D01*
X763400Y743400D02*
Y773100D01*
X839600Y749600D02*
Y773100D01*
D36*
X390000Y580000D02*
X393247D01*
X225000Y565000D02*
X375000D01*
X390000Y580000D01*
X375000Y605000D02*
X602734D01*
X351205Y591205D02*
X361205D01*
X375000Y605000D01*
X567540Y567460D02*
X677460D01*
X560000Y575000D02*
X567540Y567460D01*
X398247Y575000D02*
X560000D01*
X305040Y557540D02*
X537460D01*
X550000Y545000D02*
X592500D01*
X537460Y557540D02*
X550000Y545000D01*
X592500D02*
X647951D01*
X522430Y544540D02*
X534510Y532460D01*
X407500Y545000D02*
X407960Y544540D01*
X522430D01*
X407500Y499998D02*
X432498Y475000D01*
X682502D02*
X707500Y499998D01*
X432498Y475000D02*
X682502D01*
X476082Y500000D02*
X592500D01*
X454042Y522040D02*
X476082Y500000D01*
X965000Y555000D02*
Y730000D01*
X945000Y474766D02*
Y661449D01*
X906285Y436051D02*
X945000Y474766D01*
X896008Y710440D02*
X945000Y661449D01*
X955000Y580000D02*
Y708500D01*
X890400Y773100D02*
X955000Y708500D01*
X908360Y786640D02*
X965000Y730000D01*
X680000Y545000D02*
X707500D01*
X534510Y532460D02*
X667460D01*
X680000Y545000D01*
X802734Y605000D02*
X817734Y590000D01*
X665000D02*
X680000Y605000D01*
X802734D01*
X318247Y575000D02*
X358627D01*
X602734Y605000D02*
X617734Y590000D01*
X376167Y592540D02*
X597460D01*
X358627Y575000D02*
X376167Y592540D01*
X302734Y605000D02*
X317734Y590000D01*
X167719Y605000D02*
X302734D01*
X152719Y590000D02*
X167719Y605000D01*
X847704Y592296D02*
Y597296D01*
X767357Y677643D02*
X847704Y597296D01*
X767357Y677643D02*
Y689155D01*
X847704Y592296D02*
X850000Y590000D01*
X763400Y693112D02*
X767357Y689155D01*
X763400Y693112D02*
Y696900D01*
X816367Y647967D02*
Y648238D01*
X814200Y650404D02*
X816367Y648238D01*
X814200Y650404D02*
Y696900D01*
X757400Y674115D02*
X768307Y663207D01*
X768279Y663179D02*
X768307Y663207D01*
X757400Y674115D02*
Y677500D01*
X738000Y696900D02*
X757400Y677500D01*
X839600Y650429D02*
Y696900D01*
Y650429D02*
X862540Y627489D01*
Y582540D02*
Y627489D01*
X857460Y577460D02*
X862540Y582540D01*
X835491Y577460D02*
X857460D01*
X810000Y580000D02*
X832951D01*
X835491Y577460D01*
X878540Y786640D02*
X908360D01*
X865000Y773100D02*
X878540Y786640D01*
X865000Y696900D02*
Y700000D01*
X875440Y710440D02*
X896008D01*
X865000Y700000D02*
X875440Y710440D01*
X826051Y436051D02*
X906285D01*
X810000Y420000D02*
X826051Y436051D01*
X930000Y477500D02*
Y620000D01*
X907500Y455000D02*
X930000Y477500D01*
X890400Y659600D02*
X930000Y620000D01*
X890400Y659600D02*
Y696900D01*
X817734Y590000D02*
X850000D01*
X690000Y580000D02*
X747951D01*
X760491Y567460D02*
X877460D01*
X747951Y580000D02*
X760491Y567460D01*
X155343Y575000D02*
X172882Y592540D01*
X118247Y575000D02*
X155343D01*
X113247Y580000D02*
X118247Y575000D01*
X110000Y580000D02*
X113247D01*
X317734Y590000D02*
X350000D01*
X351205Y591205D01*
X310000Y580000D02*
X313247D01*
X318247Y575000D01*
X297460Y592540D02*
X310000Y580000D01*
X393247D02*
X398247Y575000D01*
X210000Y580000D02*
X225000Y565000D01*
X667266Y575000D02*
X684806Y592540D01*
X797460D01*
X650000Y590000D02*
X665000D01*
X610000Y580000D02*
X613247D01*
X618247Y575000D01*
X667266D01*
X707500Y545000D02*
X747951D01*
X760491Y532460D01*
X894960D01*
X907500Y545000D01*
X795957Y477960D02*
X885462D01*
X773919Y499998D02*
X795957Y477960D01*
X707500Y499998D02*
X773919D01*
X885462Y477960D02*
X907500Y499998D01*
X747951Y455000D02*
X760491Y442460D01*
X894960D01*
X707500Y455000D02*
X747951D01*
X894960Y442460D02*
X907500Y455000D01*
X797460Y432540D02*
X810000Y420000D01*
X654806Y432540D02*
X797460D01*
X642266Y420000D02*
X654806Y432540D01*
X610000Y420000D02*
X642266D01*
X770460Y522040D02*
X792500Y500000D01*
X638458Y522040D02*
X770460D01*
X616418Y500000D02*
X638458Y522040D01*
X592500Y500000D02*
X616418D01*
X660491Y557540D02*
X779960D01*
X792500Y545000D01*
X647951D02*
X660491Y557540D01*
X420040Y442460D02*
X694960D01*
X589253Y455000D02*
X592500D01*
X586713Y452460D02*
X589253Y455000D01*
X444761Y452460D02*
X586713D01*
X429681Y467540D02*
X444761Y452460D01*
X360491Y467540D02*
X429681D01*
X347951Y455000D02*
X360491Y467540D01*
X292500Y455000D02*
X347951D01*
X407500D02*
X420040Y442460D01*
X694960D02*
X707500Y455000D01*
X310000Y420000D02*
X322540Y432540D01*
X489509D01*
X502049Y420000D01*
X610000D01*
X660491Y467540D02*
X779960D01*
X592500Y455000D02*
X647951D01*
X660491Y467540D01*
X779960D02*
X792500Y455000D01*
X292500Y500000D02*
X314540Y522040D01*
X454042D01*
X292500Y545000D02*
X305040Y557540D01*
X877460Y567460D02*
X890000Y580000D01*
X797460Y592540D02*
X810000Y580000D01*
X597460Y592540D02*
X610000Y580000D01*
X247951Y545000D02*
X260491Y532460D01*
X207500Y545000D02*
X247951D01*
X260491Y532460D02*
X394960D01*
X407500Y545000D01*
X677460Y567460D02*
X690000Y580000D01*
X385462Y477960D02*
X407500Y499998D01*
X295957Y477960D02*
X385462D01*
X273919Y499998D02*
X295957Y477960D01*
X207500Y499998D02*
X273919D01*
X207500Y455000D02*
X247951D01*
X260491Y442460D01*
X394960D01*
X407500Y455000D01*
X160491Y467540D02*
X279960D01*
X154806Y432540D02*
X297460D01*
X279960Y467540D02*
X292500Y455000D01*
X142266Y420000D02*
X154806Y432540D01*
X147951Y455000D02*
X160491Y467540D01*
X297460Y432540D02*
X310000Y420000D01*
X110000D02*
X142266D01*
X92500Y455000D02*
X147951D01*
X270460Y522040D02*
X292500Y500000D01*
X138458Y522040D02*
X270460D01*
X116418Y500000D02*
X138458Y522040D01*
X92500Y500000D02*
X116418D01*
X160491Y557540D02*
X279960D01*
X292500Y545000D01*
X147951D02*
X160491Y557540D01*
X92500Y545000D02*
X147951D01*
X172882Y592540D02*
X297460D01*
X150000Y590000D02*
X152719D01*
X190000Y580000D02*
X210000D01*
X617734Y590000D02*
X650000D01*
X90000Y295000D02*
X92000Y297000D01*
X100000D01*
X90000Y255000D02*
Y272500D01*
X90500Y273000D01*
X300000Y190000D02*
Y250000D01*
X366667Y261667D02*
Y297000D01*
X365000Y260000D02*
X366667Y261667D01*
X355000Y255000D02*
X357167Y257167D01*
Y273000D01*
X109500Y260500D02*
X115000Y255000D01*
Y190000D02*
Y255000D01*
X109500Y260500D02*
Y273000D01*
X287278Y262722D02*
X300000Y250000D01*
X287278Y262722D02*
Y273000D01*
X268278Y261722D02*
Y273000D01*
Y261722D02*
X275000Y255000D01*
X262000Y297000D02*
X277778D01*
X255000Y290000D02*
X262000Y297000D01*
X176889Y253111D02*
X179389Y255611D01*
Y273000D01*
X188889Y263889D02*
Y297000D01*
X186889Y261889D02*
X188889Y263889D01*
D37*
X94000Y894000D02*
Y898000D01*
X324500Y903071D02*
Y904499D01*
X322000Y902000D02*
X323429D01*
X50000Y735000D02*
X155000D01*
X322000Y902000D01*
X323429D02*
X324500Y903071D01*
X20000Y820000D02*
X94000Y894000D01*
X20000Y130000D02*
Y820000D01*
X125000Y25000D02*
X325000D01*
X20000Y130000D02*
X125000Y25000D01*
X35000Y140000D02*
Y705000D01*
Y140000D02*
X90000Y85000D01*
X150000D01*
X45000Y715000D02*
X330500D01*
X35000Y705000D02*
X45000Y715000D01*
X325000Y25000D02*
X357000Y57000D01*
D38*
X820611Y270500D02*
X835000Y256111D01*
X820611Y270500D02*
Y273000D01*
X835000Y185000D02*
Y256111D01*
X642833Y270500D02*
Y273000D01*
Y270500D02*
X655000Y258333D01*
Y190000D02*
Y258333D01*
X465056Y204944D02*
Y273000D01*
Y204944D02*
X480000Y190000D01*
D39*
X50000Y950000D02*
D03*
Y50000D02*
D03*
X960000Y950000D02*
D03*
Y50000D02*
D03*
D40*
X788800Y696900D02*
D03*
X890400D02*
D03*
X712600D02*
D03*
X738000D02*
D03*
X763400D02*
D03*
X814200D02*
D03*
X839600D02*
D03*
X865000D02*
D03*
X714186Y773371D02*
D03*
X738000Y773100D02*
D03*
X763400D02*
D03*
X788800D02*
D03*
X814200D02*
D03*
X839600D02*
D03*
X865000D02*
D03*
D41*
X890400D02*
D03*
D42*
X510000Y462000D02*
D03*
Y535000D02*
D03*
D43*
X490000Y462000D02*
D03*
Y535000D02*
D03*
D44*
X110000Y580000D02*
D03*
X190000D02*
D03*
Y420000D02*
D03*
X110000D02*
D03*
X92500Y545000D02*
D03*
Y455000D02*
D03*
X207500D02*
D03*
Y545000D02*
D03*
Y499998D02*
D03*
X92500Y500000D02*
D03*
X150000Y410000D02*
D03*
Y590000D02*
D03*
X310000Y580000D02*
D03*
X390000D02*
D03*
Y420000D02*
D03*
X310000D02*
D03*
X292500Y545000D02*
D03*
Y455000D02*
D03*
X407500D02*
D03*
Y545000D02*
D03*
Y499998D02*
D03*
X292500Y500000D02*
D03*
X350000Y410000D02*
D03*
Y590000D02*
D03*
X745000Y95000D02*
D03*
X821000D02*
D03*
X850000Y590000D02*
D03*
Y410000D02*
D03*
X792500Y500000D02*
D03*
X907500Y499998D02*
D03*
Y545000D02*
D03*
Y455000D02*
D03*
X792500D02*
D03*
Y545000D02*
D03*
X810000Y420000D02*
D03*
X890000D02*
D03*
Y580000D02*
D03*
X810000D02*
D03*
X650000Y590000D02*
D03*
Y410000D02*
D03*
X592500Y500000D02*
D03*
X707500Y499998D02*
D03*
Y545000D02*
D03*
Y455000D02*
D03*
X592500D02*
D03*
Y545000D02*
D03*
X610000Y420000D02*
D03*
X690000D02*
D03*
Y580000D02*
D03*
X610000D02*
D03*
X362500Y905000D02*
D03*
D45*
X150000Y500000D02*
D03*
X350000D02*
D03*
X850000D02*
D03*
X650000D02*
D03*
D46*
X459000Y91000D02*
D03*
X541000Y90000D02*
D03*
D47*
X500000Y50000D02*
D03*
D48*
X671047Y939416D02*
D03*
X716047D02*
D03*
X671047Y874416D02*
D03*
X716047D02*
D03*
X873000Y941000D02*
D03*
X918000D02*
D03*
X873000Y876000D02*
D03*
X918000D02*
D03*
X772026Y941000D02*
D03*
X817026D02*
D03*
X772026Y876000D02*
D03*
X817026D02*
D03*
D49*
X327500Y905000D02*
D03*
D50*
X487531Y737515D02*
D03*
X712500Y738425D02*
D03*
X499816Y737225D02*
D03*
X564000Y777000D02*
D03*
X568539Y770478D02*
D03*
X965000Y555000D02*
D03*
X955000Y580000D02*
D03*
X816367Y647967D02*
D03*
X94000Y898000D02*
D03*
X551270Y816270D02*
D03*
X620000Y760000D02*
D03*
X400000Y910000D02*
D03*
X545000Y855000D02*
D03*
X650000Y835000D02*
D03*
Y805000D02*
D03*
X580000Y810000D02*
D03*
X459544Y731236D02*
D03*
X525000Y770000D02*
D03*
X50000Y735000D02*
D03*
X515000Y350000D02*
D03*
X585000Y185000D02*
D03*
X885000Y825000D02*
D03*
X786250Y827645D02*
D03*
X683185D02*
D03*
X310000Y695000D02*
D03*
X330500Y715000D02*
D03*
X691281Y815000D02*
D03*
X750000Y250000D02*
D03*
X925000Y255000D02*
D03*
X835000Y185000D02*
D03*
X655000Y190000D02*
D03*
X480000D02*
D03*
X390000Y250000D02*
D03*
X210000Y245000D02*
D03*
X905000Y850000D02*
D03*
X649858D02*
D03*
X585000Y770000D02*
D03*
X768279Y663179D02*
D03*
X540000Y775000D02*
D03*
X548668Y677789D02*
D03*
X529500Y815000D02*
D03*
X620000Y780000D02*
D03*
X460000Y790000D02*
D03*
X472498Y812502D02*
D03*
X790000Y290000D02*
D03*
X357000Y57000D02*
D03*
X150000Y85000D02*
D03*
X460003Y757500D02*
D03*
X90000Y295000D02*
D03*
X900000Y255000D02*
D03*
X890000D02*
D03*
X809111Y249111D02*
D03*
X720000Y255000D02*
D03*
X710000D02*
D03*
X610000Y285000D02*
D03*
X435000Y290000D02*
D03*
X544228Y259228D02*
D03*
X630000Y255000D02*
D03*
X532444Y257444D02*
D03*
X455000Y255000D02*
D03*
X300000Y190000D02*
D03*
X365000Y260000D02*
D03*
X355000Y255000D02*
D03*
X115000Y190000D02*
D03*
X275000Y255000D02*
D03*
X255000Y290000D02*
D03*
X176889Y253111D02*
D03*
X186889Y261889D02*
D03*
X90000Y255000D02*
D03*
M02*
