G04*
G04 #@! TF.GenerationSoftware,Altium Limited,Altium Designer,23.1.1 (15)*
G04*
G04 Layer_Physical_Order=1*
G04 Layer_Color=255*
%FSLAX44Y44*%
%MOMM*%
G71*
G04*
G04 #@! TF.SameCoordinates,57464860-8124-4CEE-8048-BAEBFFAEA9BF*
G04*
G04*
G04 #@! TF.FilePolarity,Positive*
G04*
G01*
G75*
%ADD14O,0.3000X1.4000*%
%ADD15O,1.4000X0.3000*%
%ADD16R,0.6000X1.1000*%
%ADD33C,0.3000*%
%ADD34C,0.2600*%
%ADD35C,1.0000*%
%ADD36C,0.5000*%
%ADD37C,0.4000*%
%ADD38C,1.0000*%
G04:AMPARAMS|DCode=39|XSize=1mm|YSize=1mm|CornerRadius=0mm|HoleSize=0mm|Usage=FLASHONLY|Rotation=0.000|XOffset=0mm|YOffset=0mm|HoleType=Round|Shape=Octagon|*
%AMOCTAGOND39*
4,1,8,0.5000,-0.2500,0.5000,0.2500,0.2500,0.5000,-0.2500,0.5000,-0.5000,0.2500,-0.5000,-0.2500,-0.2500,-0.5000,0.2500,-0.5000,0.5000,-0.2500,0.0*
%
%ADD39OCTAGOND39*%

%ADD40C,1.6000*%
G04:AMPARAMS|DCode=41|XSize=1.524mm|YSize=1.524mm|CornerRadius=0mm|HoleSize=0mm|Usage=FLASHONLY|Rotation=0.000|XOffset=0mm|YOffset=0mm|HoleType=Round|Shape=Octagon|*
%AMOCTAGOND41*
4,1,8,0.7620,-0.3810,0.7620,0.3810,0.3810,0.7620,-0.3810,0.7620,-0.7620,0.3810,-0.7620,-0.3810,-0.3810,-0.7620,0.3810,-0.7620,0.7620,-0.3810,0.0*
%
%ADD41OCTAGOND41*%

%ADD42C,1.5240*%
%ADD43O,1.7000X4.5000*%
%ADD44O,4.0000X1.7000*%
%ADD45R,1.8000X1.8000*%
%ADD46C,1.8000*%
%ADD47C,2.0000*%
G04:AMPARAMS|DCode=48|XSize=1.6mm|YSize=1.6mm|CornerRadius=0mm|HoleSize=0mm|Usage=FLASHONLY|Rotation=0.000|XOffset=0mm|YOffset=0mm|HoleType=Round|Shape=Octagon|*
%AMOCTAGOND48*
4,1,8,0.8000,-0.4000,0.8000,0.4000,0.4000,0.8000,-0.4000,0.8000,-0.8000,0.4000,-0.8000,-0.4000,-0.4000,-0.8000,0.4000,-0.8000,0.8000,-0.4000,0.0*
%
%ADD48OCTAGOND48*%

%ADD49C,0.2500*%
%ADD50C,0.3000*%
G36*
X1000000D02*
X0D01*
Y1000000D01*
X1000000D01*
Y0D01*
D02*
G37*
%LPC*%
G36*
X874651Y953540D02*
X874270D01*
Y942270D01*
X885540D01*
Y942651D01*
X884685Y945840D01*
X883035Y948700D01*
X880700Y951034D01*
X877840Y952685D01*
X874651Y953540D01*
D02*
G37*
G36*
X773677D02*
X773296D01*
Y942270D01*
X784566D01*
Y942651D01*
X783712Y945840D01*
X782061Y948700D01*
X779726Y951034D01*
X776867Y952685D01*
X773677Y953540D01*
D02*
G37*
G36*
X770756D02*
X770375D01*
X767186Y952685D01*
X764327Y951034D01*
X761992Y948700D01*
X760341Y945840D01*
X759486Y942651D01*
Y942270D01*
X770756D01*
Y953540D01*
D02*
G37*
G36*
X871730D02*
X871349D01*
X868160Y952685D01*
X865300Y951034D01*
X862965Y948700D01*
X861315Y945840D01*
X860460Y942651D01*
Y942270D01*
X871730D01*
Y953540D01*
D02*
G37*
G36*
X672698Y951956D02*
X672317D01*
Y940686D01*
X683587D01*
Y941067D01*
X682732Y944256D01*
X681081Y947116D01*
X678746Y949451D01*
X675887Y951102D01*
X672698Y951956D01*
D02*
G37*
G36*
X669777D02*
X669396D01*
X666207Y951102D01*
X663347Y949451D01*
X661012Y947116D01*
X659361Y944256D01*
X658507Y941067D01*
Y940686D01*
X669777D01*
Y951956D01*
D02*
G37*
G36*
X961728Y967540D02*
X958272D01*
X954884Y966866D01*
X951692Y965544D01*
X948819Y963624D01*
X946376Y961181D01*
X944456Y958308D01*
X943134Y955116D01*
X942460Y951728D01*
Y948272D01*
X943134Y944884D01*
X944456Y941692D01*
X946376Y938819D01*
X948819Y936376D01*
X951692Y934456D01*
X954884Y933134D01*
X958272Y932460D01*
X961728D01*
X965116Y933134D01*
X968308Y934456D01*
X971181Y936376D01*
X973624Y938819D01*
X975544Y941692D01*
X976866Y944884D01*
X977540Y948272D01*
Y951728D01*
X976866Y955116D01*
X975544Y958308D01*
X973624Y961181D01*
X971181Y963624D01*
X968308Y965544D01*
X965116Y966866D01*
X961728Y967540D01*
D02*
G37*
G36*
X919651Y953540D02*
X916349D01*
X913160Y952685D01*
X910300Y951034D01*
X907965Y948700D01*
X906315Y945840D01*
X905460Y942651D01*
Y939349D01*
X906315Y936160D01*
X907965Y933300D01*
X910300Y930965D01*
X913160Y929315D01*
X916349Y928460D01*
X919651D01*
X922840Y929315D01*
X925700Y930965D01*
X928035Y933300D01*
X929685Y936160D01*
X930540Y939349D01*
Y942651D01*
X929685Y945840D01*
X928035Y948700D01*
X925700Y951034D01*
X922840Y952685D01*
X919651Y953540D01*
D02*
G37*
G36*
X885540Y939730D02*
X874270D01*
Y928460D01*
X874651D01*
X877840Y929315D01*
X880700Y930965D01*
X883035Y933300D01*
X884685Y936160D01*
X885540Y939349D01*
Y939730D01*
D02*
G37*
G36*
X871730D02*
X860460D01*
Y939349D01*
X861315Y936160D01*
X862965Y933300D01*
X865300Y930965D01*
X868160Y929315D01*
X871349Y928460D01*
X871730D01*
Y939730D01*
D02*
G37*
G36*
X818677Y953540D02*
X815376D01*
X812186Y952685D01*
X809327Y951034D01*
X806992Y948700D01*
X805341Y945840D01*
X804486Y942651D01*
Y939349D01*
X805341Y936160D01*
X806992Y933300D01*
X809327Y930965D01*
X812186Y929315D01*
X815376Y928460D01*
X818677D01*
X821867Y929315D01*
X824726Y930965D01*
X827061Y933300D01*
X828712Y936160D01*
X829566Y939349D01*
Y942651D01*
X828712Y945840D01*
X827061Y948700D01*
X824726Y951034D01*
X821867Y952685D01*
X818677Y953540D01*
D02*
G37*
G36*
X784566Y939730D02*
X773296D01*
Y928460D01*
X773677D01*
X776867Y929315D01*
X779726Y930965D01*
X782061Y933300D01*
X783712Y936160D01*
X784566Y939349D01*
Y939730D01*
D02*
G37*
G36*
X770756D02*
X759486D01*
Y939349D01*
X760341Y936160D01*
X761992Y933300D01*
X764327Y930965D01*
X767186Y929315D01*
X770375Y928460D01*
X770756D01*
Y939730D01*
D02*
G37*
G36*
X717698Y951956D02*
X714396D01*
X711207Y951102D01*
X708347Y949451D01*
X706012Y947116D01*
X704361Y944256D01*
X703507Y941067D01*
Y937765D01*
X704361Y934576D01*
X706012Y931716D01*
X708347Y929382D01*
X711207Y927731D01*
X714396Y926876D01*
X717698D01*
X720887Y927731D01*
X723746Y929382D01*
X726081Y931716D01*
X727732Y934576D01*
X728587Y937765D01*
Y941067D01*
X727732Y944256D01*
X726081Y947116D01*
X723746Y949451D01*
X720887Y951102D01*
X717698Y951956D01*
D02*
G37*
G36*
X683587Y938146D02*
X672317D01*
Y926876D01*
X672698D01*
X675887Y927731D01*
X678746Y929382D01*
X681081Y931716D01*
X682732Y934576D01*
X683587Y937765D01*
Y938146D01*
D02*
G37*
G36*
X669777D02*
X658507D01*
Y937765D01*
X659361Y934576D01*
X661012Y931716D01*
X663347Y929382D01*
X666207Y927731D01*
X669396Y926876D01*
X669777D01*
Y938146D01*
D02*
G37*
G36*
X346388Y915540D02*
X346270D01*
Y906270D01*
X355540D01*
Y906388D01*
X354822Y909068D01*
X353434Y911472D01*
X351472Y913434D01*
X349068Y914822D01*
X346388Y915540D01*
D02*
G37*
G36*
X343730D02*
X343612D01*
X340932Y914822D01*
X338528Y913434D01*
X336566Y911472D01*
X335178Y909068D01*
X334460Y906388D01*
Y906270D01*
X343730D01*
Y915540D01*
D02*
G37*
G36*
X555178Y920290D02*
X552929D01*
X550757Y919708D01*
X548810Y918584D01*
X547220Y916994D01*
X546095Y915046D01*
X545513Y912874D01*
Y910626D01*
X546095Y908454D01*
X547220Y906506D01*
X548810Y904916D01*
X550757Y903792D01*
X552929Y903210D01*
X555178D01*
X557350Y903792D01*
X559297Y904916D01*
X560887Y906506D01*
X562011Y908454D01*
X562593Y910626D01*
Y912874D01*
X562011Y915046D01*
X560887Y916994D01*
X559297Y918584D01*
X557350Y919708D01*
X555178Y920290D01*
D02*
G37*
G36*
X480178D02*
X477929D01*
X475757Y919708D01*
X473810Y918584D01*
X472220Y916994D01*
X471095Y915046D01*
X470513Y912874D01*
Y910626D01*
X471095Y908454D01*
X472220Y906506D01*
X473810Y904916D01*
X475757Y903792D01*
X477929Y903210D01*
X480178D01*
X482350Y903792D01*
X484297Y904916D01*
X485887Y906506D01*
X487011Y908454D01*
X487593Y910626D01*
Y912874D01*
X487011Y915046D01*
X485887Y916994D01*
X484297Y918584D01*
X482350Y919708D01*
X480178Y920290D01*
D02*
G37*
G36*
X355540Y903730D02*
X346270D01*
Y894460D01*
X346388D01*
X349068Y895178D01*
X351472Y896566D01*
X353434Y898528D01*
X354822Y900932D01*
X355540Y903612D01*
Y903730D01*
D02*
G37*
G36*
X343730D02*
X334460D01*
Y903612D01*
X335178Y900932D01*
X336566Y898528D01*
X338528Y896566D01*
X340932Y895178D01*
X343612Y894460D01*
X343730D01*
Y903730D01*
D02*
G37*
G36*
X874651Y888540D02*
X874270D01*
Y877270D01*
X885540D01*
Y877651D01*
X884685Y880840D01*
X883035Y883700D01*
X880700Y886034D01*
X877840Y887685D01*
X874651Y888540D01*
D02*
G37*
G36*
X773677D02*
X773296D01*
Y877270D01*
X784566D01*
Y877651D01*
X783712Y880840D01*
X782061Y883700D01*
X779726Y886034D01*
X776867Y887685D01*
X773677Y888540D01*
D02*
G37*
G36*
X871730D02*
X871349D01*
X868160Y887685D01*
X865300Y886034D01*
X862965Y883700D01*
X861315Y880840D01*
X860460Y877651D01*
Y877270D01*
X871730D01*
Y888540D01*
D02*
G37*
G36*
X770756D02*
X770375D01*
X767186Y887685D01*
X764327Y886034D01*
X761992Y883700D01*
X760341Y880840D01*
X759486Y877651D01*
Y877270D01*
X770756D01*
Y888540D01*
D02*
G37*
G36*
X672698Y886956D02*
X672317D01*
Y875686D01*
X683587D01*
Y876067D01*
X682732Y879256D01*
X681081Y882116D01*
X678746Y884451D01*
X675887Y886102D01*
X672698Y886956D01*
D02*
G37*
G36*
X669777D02*
X669396D01*
X666207Y886102D01*
X663347Y884451D01*
X661012Y882116D01*
X659361Y879256D01*
X658507Y876067D01*
Y875686D01*
X669777D01*
Y886956D01*
D02*
G37*
G36*
X919651Y888540D02*
X916349D01*
X913160Y887685D01*
X910300Y886034D01*
X907965Y883700D01*
X906315Y880840D01*
X905460Y877651D01*
Y874349D01*
X906315Y871160D01*
X907965Y868300D01*
X910300Y865965D01*
X913160Y864315D01*
X916349Y863460D01*
X919651D01*
X922840Y864315D01*
X925700Y865965D01*
X928035Y868300D01*
X929685Y871160D01*
X930540Y874349D01*
Y877651D01*
X929685Y880840D01*
X928035Y883700D01*
X925700Y886034D01*
X922840Y887685D01*
X919651Y888540D01*
D02*
G37*
G36*
X885540Y874730D02*
X874270D01*
Y863460D01*
X874651D01*
X877840Y864315D01*
X880700Y865965D01*
X883035Y868300D01*
X884685Y871160D01*
X885540Y874349D01*
Y874730D01*
D02*
G37*
G36*
X871730D02*
X860460D01*
Y874349D01*
X861315Y871160D01*
X862965Y868300D01*
X865300Y865965D01*
X868160Y864315D01*
X871349Y863460D01*
X871730D01*
Y874730D01*
D02*
G37*
G36*
X818677Y888540D02*
X815376D01*
X812186Y887685D01*
X809327Y886034D01*
X806992Y883700D01*
X805341Y880840D01*
X804486Y877651D01*
Y874349D01*
X805341Y871160D01*
X806992Y868300D01*
X809327Y865965D01*
X812186Y864315D01*
X815376Y863460D01*
X818677D01*
X821867Y864315D01*
X824726Y865965D01*
X827061Y868300D01*
X828712Y871160D01*
X829566Y874349D01*
Y877651D01*
X828712Y880840D01*
X827061Y883700D01*
X824726Y886034D01*
X821867Y887685D01*
X818677Y888540D01*
D02*
G37*
G36*
X784566Y874730D02*
X773296D01*
Y863460D01*
X773677D01*
X776867Y864315D01*
X779726Y865965D01*
X782061Y868300D01*
X783712Y871160D01*
X784566Y874349D01*
Y874730D01*
D02*
G37*
G36*
X770756D02*
X759486D01*
Y874349D01*
X760341Y871160D01*
X761992Y868300D01*
X764327Y865965D01*
X767186Y864315D01*
X770375Y863460D01*
X770756D01*
Y874730D01*
D02*
G37*
G36*
X717698Y886956D02*
X714396D01*
X711207Y886102D01*
X708347Y884451D01*
X706012Y882116D01*
X704361Y879256D01*
X703507Y876067D01*
Y872765D01*
X704361Y869576D01*
X706012Y866716D01*
X708347Y864382D01*
X711207Y862731D01*
X714396Y861876D01*
X717698D01*
X720887Y862731D01*
X723746Y864382D01*
X726081Y866716D01*
X727732Y869576D01*
X728587Y872765D01*
Y876067D01*
X727732Y879256D01*
X726081Y882116D01*
X723746Y884451D01*
X720887Y886102D01*
X717698Y886956D01*
D02*
G37*
G36*
X683587Y873146D02*
X672317D01*
Y861876D01*
X672698D01*
X675887Y862731D01*
X678746Y864382D01*
X681081Y866716D01*
X682732Y869576D01*
X683587Y872765D01*
Y873146D01*
D02*
G37*
G36*
X669777D02*
X658507D01*
Y872765D01*
X659361Y869576D01*
X661012Y866716D01*
X663347Y864382D01*
X666207Y862731D01*
X669396Y861876D01*
X669777D01*
Y873146D01*
D02*
G37*
G36*
X905000Y854119D02*
X649858D01*
X649460Y854040D01*
X649054D01*
X648680Y853885D01*
X648282Y853806D01*
X647944Y853580D01*
X647570Y853425D01*
X647283Y853138D01*
X646945Y852913D01*
X646720Y852575D01*
X646433Y852289D01*
X646278Y851914D01*
X646052Y851576D01*
X645973Y851179D01*
X645818Y850804D01*
Y850398D01*
X645739Y850000D01*
X645818Y849602D01*
Y849196D01*
X645973Y848821D01*
X646052Y848424D01*
X646278Y848086D01*
X646433Y847711D01*
X646720Y847425D01*
X646945Y847087D01*
X647283Y846862D01*
X647570Y846575D01*
X647944Y846420D01*
X648282Y846194D01*
X648680Y846115D01*
X649054Y845960D01*
X649460D01*
X649858Y845881D01*
X905000D01*
X905398Y845960D01*
X905804D01*
X906179Y846115D01*
X906576Y846194D01*
X906914Y846420D01*
X907289Y846575D01*
X907575Y846862D01*
X907913Y847087D01*
X908138Y847425D01*
X908425Y847711D01*
X908580Y848086D01*
X908806Y848424D01*
X908885Y848821D01*
X909040Y849196D01*
Y849602D01*
X909119Y850000D01*
X909040Y850398D01*
Y850804D01*
X908885Y851179D01*
X908806Y851576D01*
X908580Y851914D01*
X908425Y852289D01*
X908138Y852575D01*
X907913Y852913D01*
X907575Y853138D01*
X907289Y853425D01*
X906914Y853580D01*
X906576Y853806D01*
X906179Y853885D01*
X905804Y854040D01*
X905398D01*
X905000Y854119D01*
D02*
G37*
G36*
X552540Y819846D02*
Y817540D01*
X554846D01*
X554483Y818417D01*
X553417Y819483D01*
X552540Y819846D01*
D02*
G37*
G36*
X400000Y914119D02*
X399602Y914040D01*
X399196D01*
X398821Y913885D01*
X398424Y913806D01*
X398086Y913580D01*
X397711Y913425D01*
X397425Y913138D01*
X397087Y912913D01*
X396862Y912575D01*
X396575Y912289D01*
X396420Y911914D01*
X396194Y911576D01*
X396115Y911179D01*
X395960Y910804D01*
Y910398D01*
X395881Y910000D01*
X395960Y909602D01*
Y909196D01*
X396115Y908822D01*
X396194Y908424D01*
X396420Y908086D01*
X396575Y907711D01*
X396862Y907425D01*
X397087Y907087D01*
X432087Y872087D01*
X433424Y871194D01*
X435000Y870881D01*
X538294D01*
X576140Y833034D01*
X575614Y831764D01*
X542645D01*
X541069Y831451D01*
X539732Y830558D01*
X527994Y818820D01*
X527924Y818806D01*
X527586Y818580D01*
X527211Y818425D01*
X526925Y818138D01*
X526587Y817913D01*
X524587Y815913D01*
X524587Y815913D01*
X518587Y809913D01*
X518389Y809616D01*
X517119Y810001D01*
Y821294D01*
X547913Y852087D01*
X547913Y852087D01*
X548138Y852425D01*
X548425Y852711D01*
X548580Y853086D01*
X548806Y853424D01*
X548885Y853821D01*
X549040Y854196D01*
Y854602D01*
X549119Y855000D01*
X549040Y855398D01*
Y855804D01*
X548885Y856179D01*
X548806Y856576D01*
X548580Y856914D01*
X548425Y857289D01*
X548138Y857575D01*
X547913Y857913D01*
X547575Y858138D01*
X547289Y858425D01*
X546914Y858580D01*
X546576Y858806D01*
X546179Y858885D01*
X545804Y859040D01*
X545398D01*
X545000Y859119D01*
X544602Y859040D01*
X544196D01*
X543822Y858885D01*
X543424Y858806D01*
X543086Y858580D01*
X542711Y858425D01*
X542425Y858138D01*
X542087Y857913D01*
X510087Y825913D01*
X509194Y824576D01*
X508881Y823000D01*
Y781619D01*
X507500D01*
X505924Y781306D01*
X504587Y780413D01*
X503694Y779076D01*
X503381Y777500D01*
X503694Y775924D01*
X504312Y775000D01*
X503694Y774076D01*
X503381Y772500D01*
X502658Y771619D01*
X494206D01*
X484119Y781706D01*
Y805000D01*
X483806Y806576D01*
X482913Y807913D01*
X475411Y815414D01*
X475074Y815640D01*
X474787Y815927D01*
X474412Y816082D01*
X474075Y816307D01*
X473677Y816386D01*
X473302Y816542D01*
X472896D01*
X472498Y816621D01*
X472100Y816542D01*
X471695D01*
X471320Y816386D01*
X470922Y816307D01*
X470585Y816082D01*
X470210Y815927D01*
X469923Y815640D01*
X469586Y815414D01*
X469360Y815077D01*
X469073Y814790D01*
X468918Y814415D01*
X468693Y814078D01*
X468614Y813680D01*
X468458Y813305D01*
Y812899D01*
X468379Y812502D01*
X468458Y812104D01*
Y811698D01*
X468614Y811323D01*
X468693Y810925D01*
X468918Y810588D01*
X469073Y810213D01*
X469360Y809926D01*
X469586Y809589D01*
X475881Y803294D01*
Y781741D01*
X474611Y781215D01*
X462913Y792913D01*
X462575Y793138D01*
X462289Y793425D01*
X461914Y793580D01*
X461576Y793806D01*
X461179Y793885D01*
X460804Y794040D01*
X460398D01*
X460000Y794119D01*
X459602Y794040D01*
X459196D01*
X458822Y793885D01*
X458424Y793806D01*
X458086Y793580D01*
X457712Y793425D01*
X457425Y793138D01*
X457087Y792913D01*
X456862Y792575D01*
X456575Y792289D01*
X456420Y791914D01*
X456194Y791576D01*
X456115Y791179D01*
X455960Y790804D01*
Y790398D01*
X455881Y790000D01*
X455960Y789602D01*
Y789196D01*
X456115Y788821D01*
X456194Y788424D01*
X456420Y788086D01*
X456575Y787711D01*
X456862Y787425D01*
X457087Y787087D01*
X481382Y762793D01*
X480896Y761619D01*
X460003D01*
X459605Y761540D01*
X459200D01*
X458825Y761385D01*
X458427Y761306D01*
X458090Y761080D01*
X457715Y760925D01*
X457428Y760638D01*
X457091Y760413D01*
X456865Y760075D01*
X456578Y759788D01*
X456423Y759414D01*
X456198Y759076D01*
X456119Y758678D01*
X455963Y758304D01*
Y757898D01*
X455884Y757500D01*
X455963Y757102D01*
Y756696D01*
X456119Y756321D01*
X456198Y755924D01*
X456423Y755586D01*
X456578Y755211D01*
X456865Y754925D01*
X457091Y754587D01*
X457428Y754362D01*
X457715Y754075D01*
X458090Y753920D01*
X458427Y753694D01*
X458825Y753615D01*
X459200Y753460D01*
X459605D01*
X460003Y753381D01*
X474204D01*
X474690Y752207D01*
X456631Y734149D01*
X456406Y733812D01*
X456119Y733525D01*
X455964Y733150D01*
X455738Y732813D01*
X455659Y732415D01*
X455504Y732040D01*
Y731634D01*
X455425Y731236D01*
X455504Y730838D01*
Y730433D01*
X455659Y730058D01*
X455738Y729660D01*
X455964Y729323D01*
X456119Y728948D01*
X456406Y728661D01*
X456631Y728324D01*
X456781Y728223D01*
X457096Y727213D01*
X456927Y726573D01*
X439473Y709119D01*
X337092D01*
X336466Y710389D01*
X337086Y711198D01*
X337846Y713032D01*
X338105Y715000D01*
X337846Y716968D01*
X337086Y718802D01*
X335878Y720378D01*
X334302Y721586D01*
X332468Y722346D01*
X330500Y722605D01*
X45000D01*
X43032Y722346D01*
X41198Y721586D01*
X39622Y720378D01*
X29622Y710378D01*
X28875Y709404D01*
X27605Y709835D01*
Y861850D01*
X60378Y894622D01*
X61586Y896198D01*
X62346Y898032D01*
X62605Y900000D01*
X62346Y901968D01*
X61586Y903802D01*
X60378Y905378D01*
X58802Y906586D01*
X56968Y907346D01*
X55000Y907605D01*
X53032Y907346D01*
X51198Y906586D01*
X49622Y905378D01*
X14622Y870378D01*
X13414Y868803D01*
X12654Y866968D01*
X12395Y865000D01*
Y130000D01*
X12654Y128032D01*
X13414Y126198D01*
X14622Y124622D01*
X119622Y19622D01*
X121198Y18414D01*
X121957Y18099D01*
X123032Y17654D01*
X125000Y17395D01*
X325000D01*
X326968Y17654D01*
X328802Y18414D01*
X330378Y19622D01*
X362378Y51622D01*
X363586Y53197D01*
X364346Y55032D01*
X364605Y57000D01*
X364346Y58968D01*
X363586Y60802D01*
X362378Y62378D01*
X360802Y63586D01*
X358968Y64346D01*
X357000Y64605D01*
X355032Y64346D01*
X353198Y63586D01*
X351622Y62378D01*
X321850Y32605D01*
X128150D01*
X27605Y133150D01*
Y135165D01*
X28875Y135596D01*
X29622Y134622D01*
X84622Y79622D01*
X86198Y78414D01*
X88032Y77654D01*
X90000Y77395D01*
X150000D01*
X151968Y77654D01*
X153802Y78414D01*
X155378Y79622D01*
X156586Y81198D01*
X157346Y83032D01*
X157605Y85000D01*
X157346Y86968D01*
X156586Y88802D01*
X155378Y90378D01*
X153802Y91586D01*
X151968Y92346D01*
X150000Y92605D01*
X93150D01*
X42605Y143150D01*
Y701850D01*
X48150Y707395D01*
X314910D01*
X315396Y706222D01*
X307087Y697913D01*
X306862Y697575D01*
X306575Y697289D01*
X306420Y696914D01*
X306194Y696576D01*
X306115Y696179D01*
X305960Y695804D01*
Y695398D01*
X305881Y695000D01*
X305960Y694602D01*
Y694196D01*
X306115Y693821D01*
X306194Y693424D01*
X306420Y693086D01*
X306575Y692711D01*
X306862Y692425D01*
X307087Y692087D01*
X307425Y691862D01*
X307712Y691575D01*
X308086Y691420D01*
X308424Y691194D01*
X308822Y691115D01*
X309196Y690960D01*
X309602D01*
X310000Y690881D01*
X310398Y690960D01*
X310804D01*
X311178Y691115D01*
X311576Y691194D01*
X311914Y691420D01*
X312288Y691575D01*
X312575Y691862D01*
X312913Y692087D01*
X321706Y700881D01*
X441180D01*
X442756Y701194D01*
X444092Y702087D01*
X485386Y743381D01*
X486684D01*
X487171Y742207D01*
X484647Y739684D01*
X483754Y738348D01*
X483441Y736772D01*
X483754Y735195D01*
X484573Y733970D01*
X429519Y678915D01*
X78212D01*
X78212Y678915D01*
X76714Y678617D01*
X75443Y677768D01*
X75443Y677768D01*
X52432Y654757D01*
X51583Y653487D01*
X51285Y651988D01*
X51285Y651988D01*
Y353012D01*
X51285Y353012D01*
X51583Y351513D01*
X52432Y350243D01*
X80243Y322432D01*
X80243Y322431D01*
X81514Y321583D01*
X83012Y321285D01*
X83012Y321285D01*
X198178D01*
X206085Y313378D01*
Y246105D01*
X205960Y245804D01*
Y244196D01*
X206575Y242712D01*
X207712Y241575D01*
X209196Y240960D01*
X210804D01*
X212288Y241575D01*
X213425Y242712D01*
X214040Y244196D01*
Y245804D01*
X213915Y246105D01*
Y315000D01*
X213617Y316498D01*
X212768Y317768D01*
X212768Y317769D01*
X205830Y324708D01*
X206315Y325881D01*
X378294D01*
X385881Y318294D01*
Y250000D01*
X385960Y249602D01*
Y249196D01*
X386115Y248822D01*
X386194Y248424D01*
X386420Y248086D01*
X386575Y247712D01*
X386862Y247425D01*
X387087Y247087D01*
X387425Y246862D01*
X387711Y246575D01*
X388086Y246420D01*
X388424Y246194D01*
X388821Y246115D01*
X389196Y245960D01*
X389602D01*
X390000Y245881D01*
X390398Y245960D01*
X390804D01*
X391179Y246115D01*
X391576Y246194D01*
X391914Y246420D01*
X392289Y246575D01*
X392575Y246862D01*
X392913Y247087D01*
X393138Y247425D01*
X393425Y247712D01*
X393580Y248086D01*
X393806Y248424D01*
X393885Y248822D01*
X394040Y249196D01*
Y249602D01*
X394119Y250000D01*
Y320000D01*
X393806Y321576D01*
X392913Y322913D01*
X386118Y329707D01*
X386604Y330881D01*
X738294D01*
X745881Y323294D01*
Y250000D01*
X745960Y249602D01*
Y249196D01*
X746115Y248822D01*
X746194Y248424D01*
X746420Y248086D01*
X746575Y247712D01*
X746862Y247425D01*
X747087Y247087D01*
X747425Y246862D01*
X747711Y246575D01*
X748086Y246420D01*
X748424Y246194D01*
X748821Y246115D01*
X749196Y245960D01*
X749602D01*
X750000Y245881D01*
X750398Y245960D01*
X750804D01*
X751179Y246115D01*
X751576Y246194D01*
X751914Y246420D01*
X752289Y246575D01*
X752575Y246862D01*
X752913Y247087D01*
X753138Y247425D01*
X753425Y247712D01*
X753580Y248086D01*
X753806Y248424D01*
X753885Y248822D01*
X754040Y249196D01*
Y249602D01*
X754119Y250000D01*
Y325000D01*
X753806Y326576D01*
X752913Y327913D01*
X746118Y334707D01*
X746604Y335881D01*
X903294D01*
X920881Y318294D01*
Y255000D01*
X920960Y254602D01*
Y254196D01*
X921115Y253822D01*
X921194Y253424D01*
X921420Y253086D01*
X921575Y252712D01*
X921862Y252425D01*
X922087Y252087D01*
X922425Y251862D01*
X922711Y251575D01*
X923086Y251420D01*
X923424Y251194D01*
X923821Y251115D01*
X924196Y250960D01*
X924602D01*
X925000Y250881D01*
X925398Y250960D01*
X925804D01*
X926179Y251115D01*
X926576Y251194D01*
X926914Y251420D01*
X927289Y251575D01*
X927575Y251862D01*
X927913Y252087D01*
X928138Y252425D01*
X928425Y252712D01*
X928580Y253086D01*
X928806Y253424D01*
X928885Y253822D01*
X929040Y254196D01*
Y254602D01*
X929119Y255000D01*
Y320000D01*
X928806Y321576D01*
X927913Y322913D01*
X907913Y342913D01*
X906576Y343806D01*
X905000Y344119D01*
X101706D01*
X74119Y371706D01*
Y373396D01*
X75293Y373882D01*
X102087Y347087D01*
X103424Y346194D01*
X105000Y345881D01*
X515000D01*
X515398Y345960D01*
X515804D01*
X516179Y346115D01*
X516576Y346194D01*
X516914Y346420D01*
X517289Y346575D01*
X517575Y346862D01*
X517913Y347087D01*
X518138Y347425D01*
X518425Y347711D01*
X518580Y348086D01*
X518806Y348424D01*
X518885Y348822D01*
X519040Y349196D01*
Y349602D01*
X519119Y350000D01*
X519040Y350398D01*
Y350804D01*
X518885Y351179D01*
X518806Y351576D01*
X518580Y351914D01*
X518425Y352289D01*
X518138Y352575D01*
X517913Y352913D01*
X517575Y353138D01*
X517289Y353425D01*
X516914Y353580D01*
X516576Y353806D01*
X516179Y353885D01*
X515804Y354040D01*
X515398D01*
X515000Y354119D01*
X106706D01*
X79119Y381706D01*
Y633294D01*
X96706Y650881D01*
X487071D01*
X488647Y651194D01*
X489984Y652087D01*
X535413Y697516D01*
X536167Y698646D01*
X537500Y698381D01*
X539076Y698694D01*
X540000Y699312D01*
X540924Y698694D01*
X542500Y698381D01*
X544076Y698694D01*
X545000Y699312D01*
X545924Y698694D01*
X547500Y698381D01*
X549076Y698694D01*
X550000Y699312D01*
X550924Y698694D01*
X552500Y698381D01*
X554076Y698694D01*
X555000Y699312D01*
X555924Y698694D01*
X557500Y698381D01*
X559076Y698694D01*
X560000Y699312D01*
X560924Y698694D01*
X561230Y698633D01*
Y700810D01*
X561306Y700923D01*
X561620Y702500D01*
Y708000D01*
X563380D01*
Y702500D01*
X563694Y700923D01*
X563770Y700810D01*
Y698633D01*
X564076Y698694D01*
X565000Y699312D01*
X565924Y698694D01*
X567500Y698381D01*
X569076Y698694D01*
X570000Y699312D01*
X570924Y698694D01*
X572500Y698381D01*
X572913Y698463D01*
X573538Y697292D01*
X570365Y694119D01*
X555000D01*
X553424Y693806D01*
X552087Y692913D01*
X545756Y686581D01*
X544863Y685245D01*
X544549Y683668D01*
Y677789D01*
X544628Y677391D01*
Y676985D01*
X544784Y676610D01*
X544863Y676212D01*
X545088Y675875D01*
X545243Y675500D01*
X545530Y675213D01*
X545756Y674876D01*
X546093Y674651D01*
X546380Y674364D01*
X546755Y674209D01*
X547092Y673983D01*
X547490Y673904D01*
X547865Y673749D01*
X548270D01*
X548668Y673670D01*
X549066Y673749D01*
X549472D01*
X549847Y673904D01*
X550245Y673983D01*
X550582Y674209D01*
X550957Y674364D01*
X551244Y674651D01*
X551581Y674876D01*
X551806Y675213D01*
X552093Y675500D01*
X552248Y675875D01*
X552474Y676212D01*
X552553Y676610D01*
X552708Y676985D01*
Y677391D01*
X552787Y677789D01*
Y681962D01*
X556706Y685881D01*
X572071D01*
X573647Y686194D01*
X574984Y687087D01*
X585413Y697516D01*
X586306Y698853D01*
X586619Y700429D01*
Y708000D01*
Y713500D01*
X586306Y715076D01*
X585413Y716413D01*
X584076Y717306D01*
X582500Y717619D01*
X580924Y717306D01*
X580000Y716688D01*
X579076Y717306D01*
X578770Y717366D01*
Y715190D01*
X578694Y715077D01*
X578380Y713500D01*
Y708000D01*
X576620D01*
Y713500D01*
X576306Y715077D01*
X576230Y715190D01*
Y717366D01*
X575924Y717306D01*
X575000Y716688D01*
X574076Y717306D01*
X572500Y717619D01*
X570924Y717306D01*
X570000Y716688D01*
X569076Y717306D01*
X567500Y717619D01*
X565924Y717306D01*
X565000Y716688D01*
X564076Y717306D01*
X562500Y717619D01*
X561619Y718342D01*
Y740794D01*
X586002Y765177D01*
X587466Y764884D01*
X587760Y764174D01*
X587694Y764076D01*
X587381Y762500D01*
X587694Y760924D01*
X588312Y760000D01*
X587694Y759076D01*
X587381Y757500D01*
X587694Y755924D01*
X588312Y755000D01*
X587694Y754076D01*
X587381Y752500D01*
X587694Y750924D01*
X588312Y750000D01*
X587694Y749076D01*
X587381Y747500D01*
X587694Y745924D01*
X588312Y745000D01*
X587694Y744076D01*
X587381Y742500D01*
X587694Y740924D01*
X588312Y740000D01*
X587694Y739076D01*
X587381Y737500D01*
X587694Y735924D01*
X588312Y735000D01*
X587694Y734076D01*
X587381Y732500D01*
X587694Y730924D01*
X588312Y730000D01*
X587694Y729076D01*
X587381Y727500D01*
X587694Y725924D01*
X588312Y725000D01*
X587694Y724076D01*
X587381Y722500D01*
X587694Y720924D01*
X588587Y719587D01*
X589924Y718694D01*
X591500Y718381D01*
X812500D01*
X814076Y718694D01*
X815413Y719587D01*
X842513Y746687D01*
X843406Y748024D01*
X843719Y749600D01*
Y762257D01*
X844054Y762346D01*
X846686Y763866D01*
X848834Y766014D01*
X850353Y768646D01*
X851140Y771581D01*
Y774619D01*
X850353Y777554D01*
X848834Y780186D01*
X846686Y782334D01*
X844054Y783854D01*
X841119Y784640D01*
X838081D01*
X835146Y783854D01*
X832514Y782334D01*
X830366Y780186D01*
X828846Y777554D01*
X828060Y774619D01*
Y771581D01*
X828846Y768646D01*
X830366Y766014D01*
X832514Y763866D01*
X835146Y762346D01*
X835481Y762257D01*
Y751306D01*
X810794Y726619D01*
X754104D01*
X753618Y727793D01*
X766313Y740487D01*
X767206Y741824D01*
X767519Y743400D01*
Y762257D01*
X767854Y762346D01*
X770486Y763866D01*
X772634Y766014D01*
X774154Y768646D01*
X774940Y771581D01*
Y774619D01*
X774154Y777554D01*
X772634Y780186D01*
X770486Y782334D01*
X767854Y783854D01*
X764919Y784640D01*
X761881D01*
X758946Y783854D01*
X756314Y782334D01*
X754166Y780186D01*
X752646Y777554D01*
X751860Y774619D01*
Y771581D01*
X752646Y768646D01*
X754166Y766014D01*
X756314Y763866D01*
X758946Y762346D01*
X759281Y762257D01*
Y745106D01*
X745794Y731619D01*
X724104D01*
X723618Y732793D01*
X740913Y750087D01*
X741806Y751424D01*
X742119Y753000D01*
Y762257D01*
X742454Y762346D01*
X745086Y763866D01*
X747234Y766014D01*
X748754Y768646D01*
X749540Y771581D01*
Y774619D01*
X748754Y777554D01*
X747234Y780186D01*
X745086Y782334D01*
X742454Y783854D01*
X739519Y784640D01*
X736481D01*
X733546Y783854D01*
X730914Y782334D01*
X728766Y780186D01*
X727246Y777554D01*
X726787Y775838D01*
X725472D01*
X724939Y777825D01*
X723420Y780456D01*
X721272Y782605D01*
X718640Y784124D01*
X715705Y784911D01*
X712666D01*
X709732Y784124D01*
X707100Y782605D01*
X704951Y780456D01*
X703432Y777825D01*
X702646Y774890D01*
Y771851D01*
X703432Y768916D01*
X704951Y766285D01*
X707100Y764136D01*
X709732Y762617D01*
X712666Y761831D01*
X715705D01*
X718640Y762617D01*
X721272Y764136D01*
X723420Y766285D01*
X724939Y768916D01*
X725399Y770633D01*
X726714D01*
X727246Y768646D01*
X728766Y766014D01*
X730914Y763866D01*
X733546Y762346D01*
X733881Y762257D01*
Y754706D01*
X717810Y738635D01*
X717271Y738724D01*
X716447Y739068D01*
X716385Y739218D01*
X716306Y739616D01*
X716080Y739954D01*
X715925Y740328D01*
X715638Y740615D01*
X715413Y740953D01*
X715075Y741178D01*
X714789Y741465D01*
X714414Y741620D01*
X714076Y741846D01*
X713679Y741925D01*
X713304Y742080D01*
X712898D01*
X712500Y742159D01*
X712102Y742080D01*
X711696D01*
X711321Y741925D01*
X710924Y741846D01*
X710586Y741620D01*
X710584Y741619D01*
X634240D01*
X633714Y742889D01*
X652913Y762087D01*
X653806Y763424D01*
X654119Y765000D01*
Y805000D01*
X654040Y805398D01*
Y805804D01*
X653885Y806178D01*
X653806Y806576D01*
X653580Y806914D01*
X653425Y807289D01*
X653138Y807575D01*
X652913Y807913D01*
X652575Y808138D01*
X652289Y808425D01*
X651914Y808580D01*
X651576Y808806D01*
X651179Y808885D01*
X650804Y809040D01*
X650398D01*
X650000Y809119D01*
X649602Y809040D01*
X649196D01*
X648821Y808885D01*
X648424Y808806D01*
X648086Y808580D01*
X647711Y808425D01*
X647425Y808138D01*
X647087Y807913D01*
X646862Y807575D01*
X646575Y807289D01*
X646420Y806914D01*
X646194Y806576D01*
X646115Y806178D01*
X645960Y805804D01*
Y805398D01*
X645881Y805000D01*
Y766706D01*
X628294Y749119D01*
X616706D01*
X611619Y754206D01*
Y760896D01*
X612793Y761382D01*
X617087Y757087D01*
X618424Y756194D01*
X620000Y755881D01*
X621576Y756194D01*
X622913Y757087D01*
X623806Y758424D01*
X624119Y760000D01*
X623806Y761576D01*
X622913Y762913D01*
X613618Y772207D01*
X614104Y773381D01*
X617500D01*
X619076Y773694D01*
X620413Y774587D01*
X622913Y777087D01*
X623138Y777425D01*
X623425Y777712D01*
X623580Y778086D01*
X623806Y778424D01*
X623885Y778821D01*
X624040Y779196D01*
Y779602D01*
X624119Y780000D01*
X624040Y780398D01*
Y780804D01*
X623885Y781179D01*
X623806Y781576D01*
X623580Y781914D01*
X623425Y782289D01*
X623138Y782575D01*
X622913Y782913D01*
X622575Y783138D01*
X622289Y783425D01*
X621914Y783580D01*
X621576Y783806D01*
X621179Y783885D01*
X620804Y784040D01*
X620398D01*
X620000Y784119D01*
X619602Y784040D01*
X619196D01*
X618821Y783885D01*
X618424Y783806D01*
X618086Y783580D01*
X617711Y783425D01*
X617425Y783138D01*
X617087Y782913D01*
X615794Y781619D01*
X595861D01*
X595375Y782793D01*
X623464Y810881D01*
X691281D01*
X691679Y810960D01*
X692085D01*
X692460Y811115D01*
X692858Y811194D01*
X693195Y811420D01*
X693570Y811575D01*
X693857Y811862D01*
X694194Y812087D01*
X694419Y812425D01*
X694706Y812711D01*
X694862Y813086D01*
X695087Y813424D01*
X695166Y813821D01*
X695321Y814196D01*
Y814602D01*
X695400Y815000D01*
X695321Y815398D01*
Y815804D01*
X695166Y816179D01*
X695087Y816576D01*
X694862Y816914D01*
X694706Y817289D01*
X694419Y817575D01*
X694194Y817913D01*
X693857Y818138D01*
X693570Y818425D01*
X693195Y818580D01*
X692858Y818806D01*
X692460Y818885D01*
X692085Y819040D01*
X691679D01*
X691281Y819119D01*
X621758D01*
X620181Y818806D01*
X618845Y817913D01*
X587889Y786957D01*
X586619Y787483D01*
Y797500D01*
Y807500D01*
X586306Y809076D01*
X585413Y810413D01*
X582913Y812913D01*
X582575Y813138D01*
X582289Y813425D01*
X581914Y813580D01*
X581576Y813806D01*
X581179Y813885D01*
X580804Y814040D01*
X580398D01*
X580000Y814119D01*
X579602Y814040D01*
X579196D01*
X578821Y813885D01*
X578424Y813806D01*
X578086Y813580D01*
X577711Y813425D01*
X577425Y813138D01*
X577087Y812913D01*
X576862Y812575D01*
X576575Y812289D01*
X576420Y811914D01*
X576194Y811576D01*
X576115Y811179D01*
X575960Y810804D01*
Y810398D01*
X575881Y810000D01*
X575960Y809602D01*
Y809196D01*
X576115Y808821D01*
X576194Y808424D01*
X576420Y808086D01*
X576575Y807711D01*
X576862Y807425D01*
X577087Y807087D01*
X578381Y805794D01*
Y802342D01*
X577500Y801619D01*
X575924Y801306D01*
X575000Y800688D01*
X574076Y801306D01*
X572500Y801619D01*
X570924Y801306D01*
X570000Y800688D01*
X569076Y801306D01*
X567500Y801619D01*
X565924Y801306D01*
X565000Y800688D01*
X564076Y801306D01*
X562500Y801619D01*
X560924Y801306D01*
X560000Y800688D01*
X559076Y801306D01*
X557500Y801619D01*
X555924Y801306D01*
X555000Y800688D01*
X554076Y801306D01*
X552500Y801619D01*
X550924Y801306D01*
X550000Y800688D01*
X549076Y801306D01*
X547500Y801619D01*
X545924Y801306D01*
X545000Y800688D01*
X544076Y801306D01*
X542500Y801619D01*
X542087Y801537D01*
X541462Y802708D01*
X548365Y809611D01*
X551270D01*
X552846Y809924D01*
X554183Y810817D01*
X555076Y812154D01*
X555389Y813730D01*
X555136Y815000D01*
X551270D01*
Y816270D01*
X550000D01*
Y819846D01*
X549123Y819483D01*
X548057Y818417D01*
X547822Y817849D01*
X546659D01*
X545083Y817536D01*
X543746Y816643D01*
X532793Y805689D01*
X531619Y806175D01*
Y811223D01*
X532913Y812087D01*
X544351Y823526D01*
X880649D01*
X882087Y822087D01*
X883424Y821194D01*
X885000Y820881D01*
X886576Y821194D01*
X887913Y822087D01*
X888806Y823424D01*
X889119Y825000D01*
X888806Y826576D01*
X887913Y827913D01*
X885268Y830558D01*
X883931Y831451D01*
X882355Y831764D01*
X654274D01*
X653996Y832075D01*
X653559Y833034D01*
X653580Y833086D01*
X653806Y833424D01*
X653885Y833821D01*
X654040Y834196D01*
Y834602D01*
X654119Y835000D01*
X654040Y835398D01*
Y835804D01*
X653885Y836179D01*
X653806Y836576D01*
X653580Y836914D01*
X653425Y837289D01*
X653138Y837575D01*
X652913Y837913D01*
X652575Y838138D01*
X652289Y838425D01*
X651914Y838580D01*
X651576Y838806D01*
X651179Y838885D01*
X650804Y839040D01*
X650398D01*
X650000Y839119D01*
X581706D01*
X542913Y877913D01*
X541576Y878806D01*
X540000Y879119D01*
X436706D01*
X402913Y912913D01*
X402575Y913138D01*
X402289Y913425D01*
X401914Y913580D01*
X401576Y913806D01*
X401178Y913885D01*
X400804Y914040D01*
X400398D01*
X400000Y914119D01*
D02*
G37*
G36*
X908360Y791269D02*
X908360Y791269D01*
X878540D01*
X876769Y790917D01*
X875267Y789913D01*
X875267Y789913D01*
X869259Y783906D01*
X866519Y784640D01*
X863481D01*
X860546Y783854D01*
X857914Y782334D01*
X855766Y780186D01*
X854246Y777554D01*
X853460Y774619D01*
Y771581D01*
X854246Y768646D01*
X855766Y766014D01*
X857914Y763866D01*
X860546Y762346D01*
X863481Y761560D01*
X866519D01*
X869454Y762346D01*
X872086Y763866D01*
X874234Y766014D01*
X875753Y768646D01*
X876540Y771581D01*
Y774619D01*
X875806Y777359D01*
X877687Y779240D01*
X878860Y778754D01*
Y761560D01*
X895394D01*
X940371Y716583D01*
Y674364D01*
X939794Y674026D01*
X939101Y673894D01*
X899282Y713713D01*
X897780Y714717D01*
X896008Y715069D01*
X896008Y715069D01*
X875440D01*
X875440Y715069D01*
X873669Y714717D01*
X872167Y713713D01*
X872167Y713713D01*
X866814Y708361D01*
X866519Y708440D01*
X863481D01*
X860546Y707654D01*
X857914Y706134D01*
X855766Y703986D01*
X854246Y701354D01*
X853460Y698419D01*
Y695381D01*
X854246Y692446D01*
X855766Y689814D01*
X857914Y687666D01*
X860546Y686146D01*
X863481Y685360D01*
X866519D01*
X869454Y686146D01*
X872086Y687666D01*
X874234Y689814D01*
X875753Y692446D01*
X876540Y695381D01*
Y698419D01*
X875753Y701354D01*
X874709Y703163D01*
X877357Y705811D01*
X881332D01*
X881818Y704638D01*
X881166Y703986D01*
X879646Y701354D01*
X878860Y698419D01*
Y695381D01*
X879646Y692446D01*
X881166Y689814D01*
X883314Y687666D01*
X885771Y686247D01*
Y659600D01*
X885771Y659600D01*
X886123Y657829D01*
X887127Y656327D01*
X925371Y618083D01*
Y479417D01*
X910943Y464989D01*
X908888Y465540D01*
X906112D01*
X903432Y464822D01*
X901028Y463434D01*
X899066Y461472D01*
X897678Y459068D01*
X896960Y456388D01*
Y453612D01*
X897511Y451557D01*
X893043Y447089D01*
X801154D01*
X800668Y448262D01*
X800934Y448528D01*
X802322Y450932D01*
X803040Y453612D01*
Y456388D01*
X802322Y459068D01*
X800934Y461472D01*
X798972Y463434D01*
X796568Y464822D01*
X793888Y465540D01*
X791112D01*
X789057Y464989D01*
X783233Y470813D01*
X781731Y471817D01*
X779960Y472169D01*
X779960Y472169D01*
X686129D01*
X686004Y473439D01*
X687233Y473683D01*
X688735Y474687D01*
X704057Y490009D01*
X706112Y489458D01*
X708888D01*
X711568Y490177D01*
X713972Y491564D01*
X715934Y493527D01*
X716998Y495369D01*
X772002D01*
X792684Y474687D01*
X792684Y474687D01*
X794186Y473683D01*
X795957Y473331D01*
X795958Y473331D01*
X885462D01*
X885462Y473331D01*
X887233Y473683D01*
X888735Y474687D01*
X904057Y490009D01*
X906112Y489458D01*
X908888D01*
X911568Y490177D01*
X913972Y491564D01*
X915934Y493527D01*
X917322Y495930D01*
X918040Y498611D01*
Y501386D01*
X917322Y504067D01*
X915934Y506470D01*
X913972Y508433D01*
X911568Y509820D01*
X908888Y510538D01*
X906112D01*
X903432Y509820D01*
X901028Y508433D01*
X899066Y506470D01*
X897678Y504067D01*
X896960Y501386D01*
Y498611D01*
X897511Y496555D01*
X883544Y482589D01*
X862201D01*
X861832Y483804D01*
X862775Y484434D01*
X865566Y487225D01*
X867759Y490508D01*
X869270Y494155D01*
X870040Y498026D01*
Y501974D01*
X869270Y505845D01*
X867759Y509492D01*
X865566Y512775D01*
X862775Y515566D01*
X859492Y517759D01*
X855845Y519270D01*
X851974Y520040D01*
X848026D01*
X844155Y519270D01*
X840508Y517759D01*
X837225Y515566D01*
X834434Y512775D01*
X832241Y509492D01*
X830730Y505845D01*
X829960Y501974D01*
Y498026D01*
X830730Y494155D01*
X832241Y490508D01*
X834434Y487225D01*
X837225Y484434D01*
X838168Y483804D01*
X837799Y482589D01*
X797875D01*
X792274Y488190D01*
X792800Y489460D01*
X793888D01*
X796568Y490178D01*
X798972Y491566D01*
X800934Y493528D01*
X802322Y495932D01*
X803040Y498612D01*
Y501388D01*
X802322Y504068D01*
X800934Y506472D01*
X798972Y508434D01*
X796568Y509822D01*
X793888Y510540D01*
X791112D01*
X789057Y509989D01*
X773733Y525313D01*
X772231Y526317D01*
X771003Y526561D01*
X771128Y527831D01*
X894960D01*
X894960Y527831D01*
X896731Y528183D01*
X898233Y529187D01*
X904057Y535011D01*
X906112Y534460D01*
X908888D01*
X911568Y535178D01*
X913972Y536566D01*
X915934Y538528D01*
X917322Y540932D01*
X918040Y543612D01*
Y546388D01*
X917322Y549068D01*
X915934Y551472D01*
X913972Y553434D01*
X911568Y554822D01*
X908888Y555540D01*
X906112D01*
X903432Y554822D01*
X901028Y553434D01*
X899066Y551472D01*
X897678Y549068D01*
X896960Y546388D01*
Y543612D01*
X897511Y541557D01*
X893043Y537089D01*
X801154D01*
X800668Y538262D01*
X800934Y538528D01*
X802322Y540932D01*
X803040Y543612D01*
Y546388D01*
X802322Y549068D01*
X800934Y551472D01*
X798972Y553434D01*
X796568Y554822D01*
X793888Y555540D01*
X791112D01*
X789057Y554989D01*
X783233Y560813D01*
X782114Y561561D01*
X782499Y562831D01*
X877460D01*
X877460Y562831D01*
X879231Y563183D01*
X880733Y564187D01*
X886557Y570011D01*
X888612Y569460D01*
X891388D01*
X894068Y570178D01*
X896472Y571566D01*
X898434Y573528D01*
X899822Y575932D01*
X900540Y578612D01*
Y581388D01*
X899822Y584068D01*
X898434Y586472D01*
X896472Y588434D01*
X894068Y589822D01*
X891388Y590540D01*
X888612D01*
X885932Y589822D01*
X883528Y588434D01*
X881566Y586472D01*
X880178Y584068D01*
X879460Y581388D01*
Y578612D01*
X880011Y576557D01*
X875543Y572089D01*
X859743D01*
X859494Y573359D01*
X860733Y574187D01*
X865813Y579267D01*
X865813Y579267D01*
X866817Y580769D01*
X867169Y582540D01*
X867169Y582540D01*
Y627489D01*
X867169Y627489D01*
X866817Y629260D01*
X865813Y630762D01*
X844229Y652346D01*
Y686247D01*
X846686Y687666D01*
X848834Y689814D01*
X850353Y692446D01*
X851140Y695381D01*
Y698419D01*
X850353Y701354D01*
X848834Y703986D01*
X846686Y706134D01*
X844054Y707654D01*
X841119Y708440D01*
X838081D01*
X835146Y707654D01*
X832514Y706134D01*
X830366Y703986D01*
X828846Y701354D01*
X828060Y698419D01*
Y695381D01*
X828846Y692446D01*
X830366Y689814D01*
X832514Y687666D01*
X834971Y686247D01*
Y650429D01*
X834971Y650429D01*
X835323Y648657D01*
X836327Y647156D01*
X857911Y625571D01*
Y598654D01*
X856738Y598168D01*
X856472Y598434D01*
X854068Y599822D01*
X851388Y600540D01*
X848612D01*
X846557Y599989D01*
X768029Y678517D01*
Y686247D01*
X770486Y687666D01*
X772634Y689814D01*
X774154Y692446D01*
X774940Y695381D01*
Y698419D01*
X774154Y701354D01*
X772634Y703986D01*
X770486Y706134D01*
X767854Y707654D01*
X764919Y708440D01*
X761881D01*
X758946Y707654D01*
X756314Y706134D01*
X754166Y703986D01*
X752646Y701354D01*
X751860Y698419D01*
Y695381D01*
X752646Y692446D01*
X754166Y689814D01*
X756314Y687666D01*
X758771Y686247D01*
Y684335D01*
X757598Y683849D01*
X748806Y692641D01*
X749540Y695381D01*
Y698419D01*
X748754Y701354D01*
X747234Y703986D01*
X745086Y706134D01*
X742454Y707654D01*
X739519Y708440D01*
X736481D01*
X733546Y707654D01*
X730914Y706134D01*
X728766Y703986D01*
X727246Y701354D01*
X726460Y698419D01*
Y695381D01*
X727246Y692446D01*
X728766Y689814D01*
X730914Y687666D01*
X733546Y686146D01*
X736481Y685360D01*
X739519D01*
X742259Y686094D01*
X752771Y675583D01*
Y674115D01*
X752771Y674115D01*
X753123Y672343D01*
X754127Y670842D01*
X764892Y660077D01*
X765006Y659906D01*
X766508Y658903D01*
X768279Y658550D01*
X770051Y658903D01*
X771552Y659906D01*
X771581Y659934D01*
X771801Y660264D01*
X773065Y660389D01*
X837651Y595802D01*
X837165Y594629D01*
X819652D01*
X812467Y601813D01*
X810966Y602817D01*
X809194Y603169D01*
X809194Y603169D01*
X673540D01*
X673540Y603169D01*
X671769Y602817D01*
X670267Y601813D01*
X670267Y601813D01*
X663083Y594629D01*
X659498D01*
X658434Y596472D01*
X656472Y598434D01*
X654068Y599822D01*
X651388Y600540D01*
X648612D01*
X645932Y599822D01*
X643528Y598434D01*
X641566Y596472D01*
X640502Y594629D01*
X619652D01*
X612467Y601813D01*
X610966Y602817D01*
X609194Y603169D01*
X609194Y603169D01*
X373540D01*
X373540Y603169D01*
X371768Y602817D01*
X370267Y601813D01*
X370267Y601813D01*
X364288Y595834D01*
X358802D01*
X358434Y596472D01*
X356472Y598434D01*
X354068Y599822D01*
X351388Y600540D01*
X348612D01*
X345932Y599822D01*
X343528Y598434D01*
X341566Y596472D01*
X340502Y594629D01*
X319652D01*
X312467Y601813D01*
X310966Y602817D01*
X309194Y603169D01*
X309194Y603169D01*
X161259D01*
X161259Y603169D01*
X159488Y602817D01*
X157986Y601813D01*
X157986Y601813D01*
X155289Y599117D01*
X154068Y599822D01*
X151388Y600540D01*
X148612D01*
X145932Y599822D01*
X143528Y598434D01*
X141566Y596472D01*
X140178Y594068D01*
X139460Y591388D01*
Y588612D01*
X140178Y585932D01*
X141566Y583528D01*
X143528Y581566D01*
X144684Y580899D01*
X144343Y579629D01*
X120540D01*
Y581388D01*
X119822Y584068D01*
X118434Y586472D01*
X116472Y588434D01*
X114068Y589822D01*
X111388Y590540D01*
X108612D01*
X105932Y589822D01*
X103528Y588434D01*
X101566Y586472D01*
X100178Y584068D01*
X99460Y581388D01*
Y578612D01*
X100178Y575932D01*
X101566Y573528D01*
X103528Y571566D01*
X105932Y570178D01*
X108612Y569460D01*
X111388D01*
X114068Y570178D01*
X115798Y571177D01*
X116476Y570723D01*
X118247Y570371D01*
X118247Y570371D01*
X155342D01*
X155343Y570371D01*
X157114Y570723D01*
X158616Y571727D01*
X174800Y587911D01*
X181346D01*
X181832Y586738D01*
X181566Y586472D01*
X180178Y584068D01*
X179460Y581388D01*
Y578612D01*
X180178Y575932D01*
X181566Y573528D01*
X183528Y571566D01*
X185932Y570178D01*
X188612Y569460D01*
X191388D01*
X194068Y570178D01*
X196472Y571566D01*
X198434Y573528D01*
X199498Y575371D01*
X208083D01*
X220111Y563342D01*
X219625Y562169D01*
X160491D01*
X160491Y562169D01*
X158719Y561817D01*
X157218Y560813D01*
X157218Y560813D01*
X146033Y549629D01*
X101998D01*
X100934Y551472D01*
X98972Y553434D01*
X96568Y554822D01*
X93888Y555540D01*
X91112D01*
X88432Y554822D01*
X86028Y553434D01*
X84066Y551472D01*
X82678Y549068D01*
X81960Y546388D01*
Y543612D01*
X82678Y540932D01*
X84066Y538528D01*
X86028Y536566D01*
X88432Y535178D01*
X91112Y534460D01*
X93888D01*
X96568Y535178D01*
X98972Y536566D01*
X100934Y538528D01*
X101998Y540371D01*
X147951D01*
X147951Y540371D01*
X149722Y540723D01*
X151224Y541727D01*
X162408Y552911D01*
X198846D01*
X199332Y551738D01*
X199066Y551472D01*
X197678Y549068D01*
X196960Y546388D01*
Y543612D01*
X197678Y540932D01*
X199066Y538528D01*
X201028Y536566D01*
X203432Y535178D01*
X206112Y534460D01*
X208888D01*
X211568Y535178D01*
X213972Y536566D01*
X215934Y538528D01*
X216998Y540371D01*
X246033D01*
X257218Y529187D01*
X257218Y529187D01*
X258719Y528183D01*
X259948Y527939D01*
X259823Y526669D01*
X138458D01*
X138458Y526669D01*
X136687Y526317D01*
X135185Y525313D01*
X135185Y525313D01*
X114501Y504629D01*
X101998D01*
X100934Y506472D01*
X98972Y508434D01*
X96568Y509822D01*
X93888Y510540D01*
X91112D01*
X88432Y509822D01*
X86028Y508434D01*
X84066Y506472D01*
X82678Y504068D01*
X81960Y501388D01*
Y498612D01*
X82678Y495932D01*
X84066Y493528D01*
X86028Y491566D01*
X88432Y490178D01*
X91112Y489460D01*
X93888D01*
X96568Y490178D01*
X98972Y491566D01*
X100934Y493528D01*
X101998Y495371D01*
X116418D01*
X116418Y495371D01*
X118190Y495723D01*
X119691Y496727D01*
X129786Y506822D01*
X130842Y506116D01*
X130730Y505845D01*
X129960Y501974D01*
Y498026D01*
X130730Y494155D01*
X132241Y490508D01*
X134434Y487225D01*
X137225Y484434D01*
X140507Y482241D01*
X144155Y480730D01*
X148026Y479960D01*
X151974D01*
X155845Y480730D01*
X159493Y482241D01*
X162775Y484434D01*
X165566Y487225D01*
X167759Y490508D01*
X169270Y494155D01*
X170040Y498026D01*
Y501974D01*
X169270Y505845D01*
X167759Y509492D01*
X165566Y512775D01*
X162775Y515566D01*
X161832Y516196D01*
X162201Y517411D01*
X268543D01*
X282511Y503443D01*
X281960Y501388D01*
Y500300D01*
X280690Y499774D01*
X277192Y503271D01*
X275690Y504275D01*
X273919Y504627D01*
X273919Y504627D01*
X216998D01*
X215934Y506470D01*
X213972Y508433D01*
X211568Y509820D01*
X208888Y510538D01*
X206112D01*
X203432Y509820D01*
X201028Y508433D01*
X199066Y506470D01*
X197678Y504067D01*
X196960Y501386D01*
Y498611D01*
X197678Y495930D01*
X199066Y493527D01*
X201028Y491564D01*
X203432Y490177D01*
X206112Y489458D01*
X208888D01*
X211568Y490177D01*
X213972Y491564D01*
X215934Y493527D01*
X216998Y495369D01*
X272002D01*
X292684Y474687D01*
X292684Y474687D01*
X294186Y473683D01*
X295957Y473331D01*
X295958Y473331D01*
X359823D01*
X359948Y472061D01*
X358719Y471817D01*
X357218Y470813D01*
X357217Y470813D01*
X346033Y459629D01*
X301998D01*
X300934Y461472D01*
X298972Y463434D01*
X296568Y464822D01*
X293888Y465540D01*
X291112D01*
X289057Y464989D01*
X283233Y470813D01*
X281731Y471817D01*
X279960Y472169D01*
X279960Y472169D01*
X160491D01*
X160491Y472169D01*
X158719Y471817D01*
X157218Y470813D01*
X157218Y470813D01*
X146033Y459629D01*
X101998D01*
X100934Y461472D01*
X98972Y463434D01*
X96568Y464822D01*
X93888Y465540D01*
X91112D01*
X88432Y464822D01*
X86028Y463434D01*
X84066Y461472D01*
X82678Y459068D01*
X81960Y456388D01*
Y453612D01*
X82678Y450932D01*
X84066Y448528D01*
X86028Y446566D01*
X88432Y445178D01*
X91112Y444460D01*
X93888D01*
X96568Y445178D01*
X98972Y446566D01*
X100934Y448528D01*
X101998Y450371D01*
X147951D01*
X147951Y450371D01*
X149722Y450723D01*
X151224Y451727D01*
X162408Y462911D01*
X198846D01*
X199332Y461738D01*
X199066Y461472D01*
X197678Y459068D01*
X196960Y456388D01*
Y453612D01*
X197678Y450932D01*
X199066Y448528D01*
X201028Y446566D01*
X203432Y445178D01*
X206112Y444460D01*
X208888D01*
X211568Y445178D01*
X213972Y446566D01*
X215934Y448528D01*
X216998Y450371D01*
X246033D01*
X257218Y439187D01*
X257218Y439187D01*
X258337Y438439D01*
X257952Y437169D01*
X154806D01*
X154806Y437169D01*
X153034Y436817D01*
X151533Y435813D01*
X151533Y435813D01*
X140348Y424629D01*
X119498D01*
X118434Y426472D01*
X116472Y428434D01*
X114068Y429822D01*
X111388Y430540D01*
X108612D01*
X105932Y429822D01*
X103528Y428434D01*
X101566Y426472D01*
X100178Y424068D01*
X99460Y421388D01*
Y418612D01*
X100178Y415932D01*
X101566Y413528D01*
X103528Y411566D01*
X105932Y410178D01*
X108612Y409460D01*
X111388D01*
X114068Y410178D01*
X116472Y411566D01*
X118434Y413528D01*
X119498Y415371D01*
X139661D01*
X140295Y414271D01*
X140178Y414068D01*
X139460Y411388D01*
Y408612D01*
X140178Y405932D01*
X141566Y403528D01*
X143528Y401566D01*
X145932Y400178D01*
X148612Y399460D01*
X151388D01*
X154068Y400178D01*
X156472Y401566D01*
X158434Y403528D01*
X159822Y405932D01*
X160540Y408612D01*
Y411388D01*
X159822Y414068D01*
X158434Y416472D01*
X156472Y418434D01*
X154068Y419822D01*
X151388Y420540D01*
X151011D01*
X150525Y421713D01*
X156723Y427911D01*
X181346D01*
X181832Y426738D01*
X181566Y426472D01*
X180178Y424068D01*
X179460Y421388D01*
Y418612D01*
X180178Y415932D01*
X181566Y413528D01*
X183528Y411566D01*
X185932Y410178D01*
X188612Y409460D01*
X191388D01*
X194068Y410178D01*
X196472Y411566D01*
X198434Y413528D01*
X199822Y415932D01*
X200540Y418612D01*
Y421388D01*
X199822Y424068D01*
X198434Y426472D01*
X198168Y426738D01*
X198654Y427911D01*
X295543D01*
X300011Y423443D01*
X299460Y421388D01*
Y418612D01*
X300178Y415932D01*
X301566Y413528D01*
X303528Y411566D01*
X305932Y410178D01*
X308612Y409460D01*
X311388D01*
X314068Y410178D01*
X316472Y411566D01*
X318434Y413528D01*
X319822Y415932D01*
X320540Y418612D01*
Y421388D01*
X319989Y423443D01*
X324457Y427911D01*
X381346D01*
X381832Y426738D01*
X381566Y426472D01*
X380178Y424068D01*
X379460Y421388D01*
Y418612D01*
X380178Y415932D01*
X381566Y413528D01*
X383528Y411566D01*
X385932Y410178D01*
X388612Y409460D01*
X391388D01*
X394068Y410178D01*
X396472Y411566D01*
X398434Y413528D01*
X399822Y415932D01*
X400540Y418612D01*
Y421388D01*
X399822Y424068D01*
X398434Y426472D01*
X398168Y426738D01*
X398654Y427911D01*
X487592D01*
X498776Y416727D01*
X498776Y416727D01*
X500278Y415723D01*
X502049Y415371D01*
X502049Y415371D01*
X600502D01*
X601566Y413528D01*
X603528Y411566D01*
X605932Y410178D01*
X608612Y409460D01*
X611388D01*
X614068Y410178D01*
X616472Y411566D01*
X618434Y413528D01*
X619498Y415371D01*
X639660D01*
X640295Y414271D01*
X640178Y414068D01*
X639460Y411388D01*
Y408612D01*
X640178Y405932D01*
X641566Y403528D01*
X643528Y401566D01*
X645932Y400178D01*
X648612Y399460D01*
X651388D01*
X654068Y400178D01*
X656472Y401566D01*
X658434Y403528D01*
X659822Y405932D01*
X660540Y408612D01*
Y411388D01*
X659822Y414068D01*
X658434Y416472D01*
X656472Y418434D01*
X654068Y419822D01*
X651388Y420540D01*
X651011D01*
X650525Y421713D01*
X656723Y427911D01*
X681346D01*
X681832Y426738D01*
X681566Y426472D01*
X680178Y424068D01*
X679460Y421388D01*
Y418612D01*
X680178Y415932D01*
X681566Y413528D01*
X683528Y411566D01*
X685932Y410178D01*
X688612Y409460D01*
X691388D01*
X694068Y410178D01*
X696472Y411566D01*
X698434Y413528D01*
X699822Y415932D01*
X700540Y418612D01*
Y421388D01*
X699822Y424068D01*
X698434Y426472D01*
X698168Y426738D01*
X698654Y427911D01*
X795543D01*
X800011Y423443D01*
X799460Y421388D01*
Y418612D01*
X800178Y415932D01*
X801566Y413528D01*
X803528Y411566D01*
X805932Y410178D01*
X808612Y409460D01*
X811388D01*
X814068Y410178D01*
X816472Y411566D01*
X818434Y413528D01*
X819822Y415932D01*
X820540Y418612D01*
Y421388D01*
X819989Y423443D01*
X827968Y431422D01*
X886997D01*
X887164Y430152D01*
X885932Y429822D01*
X883528Y428434D01*
X881566Y426472D01*
X880178Y424068D01*
X879460Y421388D01*
Y418612D01*
X880178Y415932D01*
X881566Y413528D01*
X883528Y411566D01*
X885932Y410178D01*
X888612Y409460D01*
X891388D01*
X894068Y410178D01*
X896472Y411566D01*
X898434Y413528D01*
X899822Y415932D01*
X900540Y418612D01*
Y421388D01*
X899822Y424068D01*
X898434Y426472D01*
X896472Y428434D01*
X894068Y429822D01*
X892836Y430152D01*
X893003Y431422D01*
X906285D01*
X906285Y431422D01*
X908057Y431774D01*
X909558Y432778D01*
X939273Y462492D01*
X939273Y462492D01*
X940277Y463994D01*
X940629Y465766D01*
Y576084D01*
X941196Y576416D01*
X941899Y576612D01*
X943229Y575723D01*
X945000Y575371D01*
X946771Y575723D01*
X948273Y576727D01*
X949101Y577966D01*
X950371Y577716D01*
Y555000D01*
X950723Y553229D01*
X951727Y551727D01*
X953229Y550723D01*
X955000Y550371D01*
X956771Y550723D01*
X958273Y551727D01*
X959277Y553229D01*
X959629Y555000D01*
Y740000D01*
X959629Y740000D01*
X959277Y741771D01*
X958273Y743273D01*
X958273Y743273D01*
X911633Y789913D01*
X910131Y790917D01*
X908360Y791269D01*
D02*
G37*
G36*
X815719Y784640D02*
X812681D01*
X809746Y783854D01*
X807114Y782334D01*
X804966Y780186D01*
X803446Y777554D01*
X802660Y774619D01*
Y771581D01*
X803446Y768646D01*
X804966Y766014D01*
X807114Y763866D01*
X809746Y762346D01*
X812681Y761560D01*
X815719D01*
X818654Y762346D01*
X821286Y763866D01*
X823434Y766014D01*
X824954Y768646D01*
X825740Y771581D01*
Y774619D01*
X824954Y777554D01*
X823434Y780186D01*
X821286Y782334D01*
X818654Y783854D01*
X815719Y784640D01*
D02*
G37*
G36*
X790319D02*
X787281D01*
X784346Y783854D01*
X781714Y782334D01*
X779566Y780186D01*
X778046Y777554D01*
X777260Y774619D01*
Y771581D01*
X778046Y768646D01*
X779566Y766014D01*
X781714Y763866D01*
X784346Y762346D01*
X787281Y761560D01*
X790319D01*
X793254Y762346D01*
X795886Y763866D01*
X798034Y766014D01*
X799554Y768646D01*
X800340Y771581D01*
Y774619D01*
X799554Y777554D01*
X798034Y780186D01*
X795886Y782334D01*
X793254Y783854D01*
X790319Y784640D01*
D02*
G37*
G36*
X315270Y915540D02*
X304730D01*
X299460Y910270D01*
Y905215D01*
X136850Y742605D01*
X50000D01*
X48032Y742346D01*
X46198Y741586D01*
X44622Y740378D01*
X43414Y738802D01*
X42654Y736968D01*
X42395Y735000D01*
X42654Y733032D01*
X43414Y731198D01*
X44622Y729622D01*
X46198Y728414D01*
X48032Y727654D01*
X50000Y727395D01*
X140000D01*
X141968Y727654D01*
X143802Y728414D01*
X145378Y729622D01*
X310215Y894460D01*
X315270D01*
X320540Y899730D01*
Y910270D01*
X315270Y915540D01*
D02*
G37*
G36*
X790319Y708440D02*
X790070D01*
Y698170D01*
X800340D01*
Y698419D01*
X799554Y701354D01*
X798034Y703986D01*
X795886Y706134D01*
X793254Y707654D01*
X790319Y708440D01*
D02*
G37*
G36*
X787530D02*
X787281D01*
X784346Y707654D01*
X781714Y706134D01*
X779566Y703986D01*
X778046Y701354D01*
X777260Y698419D01*
Y698170D01*
X787530D01*
Y708440D01*
D02*
G37*
G36*
X800340Y695630D02*
X790070D01*
Y685360D01*
X790319D01*
X793254Y686146D01*
X795886Y687666D01*
X798034Y689814D01*
X799554Y692446D01*
X800340Y695381D01*
Y695630D01*
D02*
G37*
G36*
X787530D02*
X777260D01*
Y695381D01*
X778046Y692446D01*
X779566Y689814D01*
X781714Y687666D01*
X784346Y686146D01*
X787281Y685360D01*
X787530D01*
Y695630D01*
D02*
G37*
G36*
X714119Y708440D02*
X711081D01*
X708146Y707654D01*
X705514Y706134D01*
X703366Y703986D01*
X701846Y701354D01*
X701060Y698419D01*
Y695381D01*
X701846Y692446D01*
X703366Y689814D01*
X705514Y687666D01*
X708146Y686146D01*
X711081Y685360D01*
X714119D01*
X717054Y686146D01*
X719686Y687666D01*
X721834Y689814D01*
X723354Y692446D01*
X724140Y695381D01*
Y698419D01*
X723354Y701354D01*
X721834Y703986D01*
X719686Y706134D01*
X717054Y707654D01*
X714119Y708440D01*
D02*
G37*
G36*
X815719D02*
X812681D01*
X809746Y707654D01*
X807114Y706134D01*
X804966Y703986D01*
X803446Y701354D01*
X802660Y698419D01*
Y695381D01*
X803446Y692446D01*
X804966Y689814D01*
X807114Y687666D01*
X809571Y686247D01*
Y645800D01*
X809923Y644029D01*
X810927Y642527D01*
X812429Y641523D01*
X814200Y641171D01*
X815971Y641523D01*
X817473Y642527D01*
X818477Y644029D01*
X818829Y645800D01*
Y686247D01*
X821286Y687666D01*
X823434Y689814D01*
X824954Y692446D01*
X825740Y695381D01*
Y698419D01*
X824954Y701354D01*
X823434Y703986D01*
X821286Y706134D01*
X818654Y707654D01*
X815719Y708440D01*
D02*
G37*
G36*
X851388Y420540D02*
X848612D01*
X845932Y419822D01*
X843528Y418434D01*
X841566Y416472D01*
X840178Y414068D01*
X839460Y411388D01*
Y408612D01*
X840178Y405932D01*
X841566Y403528D01*
X843528Y401566D01*
X845932Y400178D01*
X848612Y399460D01*
X851388D01*
X854068Y400178D01*
X856472Y401566D01*
X858434Y403528D01*
X859822Y405932D01*
X860540Y408612D01*
Y411388D01*
X859822Y414068D01*
X858434Y416472D01*
X856472Y418434D01*
X854068Y419822D01*
X851388Y420540D01*
D02*
G37*
G36*
X351388D02*
X348612D01*
X345932Y419822D01*
X343528Y418434D01*
X341566Y416472D01*
X340178Y414068D01*
X339460Y411388D01*
Y408612D01*
X340178Y405932D01*
X341566Y403528D01*
X343528Y401566D01*
X345932Y400178D01*
X348612Y399460D01*
X351388D01*
X354068Y400178D01*
X356472Y401566D01*
X358434Y403528D01*
X359822Y405932D01*
X360540Y408612D01*
Y411388D01*
X359822Y414068D01*
X358434Y416472D01*
X356472Y418434D01*
X354068Y419822D01*
X351388Y420540D01*
D02*
G37*
G36*
X283318Y305040D02*
X272238D01*
Y301629D01*
X262000D01*
X262000Y301629D01*
X260229Y301277D01*
X258727Y300273D01*
X258727Y300273D01*
X251727Y293273D01*
X250723Y291771D01*
X250371Y290000D01*
X250723Y288229D01*
X251727Y286727D01*
X253229Y285723D01*
X255000Y285371D01*
X256771Y285723D01*
X258273Y286727D01*
X263917Y292371D01*
X272238D01*
Y288960D01*
X283318D01*
Y305040D01*
D02*
G37*
G36*
X105540D02*
X94460D01*
Y301629D01*
X92000D01*
X92000Y301629D01*
X90229Y301277D01*
X88727Y300273D01*
X88727Y300273D01*
X86727Y298273D01*
X85723Y296771D01*
X85371Y295000D01*
X85723Y293229D01*
X86727Y291727D01*
X88229Y290723D01*
X90000Y290371D01*
X91771Y290723D01*
X93190Y291671D01*
X93526Y291597D01*
X94460Y291118D01*
Y288960D01*
X105540D01*
Y305040D01*
D02*
G37*
G36*
X816651D02*
X805571D01*
Y301119D01*
X797000D01*
X795424Y300806D01*
X794087Y299913D01*
X787087Y292913D01*
X786862Y292575D01*
X786575Y292288D01*
X786420Y291914D01*
X786194Y291576D01*
X786115Y291178D01*
X785960Y290804D01*
Y290398D01*
X785881Y290000D01*
X785960Y289602D01*
Y289196D01*
X786115Y288822D01*
X786194Y288424D01*
X786420Y288086D01*
X786575Y287712D01*
X786862Y287425D01*
X787087Y287087D01*
X787425Y286862D01*
X787711Y286575D01*
X788086Y286420D01*
X788424Y286194D01*
X788821Y286115D01*
X789196Y285960D01*
X789602D01*
X790000Y285881D01*
X790398Y285960D01*
X790804D01*
X791179Y286115D01*
X791576Y286194D01*
X791914Y286420D01*
X792289Y286575D01*
X792575Y286862D01*
X792913Y287087D01*
X798706Y292881D01*
X805571D01*
Y288960D01*
X816651D01*
Y305040D01*
D02*
G37*
G36*
X638873D02*
X627793D01*
Y301119D01*
X622000D01*
X620424Y300806D01*
X619087Y299913D01*
X607087Y287913D01*
X606862Y287575D01*
X606575Y287288D01*
X606420Y286914D01*
X606194Y286576D01*
X606115Y286178D01*
X605960Y285804D01*
Y285398D01*
X605881Y285000D01*
X605960Y284602D01*
Y284196D01*
X606115Y283822D01*
X606194Y283424D01*
X606420Y283086D01*
X606575Y282712D01*
X606862Y282425D01*
X607087Y282087D01*
X607425Y281862D01*
X607711Y281575D01*
X608086Y281420D01*
X608424Y281194D01*
X608821Y281115D01*
X609196Y280960D01*
X609602D01*
X610000Y280881D01*
X610398Y280960D01*
X610804D01*
X611179Y281115D01*
X611576Y281194D01*
X611914Y281420D01*
X612289Y281575D01*
X612575Y281862D01*
X612913Y282087D01*
X623706Y292881D01*
X627793D01*
Y288960D01*
X638873D01*
Y305040D01*
D02*
G37*
G36*
X461096D02*
X450015D01*
Y300213D01*
X441094D01*
X439517Y299899D01*
X438181Y299006D01*
X432087Y292913D01*
X431862Y292575D01*
X431575Y292288D01*
X431420Y291914D01*
X431194Y291576D01*
X431115Y291178D01*
X430960Y290804D01*
Y290398D01*
X430881Y290000D01*
X430960Y289602D01*
Y289196D01*
X431115Y288822D01*
X431194Y288424D01*
X431420Y288086D01*
X431575Y287712D01*
X431862Y287425D01*
X432087Y287087D01*
X432425Y286862D01*
X432711Y286575D01*
X433086Y286420D01*
X433424Y286194D01*
X433821Y286115D01*
X434196Y285960D01*
X434602D01*
X435000Y285881D01*
X435398Y285960D01*
X435804D01*
X436179Y286115D01*
X436576Y286194D01*
X436914Y286420D01*
X437289Y286575D01*
X437575Y286862D01*
X437913Y287087D01*
X442800Y291975D01*
X450015D01*
Y288960D01*
X461096D01*
Y305040D01*
D02*
G37*
G36*
X559484Y281040D02*
X555214D01*
Y274270D01*
X559484D01*
Y281040D01*
D02*
G37*
G36*
X381707D02*
X377437D01*
Y274270D01*
X381707D01*
Y281040D01*
D02*
G37*
G36*
X203929D02*
X199659D01*
Y274270D01*
X203929D01*
Y281040D01*
D02*
G37*
G36*
X737262D02*
X732992D01*
Y274270D01*
X737262D01*
Y281040D01*
D02*
G37*
G36*
X915040D02*
X910770D01*
Y274270D01*
X915040D01*
Y281040D01*
D02*
G37*
G36*
Y271730D02*
X910770D01*
Y264960D01*
X915040D01*
Y271730D01*
D02*
G37*
G36*
X737262D02*
X732992D01*
Y264960D01*
X737262D01*
Y271730D01*
D02*
G37*
G36*
X559484D02*
X555214D01*
Y264960D01*
X559484D01*
Y271730D01*
D02*
G37*
G36*
X381707D02*
X377437D01*
Y264960D01*
X381707D01*
Y271730D01*
D02*
G37*
G36*
X203929D02*
X199659D01*
Y264960D01*
X203929D01*
Y271730D01*
D02*
G37*
G36*
X194429Y305040D02*
X183349D01*
Y288960D01*
X184260D01*
Y281040D01*
X173849D01*
Y264960D01*
X174760D01*
Y257528D01*
X173616Y256384D01*
X172612Y254883D01*
X172260Y253111D01*
X172612Y251340D01*
X173616Y249838D01*
X175117Y248834D01*
X176889Y248482D01*
X178660Y248834D01*
X180162Y249838D01*
X182662Y252338D01*
X183666Y253840D01*
X184018Y255611D01*
X184018Y255611D01*
Y257024D01*
X184588Y257329D01*
X185288Y257578D01*
X186889Y257260D01*
X188660Y257612D01*
X190162Y258616D01*
X192162Y260616D01*
X192162Y260616D01*
X193165Y262118D01*
X193518Y263889D01*
X194148Y264960D01*
X197119D01*
Y273000D01*
Y281040D01*
X193518D01*
Y288960D01*
X194429D01*
Y305040D01*
D02*
G37*
G36*
X470596Y281040D02*
X459515D01*
Y264960D01*
X459917D01*
Y257025D01*
X459834Y256992D01*
X458647Y256814D01*
X458580Y256914D01*
X458425Y257288D01*
X458138Y257575D01*
X457913Y257913D01*
X452006Y263819D01*
X451596Y264960D01*
X451595D01*
X451595Y264960D01*
Y281040D01*
X440516D01*
Y264960D01*
X441936D01*
Y263944D01*
X442250Y262368D01*
X443143Y261032D01*
X452087Y252087D01*
X452425Y251862D01*
X452711Y251575D01*
X453086Y251420D01*
X453424Y251194D01*
X453821Y251115D01*
X454196Y250960D01*
X454602D01*
X455000Y250881D01*
X455398Y250960D01*
X455804D01*
X456179Y251115D01*
X456576Y251194D01*
X456914Y251420D01*
X457289Y251575D01*
X457575Y251862D01*
X457913Y252087D01*
X458138Y252425D01*
X458425Y252712D01*
X458580Y253086D01*
X458647Y253186D01*
X459834Y253008D01*
X459917Y252975D01*
Y204944D01*
X460308Y202978D01*
X461422Y201311D01*
X476366Y186366D01*
X478033Y185252D01*
X480000Y184861D01*
X481967Y185252D01*
X483634Y186366D01*
X484748Y188034D01*
X485139Y190000D01*
X484748Y191966D01*
X483634Y193634D01*
X470194Y207073D01*
Y264960D01*
X470596D01*
Y281040D01*
D02*
G37*
G36*
X372207Y305040D02*
X361127D01*
Y288960D01*
X362038D01*
Y281040D01*
X351627D01*
Y264960D01*
X352538D01*
Y259084D01*
X351727Y258273D01*
X350723Y256771D01*
X350371Y255000D01*
X350723Y253229D01*
X351727Y251727D01*
X353229Y250723D01*
X355000Y250371D01*
X356771Y250723D01*
X358273Y251727D01*
X360440Y253893D01*
X360440Y253894D01*
X361443Y255395D01*
X362853Y255974D01*
X363229Y255723D01*
X365000Y255371D01*
X366771Y255723D01*
X368273Y256727D01*
X369940Y258393D01*
X370943Y259895D01*
X371296Y261667D01*
X371296Y261667D01*
Y264960D01*
X374897D01*
Y273000D01*
Y281040D01*
X371296D01*
Y288960D01*
X372207D01*
Y305040D01*
D02*
G37*
G36*
X549984D02*
X538904D01*
Y288960D01*
X540325D01*
Y281040D01*
X529404D01*
Y264960D01*
X530825D01*
Y261651D01*
X529532Y260357D01*
X529306Y260020D01*
X529020Y259733D01*
X528864Y259358D01*
X528639Y259021D01*
X528560Y258623D01*
X528404Y258248D01*
Y257842D01*
X528325Y257444D01*
X528404Y257047D01*
Y256641D01*
X528560Y256266D01*
X528639Y255868D01*
X528864Y255531D01*
X529020Y255156D01*
X529306Y254869D01*
X529532Y254532D01*
X529869Y254306D01*
X530156Y254020D01*
X530531Y253864D01*
X530868Y253639D01*
X531266Y253560D01*
X531641Y253404D01*
X532047D01*
X532444Y253325D01*
X532842Y253404D01*
X533248D01*
X533623Y253560D01*
X534021Y253639D01*
X534358Y253864D01*
X534733Y254020D01*
X535020Y254306D01*
X535357Y254532D01*
X537857Y257032D01*
X538750Y258368D01*
X540067Y258477D01*
X540188Y258424D01*
X540343Y258049D01*
X540422Y257652D01*
X540648Y257314D01*
X540803Y256939D01*
X541090Y256653D01*
X541315Y256315D01*
X541653Y256090D01*
X541940Y255803D01*
X542314Y255648D01*
X542652Y255422D01*
X543050Y255343D01*
X543424Y255188D01*
X543830D01*
X544228Y255109D01*
X544626Y255188D01*
X545032D01*
X545406Y255343D01*
X545804Y255422D01*
X546142Y255648D01*
X546516Y255803D01*
X546803Y256090D01*
X547141Y256315D01*
X547357Y256532D01*
X547583Y256869D01*
X547653Y256939D01*
X547691Y257031D01*
X548250Y257868D01*
X548563Y259444D01*
Y264960D01*
X552674D01*
Y273000D01*
Y281040D01*
X548563D01*
Y288960D01*
X549984D01*
Y305040D01*
D02*
G37*
G36*
X905540D02*
X894460D01*
Y288960D01*
X895881D01*
Y281040D01*
X884960D01*
Y264960D01*
X885881D01*
Y255000D01*
X885960Y254602D01*
Y254196D01*
X886115Y253822D01*
X886194Y253424D01*
X886420Y253086D01*
X886575Y252712D01*
X886862Y252425D01*
X887087Y252087D01*
X887425Y251862D01*
X887711Y251575D01*
X888086Y251420D01*
X888424Y251194D01*
X888821Y251115D01*
X889196Y250960D01*
X889602D01*
X890000Y250881D01*
X890398Y250960D01*
X890804D01*
X891179Y251115D01*
X891576Y251194D01*
X891914Y251420D01*
X892289Y251575D01*
X892575Y251862D01*
X892913Y252087D01*
X893138Y252425D01*
X893425Y252712D01*
X893580Y253086D01*
X893806Y253424D01*
X893885Y253822D01*
X894040Y254196D01*
Y254602D01*
X894119Y255000D01*
Y264960D01*
X895881D01*
Y255000D01*
X895960Y254602D01*
Y254196D01*
X896115Y253822D01*
X896194Y253424D01*
X896420Y253086D01*
X896575Y252712D01*
X896862Y252425D01*
X897087Y252087D01*
X897425Y251862D01*
X897711Y251575D01*
X898086Y251420D01*
X898424Y251194D01*
X898821Y251115D01*
X899196Y250960D01*
X899602D01*
X900000Y250881D01*
X900398Y250960D01*
X900804D01*
X901179Y251115D01*
X901576Y251194D01*
X901914Y251420D01*
X902289Y251575D01*
X902575Y251862D01*
X902913Y252087D01*
X903138Y252425D01*
X903425Y252712D01*
X903580Y253086D01*
X903806Y253424D01*
X903885Y253822D01*
X904040Y254196D01*
Y254602D01*
X904119Y255000D01*
Y264960D01*
X908230D01*
Y273000D01*
Y281040D01*
X904119D01*
Y288960D01*
X905540D01*
Y305040D01*
D02*
G37*
G36*
X727762D02*
X716682D01*
Y288960D01*
X718103D01*
Y281040D01*
X707182D01*
Y264960D01*
X708603D01*
Y259428D01*
X707087Y257913D01*
X706862Y257575D01*
X706575Y257288D01*
X706420Y256914D01*
X706194Y256576D01*
X706115Y256178D01*
X705960Y255804D01*
Y255398D01*
X705881Y255000D01*
X705960Y254602D01*
Y254196D01*
X706115Y253822D01*
X706194Y253424D01*
X706420Y253086D01*
X706575Y252712D01*
X706862Y252425D01*
X707087Y252087D01*
X707425Y251862D01*
X707711Y251575D01*
X708086Y251420D01*
X708424Y251194D01*
X708821Y251115D01*
X709196Y250960D01*
X709602D01*
X710000Y250881D01*
X710398Y250960D01*
X710804D01*
X711179Y251115D01*
X711576Y251194D01*
X711914Y251420D01*
X712289Y251575D01*
X712575Y251862D01*
X712913Y252087D01*
X714787Y253961D01*
X715521Y253884D01*
X716170Y253548D01*
X716194Y253424D01*
X716420Y253086D01*
X716575Y252712D01*
X716862Y252425D01*
X717087Y252087D01*
X717425Y251862D01*
X717711Y251575D01*
X718086Y251420D01*
X718424Y251194D01*
X718821Y251115D01*
X719196Y250960D01*
X719602D01*
X720000Y250881D01*
X720398Y250960D01*
X720804D01*
X721179Y251115D01*
X721576Y251194D01*
X721914Y251420D01*
X722289Y251575D01*
X722575Y251862D01*
X722913Y252087D01*
X725135Y254310D01*
X726028Y255646D01*
X726341Y257222D01*
Y264960D01*
X730452D01*
Y273000D01*
Y281040D01*
X726341D01*
Y288960D01*
X727762D01*
Y305040D01*
D02*
G37*
G36*
X629373Y281040D02*
X618293D01*
Y264960D01*
X619714D01*
Y261167D01*
X620028Y259590D01*
X620921Y258254D01*
X627087Y252087D01*
X627425Y251862D01*
X627711Y251575D01*
X628086Y251420D01*
X628424Y251194D01*
X628822Y251115D01*
X629196Y250960D01*
X629602D01*
X630000Y250881D01*
X630398Y250960D01*
X630804D01*
X631179Y251115D01*
X631576Y251194D01*
X631914Y251420D01*
X632289Y251575D01*
X632575Y251862D01*
X632913Y252087D01*
X633138Y252425D01*
X633425Y252712D01*
X633580Y253086D01*
X633806Y253424D01*
X633885Y253822D01*
X634040Y254196D01*
Y254602D01*
X634119Y255000D01*
X634040Y255398D01*
Y255804D01*
X633885Y256178D01*
X633806Y256576D01*
X633580Y256914D01*
X633425Y257288D01*
X633138Y257575D01*
X632913Y257913D01*
X627952Y262873D01*
Y264960D01*
X629373D01*
Y281040D01*
D02*
G37*
G36*
X96040D02*
X84960D01*
Y264960D01*
X85371D01*
Y255000D01*
X85723Y253229D01*
X86727Y251727D01*
X88229Y250723D01*
X90000Y250371D01*
X91771Y250723D01*
X93273Y251727D01*
X94277Y253229D01*
X94629Y255000D01*
Y264960D01*
X96040D01*
Y281040D01*
D02*
G37*
G36*
X273818D02*
X262738D01*
Y264960D01*
X263649D01*
Y261722D01*
X263649Y261722D01*
X264001Y259951D01*
X265005Y258449D01*
X271727Y251727D01*
X273229Y250723D01*
X275000Y250371D01*
X276771Y250723D01*
X278273Y251727D01*
X279277Y253229D01*
X279629Y255000D01*
X279277Y256771D01*
X278273Y258273D01*
X272907Y263640D01*
Y264960D01*
X273818D01*
Y281040D01*
D02*
G37*
G36*
X807151D02*
X796071D01*
Y264960D01*
X797492D01*
Y256611D01*
X797805Y255035D01*
X798698Y253698D01*
X806198Y246198D01*
X806536Y245973D01*
X806823Y245686D01*
X807197Y245531D01*
X807535Y245306D01*
X807933Y245226D01*
X808307Y245071D01*
X808713D01*
X809111Y244992D01*
X809509Y245071D01*
X809915D01*
X810290Y245226D01*
X810687Y245306D01*
X811025Y245531D01*
X811400Y245686D01*
X811686Y245973D01*
X812024Y246198D01*
X812249Y246536D01*
X812536Y246823D01*
X812691Y247197D01*
X812917Y247535D01*
X812996Y247932D01*
X813151Y248307D01*
Y248713D01*
X813230Y249111D01*
X813151Y249509D01*
Y249915D01*
X812996Y250289D01*
X812917Y250687D01*
X812691Y251025D01*
X812536Y251399D01*
X812249Y251686D01*
X812024Y252024D01*
X805730Y258317D01*
Y264960D01*
X807151D01*
Y281040D01*
D02*
G37*
G36*
X292818D02*
X281738D01*
Y264960D01*
X282649D01*
Y262722D01*
X282649Y262722D01*
X283001Y260951D01*
X284005Y259449D01*
X295371Y248083D01*
Y190000D01*
X295723Y188229D01*
X296727Y186727D01*
X298229Y185723D01*
X300000Y185371D01*
X301771Y185723D01*
X303273Y186727D01*
X304277Y188229D01*
X304629Y190000D01*
Y250000D01*
X304629Y250000D01*
X304277Y251771D01*
X303273Y253273D01*
X303273Y253273D01*
X292845Y263701D01*
X292818Y264960D01*
X292818D01*
Y281040D01*
D02*
G37*
G36*
X115040D02*
X103960D01*
Y264960D01*
X104871D01*
Y260500D01*
X104871Y260500D01*
X105223Y258729D01*
X106227Y257227D01*
X110371Y253083D01*
Y190000D01*
X110723Y188229D01*
X111727Y186727D01*
X113229Y185723D01*
X115000Y185371D01*
X116771Y185723D01*
X118273Y186727D01*
X119277Y188229D01*
X119629Y190000D01*
Y255000D01*
X119629Y255000D01*
X119277Y256771D01*
X118273Y258273D01*
X118273Y258273D01*
X114129Y262417D01*
Y264960D01*
X115040D01*
Y281040D01*
D02*
G37*
G36*
X648373D02*
X637293D01*
Y264960D01*
X641106D01*
X649861Y256205D01*
Y190000D01*
X650252Y188034D01*
X651366Y186366D01*
X653034Y185252D01*
X655000Y184861D01*
X656966Y185252D01*
X658634Y186366D01*
X659748Y188034D01*
X660139Y190000D01*
Y258333D01*
X659748Y260300D01*
X658634Y261967D01*
X648373Y272227D01*
Y281040D01*
D02*
G37*
G36*
X826151D02*
X815071D01*
Y264960D01*
X818884D01*
X829861Y253982D01*
Y185000D01*
X830252Y183034D01*
X831366Y181366D01*
X833034Y180252D01*
X835000Y179861D01*
X836966Y180252D01*
X838634Y181366D01*
X839748Y183034D01*
X840139Y185000D01*
Y256111D01*
X839748Y258078D01*
X838634Y259745D01*
X826151Y272227D01*
Y281040D01*
D02*
G37*
G36*
X746388Y105540D02*
X746270D01*
Y96270D01*
X755540D01*
Y96388D01*
X754822Y99068D01*
X753434Y101472D01*
X751472Y103434D01*
X749068Y104822D01*
X746388Y105540D01*
D02*
G37*
G36*
X743730D02*
X743612D01*
X740932Y104822D01*
X738528Y103434D01*
X736566Y101472D01*
X735178Y99068D01*
X734460Y96388D01*
Y96270D01*
X743730D01*
Y105540D01*
D02*
G37*
G36*
X460270Y115968D02*
Y92270D01*
X470135D01*
Y105000D01*
X469756Y107882D01*
X468643Y110568D01*
X466874Y112874D01*
X464568Y114643D01*
X461882Y115756D01*
X460270Y115968D01*
D02*
G37*
G36*
X457730D02*
X456118Y115756D01*
X453432Y114643D01*
X451126Y112874D01*
X449357Y110568D01*
X448244Y107882D01*
X447865Y105000D01*
Y92270D01*
X457730D01*
Y115968D01*
D02*
G37*
G36*
X585000Y189119D02*
X584602Y189040D01*
X584196D01*
X583821Y188885D01*
X583424Y188806D01*
X583086Y188580D01*
X582711Y188425D01*
X582425Y188138D01*
X582087Y187913D01*
X581862Y187575D01*
X581575Y187288D01*
X581420Y186914D01*
X581194Y186576D01*
X581115Y186178D01*
X580960Y185804D01*
Y185398D01*
X580881Y185000D01*
X580960Y184602D01*
Y184196D01*
X581115Y183822D01*
X581194Y183424D01*
X581420Y183086D01*
X581575Y182712D01*
X581862Y182425D01*
X582087Y182087D01*
X642087Y122087D01*
X643424Y121194D01*
X645000Y120881D01*
X789294D01*
X811163Y99011D01*
X810460Y96388D01*
Y93612D01*
X811178Y90932D01*
X812566Y88528D01*
X814528Y86566D01*
X816932Y85178D01*
X819612Y84460D01*
X822388D01*
X825068Y85178D01*
X827472Y86566D01*
X829434Y88528D01*
X830822Y90932D01*
X831540Y93612D01*
Y96388D01*
X830822Y99068D01*
X829434Y101472D01*
X827472Y103434D01*
X825068Y104822D01*
X822388Y105540D01*
X819612D01*
X816989Y104837D01*
X793913Y127913D01*
X792576Y128806D01*
X791000Y129119D01*
X646706D01*
X587913Y187913D01*
X587575Y188138D01*
X587289Y188425D01*
X586914Y188580D01*
X586576Y188806D01*
X586179Y188885D01*
X585804Y189040D01*
X585398D01*
X585000Y189119D01*
D02*
G37*
G36*
X755540Y93730D02*
X746270D01*
Y84460D01*
X746388D01*
X749068Y85178D01*
X751472Y86566D01*
X753434Y88528D01*
X754822Y90932D01*
X755540Y93612D01*
Y93730D01*
D02*
G37*
G36*
X743730D02*
X734460D01*
Y93612D01*
X735178Y90932D01*
X736566Y88528D01*
X738528Y86566D01*
X740932Y85178D01*
X743612Y84460D01*
X743730D01*
Y93730D01*
D02*
G37*
G36*
X470135Y89730D02*
X460270D01*
Y66032D01*
X461882Y66244D01*
X464568Y67357D01*
X466874Y69126D01*
X468643Y71432D01*
X469756Y74118D01*
X470135Y77000D01*
Y89730D01*
D02*
G37*
G36*
X457730D02*
X447865D01*
Y77000D01*
X448244Y74118D01*
X449357Y71432D01*
X451126Y69126D01*
X453432Y67357D01*
X456118Y66244D01*
X457730Y66032D01*
Y89730D01*
D02*
G37*
G36*
X541000Y115135D02*
X538118Y114756D01*
X535432Y113643D01*
X533126Y111874D01*
X531357Y109568D01*
X530244Y106882D01*
X529865Y104000D01*
Y76000D01*
X530244Y73118D01*
X531357Y70432D01*
X533126Y68126D01*
X535432Y66357D01*
X538118Y65244D01*
X541000Y64865D01*
X543882Y65244D01*
X546568Y66357D01*
X548874Y68126D01*
X550643Y70432D01*
X551756Y73118D01*
X552135Y76000D01*
Y104000D01*
X551756Y106882D01*
X550643Y109568D01*
X548874Y111874D01*
X546568Y113643D01*
X543882Y114756D01*
X541000Y115135D01*
D02*
G37*
G36*
X511500Y61135D02*
X501270D01*
Y51270D01*
X522468D01*
X522256Y52882D01*
X521143Y55568D01*
X519374Y57874D01*
X517068Y59643D01*
X514382Y60756D01*
X511500Y61135D01*
D02*
G37*
G36*
X498730D02*
X488500D01*
X485618Y60756D01*
X482932Y59643D01*
X480626Y57874D01*
X478857Y55568D01*
X477744Y52882D01*
X477532Y51270D01*
X498730D01*
Y61135D01*
D02*
G37*
G36*
X522468Y48730D02*
X501270D01*
Y38865D01*
X511500D01*
X514382Y39244D01*
X517068Y40357D01*
X519374Y42126D01*
X521143Y44432D01*
X522256Y47118D01*
X522468Y48730D01*
D02*
G37*
G36*
X498730D02*
X477532D01*
X477744Y47118D01*
X478857Y44432D01*
X480626Y42126D01*
X482932Y40357D01*
X485618Y39244D01*
X488500Y38865D01*
X498730D01*
Y48730D01*
D02*
G37*
G36*
X961728Y67540D02*
X958272D01*
X954884Y66866D01*
X951692Y65544D01*
X948819Y63624D01*
X946376Y61181D01*
X944456Y58308D01*
X943134Y55116D01*
X942460Y51727D01*
Y48273D01*
X943134Y44884D01*
X944456Y41692D01*
X946376Y38819D01*
X948819Y36376D01*
X951692Y34456D01*
X954884Y33134D01*
X958272Y32460D01*
X961728D01*
X965116Y33134D01*
X968308Y34456D01*
X971181Y36376D01*
X973624Y38819D01*
X975544Y41692D01*
X976866Y44884D01*
X977540Y48273D01*
Y51727D01*
X976866Y55116D01*
X975544Y58308D01*
X973624Y61181D01*
X971181Y63624D01*
X968308Y65544D01*
X965116Y66866D01*
X961728Y67540D01*
D02*
G37*
G36*
X51727D02*
X48273D01*
X44884Y66866D01*
X41692Y65544D01*
X38819Y63624D01*
X36376Y61181D01*
X34456Y58308D01*
X33134Y55116D01*
X32460Y51727D01*
Y48273D01*
X33134Y44884D01*
X34456Y41692D01*
X36376Y38819D01*
X38819Y36376D01*
X41692Y34456D01*
X44884Y33134D01*
X48273Y32460D01*
X51727D01*
X55116Y33134D01*
X58308Y34456D01*
X61181Y36376D01*
X63624Y38819D01*
X65544Y41692D01*
X66866Y44884D01*
X67540Y48273D01*
Y51727D01*
X66866Y55116D01*
X65544Y58308D01*
X63624Y61181D01*
X61181Y63624D01*
X58308Y65544D01*
X55116Y66866D01*
X51727Y67540D01*
D02*
G37*
%LPD*%
G36*
X533380Y786500D02*
X533694Y784923D01*
X533770Y784810D01*
Y782634D01*
X534076Y782694D01*
X535000Y783312D01*
X535924Y782694D01*
X537500Y782381D01*
X539076Y782694D01*
X539174Y782759D01*
X539884Y782466D01*
X540177Y781002D01*
X537087Y777913D01*
X536862Y777575D01*
X536575Y777289D01*
X536420Y776914D01*
X536194Y776576D01*
X536115Y776179D01*
X535960Y775804D01*
Y775398D01*
X535881Y775000D01*
X535960Y774602D01*
Y774196D01*
X536115Y773821D01*
X536194Y773424D01*
X536420Y773086D01*
X536575Y772711D01*
X536862Y772425D01*
X537087Y772087D01*
X537425Y771862D01*
X537711Y771575D01*
X538086Y771420D01*
X538424Y771194D01*
X538822Y771115D01*
X539196Y770960D01*
X539602D01*
X540000Y770881D01*
X540398Y770960D01*
X540804D01*
X541179Y771115D01*
X541576Y771194D01*
X541914Y771420D01*
X542289Y771575D01*
X542575Y771862D01*
X542913Y772087D01*
X550413Y779587D01*
X551306Y780924D01*
X551619Y782500D01*
X551674Y782545D01*
X552500Y782381D01*
X554076Y782694D01*
X555000Y783312D01*
X555924Y782694D01*
X557500Y782381D01*
X559076Y782694D01*
X560000Y783312D01*
X560924Y782694D01*
X562500Y782381D01*
X563381Y781658D01*
Y779206D01*
X562087Y777913D01*
X561862Y777575D01*
X561575Y777289D01*
X561420Y776914D01*
X561194Y776576D01*
X561115Y776179D01*
X560960Y775804D01*
Y775398D01*
X560881Y775000D01*
X560960Y774602D01*
Y774196D01*
X561115Y773821D01*
X561194Y773424D01*
X561420Y773086D01*
X561575Y772711D01*
X561862Y772425D01*
X562087Y772087D01*
X562351Y771911D01*
X562705Y771529D01*
X562518Y770288D01*
X562512Y770276D01*
X544587Y752352D01*
X543694Y751015D01*
X543381Y749439D01*
Y718342D01*
X542500Y717619D01*
X540924Y717306D01*
X540000Y716688D01*
X539076Y717306D01*
X537500Y717619D01*
X535924Y717306D01*
X535000Y716688D01*
X534076Y717306D01*
X532500Y717619D01*
X530924Y717306D01*
X530000Y716688D01*
X529076Y717306D01*
X527500Y717619D01*
X525924Y717306D01*
X524587Y716413D01*
X523694Y715076D01*
X523381Y713500D01*
Y708119D01*
X485604D01*
X485118Y709293D01*
X493526Y717701D01*
X506820D01*
X508396Y718015D01*
X508945Y718381D01*
X518500D01*
X520076Y718694D01*
X521413Y719587D01*
X522306Y720924D01*
X522619Y722500D01*
X522306Y724076D01*
X521688Y725000D01*
X522306Y725924D01*
X522619Y727500D01*
X522306Y729076D01*
X521688Y730000D01*
X522306Y730924D01*
X522619Y732500D01*
X522354Y733832D01*
X523484Y734587D01*
X533453Y744556D01*
X534346Y745893D01*
X534659Y747469D01*
Y772714D01*
X534346Y774291D01*
X533453Y775627D01*
X527912Y781168D01*
X528330Y782546D01*
X529076Y782694D01*
X530000Y783312D01*
X530924Y782694D01*
X531230Y782634D01*
Y784810D01*
X531306Y784923D01*
X531620Y786500D01*
Y792000D01*
X533380D01*
Y786500D01*
D02*
G37*
G36*
X524560Y699628D02*
X524587Y699587D01*
X524699Y698453D01*
X485365Y659119D01*
X443675D01*
X443189Y660293D01*
X482777Y699881D01*
X524330D01*
X524560Y699628D01*
D02*
G37*
G36*
X950371Y738083D02*
Y720783D01*
X949101Y720534D01*
X948273Y721773D01*
X901940Y768106D01*
Y782011D01*
X906443D01*
X950371Y738083D01*
D02*
G37*
G36*
X931371Y668531D02*
Y626835D01*
X930198Y626349D01*
X895029Y661517D01*
Y686247D01*
X897486Y687666D01*
X899634Y689814D01*
X901153Y692446D01*
X901940Y695381D01*
Y696303D01*
X903113Y696789D01*
X931371Y668531D01*
D02*
G37*
G36*
X800011Y583443D02*
X799460Y581388D01*
Y578612D01*
X800178Y575932D01*
X801566Y573528D01*
X801832Y573262D01*
X801346Y572089D01*
X762408D01*
X751224Y583273D01*
X749722Y584277D01*
X747951Y584629D01*
X747951Y584629D01*
X699498D01*
X698434Y586472D01*
X698168Y586738D01*
X698654Y587911D01*
X795543D01*
X800011Y583443D01*
D02*
G37*
G36*
X600011D02*
X599460Y581388D01*
Y578612D01*
X600178Y575932D01*
X601566Y573528D01*
X601832Y573262D01*
X601346Y572089D01*
X512408D01*
X506224Y578273D01*
X504722Y579277D01*
X502951Y579629D01*
X502951Y579629D01*
X400540D01*
Y581388D01*
X399822Y584068D01*
X398434Y586472D01*
X398168Y586738D01*
X398654Y587911D01*
X595543D01*
X600011Y583443D01*
D02*
G37*
G36*
X300011D02*
X299460Y581388D01*
Y578612D01*
X300178Y575932D01*
X301566Y573528D01*
X303528Y571566D01*
X304683Y570899D01*
X304343Y569629D01*
X226917D01*
X213273Y583273D01*
X211771Y584277D01*
X210000Y584629D01*
X210000Y584629D01*
X199498D01*
X198434Y586472D01*
X198168Y586738D01*
X198654Y587911D01*
X295543D01*
X300011Y583443D01*
D02*
G37*
G36*
X757217Y564187D02*
X757217Y564187D01*
X758337Y563439D01*
X757952Y562169D01*
X679999D01*
X679614Y563439D01*
X680733Y564187D01*
X686557Y570011D01*
X688612Y569460D01*
X691388D01*
X694068Y570178D01*
X696472Y571566D01*
X698434Y573528D01*
X699498Y575371D01*
X746033D01*
X757217Y564187D01*
D02*
G37*
G36*
X396476Y570723D02*
X398247Y570371D01*
X398247Y570371D01*
X501033D01*
X507217Y564187D01*
X507218Y564187D01*
X508719Y563183D01*
X510491Y562831D01*
X510491Y562831D01*
X657952D01*
X658337Y561561D01*
X657217Y560813D01*
X657217Y560813D01*
X646033Y549629D01*
X601998D01*
X600934Y551472D01*
X598972Y553434D01*
X596568Y554822D01*
X593888Y555540D01*
X591112D01*
X588432Y554822D01*
X586028Y553434D01*
X584066Y551472D01*
X583002Y549629D01*
X547568D01*
X543384Y553813D01*
X541883Y554817D01*
X540111Y555169D01*
X540111Y555169D01*
X498427D01*
X492783Y560813D01*
X491281Y561817D01*
X489509Y562169D01*
X489509Y562169D01*
X367242D01*
X366756Y563342D01*
X372785Y569371D01*
X390000D01*
X390447Y569460D01*
X391388D01*
X394068Y570178D01*
X395798Y571177D01*
X396476Y570723D01*
D02*
G37*
G36*
X490161Y550342D02*
X489675Y549169D01*
X417264D01*
X415934Y551472D01*
X415668Y551738D01*
X416154Y552911D01*
X487592D01*
X490161Y550342D01*
D02*
G37*
G36*
X782511Y548443D02*
X781960Y546388D01*
Y543612D01*
X782678Y540932D01*
X784066Y538528D01*
X784332Y538262D01*
X783846Y537089D01*
X762408D01*
X751224Y548273D01*
X749722Y549277D01*
X747951Y549629D01*
X747951Y549629D01*
X716998D01*
X715934Y551472D01*
X715668Y551738D01*
X716154Y552911D01*
X778043D01*
X782511Y548443D01*
D02*
G37*
G36*
X542378Y541727D02*
X542378Y541727D01*
X543880Y540723D01*
X545651Y540371D01*
X545651Y540371D01*
X583002D01*
X584066Y538528D01*
X584332Y538262D01*
X583846Y537089D01*
X536427D01*
X528778Y544738D01*
X529264Y545911D01*
X538194D01*
X542378Y541727D01*
D02*
G37*
G36*
X399332Y551738D02*
X399066Y551472D01*
X397678Y549068D01*
X396960Y546388D01*
Y543612D01*
X397511Y541557D01*
X393043Y537089D01*
X301154D01*
X300668Y538262D01*
X300934Y538528D01*
X302322Y540932D01*
X303040Y543612D01*
Y546388D01*
X302489Y548443D01*
X306957Y552911D01*
X398846D01*
X399332Y551738D01*
D02*
G37*
G36*
X282511Y548443D02*
X281960Y546388D01*
Y543612D01*
X282678Y540932D01*
X284066Y538528D01*
X284332Y538262D01*
X283846Y537089D01*
X262408D01*
X251224Y548273D01*
X249722Y549277D01*
X247951Y549629D01*
X247951Y549629D01*
X216998D01*
X215934Y551472D01*
X215668Y551738D01*
X216154Y552911D01*
X278043D01*
X282511Y548443D01*
D02*
G37*
G36*
X531236Y529187D02*
X531236Y529187D01*
X532738Y528183D01*
X534510Y527831D01*
X637791D01*
X637916Y526561D01*
X636687Y526317D01*
X635185Y525313D01*
X635185Y525313D01*
X614501Y504629D01*
X601998D01*
X600934Y506472D01*
X598972Y508434D01*
X596568Y509822D01*
X593888Y510540D01*
X591112D01*
X588432Y509822D01*
X586028Y508434D01*
X584066Y506472D01*
X583002Y504629D01*
X477999D01*
X457315Y525313D01*
X455813Y526317D01*
X454042Y526669D01*
X454042Y526669D01*
X395628D01*
X395503Y527939D01*
X396731Y528183D01*
X398233Y529187D01*
X404057Y535011D01*
X406112Y534460D01*
X408888D01*
X411568Y535178D01*
X413972Y536566D01*
X415934Y538528D01*
X416732Y539911D01*
X481987D01*
X482460Y538770D01*
Y531230D01*
X486230Y527460D01*
X493770D01*
X497540Y531230D01*
Y538770D01*
X498013Y539911D01*
X502663D01*
X503396Y538641D01*
X502974Y537910D01*
X502534Y536270D01*
X517466D01*
X517026Y537910D01*
X516604Y538641D01*
X517337Y539911D01*
X520512D01*
X531236Y529187D01*
D02*
G37*
G36*
X757217D02*
X757217Y529187D01*
X758719Y528183D01*
X759948Y527939D01*
X759823Y526669D01*
X644564D01*
X644438Y527939D01*
X645667Y528183D01*
X647169Y529187D01*
X658353Y540371D01*
X698002D01*
X699066Y538528D01*
X701028Y536566D01*
X703432Y535178D01*
X706112Y534460D01*
X708888D01*
X711568Y535178D01*
X713972Y536566D01*
X715934Y538528D01*
X716998Y540371D01*
X746033D01*
X757217Y529187D01*
D02*
G37*
G36*
X313997Y526561D02*
X312769Y526317D01*
X311267Y525313D01*
X311267Y525313D01*
X295943Y509989D01*
X293888Y510540D01*
X291112D01*
X289057Y509989D01*
X273733Y525313D01*
X272231Y526317D01*
X271003Y526561D01*
X271128Y527831D01*
X313872D01*
X313997Y526561D01*
D02*
G37*
G36*
X463735Y505801D02*
X463249Y504627D01*
X416998D01*
X415934Y506470D01*
X413972Y508433D01*
X411568Y509820D01*
X408888Y510538D01*
X406112D01*
X403432Y509820D01*
X401028Y508433D01*
X399066Y506470D01*
X397678Y504067D01*
X396960Y501386D01*
Y498611D01*
X397511Y496555D01*
X383544Y482589D01*
X362201D01*
X361832Y483804D01*
X362775Y484434D01*
X365566Y487225D01*
X367759Y490508D01*
X369270Y494155D01*
X370040Y498026D01*
Y501974D01*
X369270Y505845D01*
X367759Y509492D01*
X365566Y512775D01*
X362775Y515566D01*
X361832Y516196D01*
X362201Y517411D01*
X452124D01*
X463735Y505801D01*
D02*
G37*
G36*
X782511Y503443D02*
X781960Y501388D01*
Y500300D01*
X780690Y499774D01*
X777192Y503271D01*
X775691Y504275D01*
X773919Y504627D01*
X773919Y504627D01*
X716998D01*
X715934Y506470D01*
X713972Y508433D01*
X711568Y509820D01*
X708888Y510538D01*
X706112D01*
X703432Y509820D01*
X701028Y508433D01*
X699066Y506470D01*
X697678Y504067D01*
X696960Y501386D01*
Y498611D01*
X697511Y496555D01*
X683544Y482589D01*
X662201D01*
X661832Y483804D01*
X662775Y484434D01*
X665566Y487225D01*
X667759Y490508D01*
X669270Y494155D01*
X670040Y498026D01*
Y501974D01*
X669270Y505845D01*
X667759Y509492D01*
X665566Y512775D01*
X662775Y515566D01*
X661832Y516196D01*
X662201Y517411D01*
X768543D01*
X782511Y503443D01*
D02*
G37*
G36*
X630842Y506116D02*
X630730Y505845D01*
X629960Y501974D01*
Y498026D01*
X630730Y494155D01*
X632241Y490508D01*
X634434Y487225D01*
X637225Y484434D01*
X638168Y483804D01*
X637799Y482589D01*
X491554D01*
X479945Y494198D01*
X480431Y495371D01*
X583002D01*
X584066Y493528D01*
X586028Y491566D01*
X588432Y490178D01*
X591112Y489460D01*
X593888D01*
X596568Y490178D01*
X598972Y491566D01*
X600934Y493528D01*
X601998Y495371D01*
X616418D01*
X616418Y495371D01*
X618190Y495723D01*
X619691Y496727D01*
X629786Y506822D01*
X630842Y506116D01*
D02*
G37*
G36*
X486363Y474687D02*
X486363Y474687D01*
X487865Y473683D01*
X489636Y473331D01*
X489637Y473331D01*
X659823D01*
X659948Y472061D01*
X658719Y471817D01*
X657217Y470813D01*
X657217Y470813D01*
X646033Y459629D01*
X601998D01*
X600934Y461472D01*
X598972Y463434D01*
X596568Y464822D01*
X593888Y465540D01*
X591112D01*
X588432Y464822D01*
X586028Y463434D01*
X584066Y461472D01*
X582678Y459068D01*
X582148Y457089D01*
X517337D01*
X516604Y458359D01*
X517026Y459090D01*
X517540Y461007D01*
Y462993D01*
X517026Y464910D01*
X516034Y466630D01*
X514630Y468033D01*
X512910Y469026D01*
X510993Y469540D01*
X509007D01*
X507090Y469026D01*
X505370Y468033D01*
X503966Y466630D01*
X502974Y464910D01*
X502460Y462993D01*
Y461007D01*
X502974Y459090D01*
X503396Y458359D01*
X502663Y457089D01*
X498013D01*
X497540Y458230D01*
Y465770D01*
X493770Y469540D01*
X486230D01*
X482460Y465770D01*
Y458230D01*
X481987Y457089D01*
X446679D01*
X432954Y470813D01*
X431453Y471817D01*
X429681Y472169D01*
X429681Y472169D01*
X386129D01*
X386004Y473439D01*
X387233Y473683D01*
X388735Y474687D01*
X404057Y490009D01*
X406112Y489458D01*
X408888D01*
X411568Y490177D01*
X413972Y491564D01*
X415934Y493527D01*
X416998Y495369D01*
X465681D01*
X486363Y474687D01*
D02*
G37*
G36*
X338168Y516196D02*
X337225Y515566D01*
X334434Y512775D01*
X332241Y509492D01*
X330730Y505845D01*
X329960Y501974D01*
Y498026D01*
X330730Y494155D01*
X332241Y490508D01*
X334434Y487225D01*
X337225Y484434D01*
X338168Y483804D01*
X337799Y482589D01*
X297875D01*
X292274Y488190D01*
X292800Y489460D01*
X293888D01*
X296568Y490178D01*
X298972Y491566D01*
X300934Y493528D01*
X302322Y495932D01*
X303040Y498612D01*
Y501388D01*
X302489Y503443D01*
X316457Y517411D01*
X337799D01*
X338168Y516196D01*
D02*
G37*
G36*
X699332Y461738D02*
X699066Y461472D01*
X697678Y459068D01*
X696960Y456388D01*
Y453612D01*
X697511Y451557D01*
X693043Y447089D01*
X601154D01*
X600668Y448262D01*
X600934Y448528D01*
X601998Y450371D01*
X647951D01*
X647951Y450371D01*
X649722Y450723D01*
X651224Y451727D01*
X662408Y462911D01*
X698846D01*
X699332Y461738D01*
D02*
G37*
G36*
X399332D02*
X399066Y461472D01*
X397678Y459068D01*
X396960Y456388D01*
Y453612D01*
X397511Y451557D01*
X393043Y447089D01*
X301154D01*
X300668Y448262D01*
X300934Y448528D01*
X301998Y450371D01*
X347951D01*
X347951Y450371D01*
X349722Y450723D01*
X351224Y451727D01*
X362408Y462911D01*
X398846D01*
X399332Y461738D01*
D02*
G37*
G36*
X782511Y458443D02*
X781960Y456388D01*
Y453612D01*
X782678Y450932D01*
X784066Y448528D01*
X784332Y448262D01*
X783846Y447089D01*
X762408D01*
X751224Y458273D01*
X749722Y459277D01*
X747951Y459629D01*
X747951Y459629D01*
X716998D01*
X715934Y461472D01*
X715668Y461738D01*
X716154Y462911D01*
X778043D01*
X782511Y458443D01*
D02*
G37*
G36*
X441488Y449187D02*
X442727Y448359D01*
X442478Y447089D01*
X421957D01*
X417489Y451557D01*
X418040Y453612D01*
Y456388D01*
X417322Y459068D01*
X415934Y461472D01*
X415668Y461738D01*
X416154Y462911D01*
X427764D01*
X441488Y449187D01*
D02*
G37*
G36*
X282511Y458443D02*
X281960Y456388D01*
Y453612D01*
X282678Y450932D01*
X284066Y448528D01*
X284332Y448262D01*
X283846Y447089D01*
X262408D01*
X251224Y458273D01*
X249722Y459277D01*
X247951Y459629D01*
X247951Y459629D01*
X216998D01*
X215934Y461472D01*
X215668Y461738D01*
X216154Y462911D01*
X278043D01*
X282511Y458443D01*
D02*
G37*
G36*
X757217Y439187D02*
X757217Y439187D01*
X758337Y438439D01*
X757952Y437169D01*
X697499D01*
X697114Y438439D01*
X698233Y439187D01*
X704057Y445011D01*
X706112Y444460D01*
X708888D01*
X711568Y445178D01*
X713972Y446566D01*
X715934Y448528D01*
X716998Y450371D01*
X746033D01*
X757217Y439187D01*
D02*
G37*
G36*
X652652Y436561D02*
X651533Y435813D01*
X651533Y435813D01*
X640348Y424629D01*
X619498D01*
X618434Y426472D01*
X616472Y428434D01*
X614068Y429822D01*
X611388Y430540D01*
X608612D01*
X605932Y429822D01*
X603528Y428434D01*
X601566Y426472D01*
X600502Y424629D01*
X503967D01*
X492783Y435813D01*
X491663Y436561D01*
X492048Y437831D01*
X652267D01*
X652652Y436561D01*
D02*
G37*
%LPC*%
G36*
X517466Y533730D02*
X511270D01*
Y527534D01*
X512910Y527974D01*
X514630Y528966D01*
X516034Y530370D01*
X517026Y532090D01*
X517466Y533730D01*
D02*
G37*
G36*
X508730D02*
X502534D01*
X502974Y532090D01*
X503966Y530370D01*
X505370Y528966D01*
X507090Y527974D01*
X508730Y527534D01*
Y533730D01*
D02*
G37*
%LPD*%
D14*
X527500Y792000D02*
D03*
X537500D02*
D03*
X542500D02*
D03*
X547500D02*
D03*
X552500D02*
D03*
X557500D02*
D03*
X562500D02*
D03*
X567500D02*
D03*
X572500D02*
D03*
X577500D02*
D03*
X582500D02*
D03*
Y708000D02*
D03*
X572500D02*
D03*
X567500D02*
D03*
X557500D02*
D03*
X552500D02*
D03*
X547500D02*
D03*
X542500D02*
D03*
X537500D02*
D03*
X532500D02*
D03*
X527500D02*
D03*
X532500Y792000D02*
D03*
X577500Y708000D02*
D03*
X562500D02*
D03*
D15*
X597000Y777500D02*
D03*
Y767500D02*
D03*
Y762500D02*
D03*
Y757500D02*
D03*
Y752500D02*
D03*
Y747500D02*
D03*
Y742500D02*
D03*
Y737500D02*
D03*
Y732500D02*
D03*
Y727500D02*
D03*
Y722500D02*
D03*
X513000D02*
D03*
Y727500D02*
D03*
Y732500D02*
D03*
Y737500D02*
D03*
Y747500D02*
D03*
Y752500D02*
D03*
Y757500D02*
D03*
Y762500D02*
D03*
Y767500D02*
D03*
Y772500D02*
D03*
Y777500D02*
D03*
X597000Y772500D02*
D03*
X513000Y742500D02*
D03*
D16*
X534944Y273000D02*
D03*
X544444Y297000D02*
D03*
X553944Y273000D02*
D03*
X188889Y297000D02*
D03*
X198389Y273000D02*
D03*
X179389D02*
D03*
X890500D02*
D03*
X900000Y297000D02*
D03*
X909500Y273000D02*
D03*
X801611D02*
D03*
X811111Y297000D02*
D03*
X820611Y273000D02*
D03*
X100000Y297000D02*
D03*
X109500Y273000D02*
D03*
X90500D02*
D03*
X268278D02*
D03*
X277778Y297000D02*
D03*
X287278Y273000D02*
D03*
X357167D02*
D03*
X366667Y297000D02*
D03*
X376167Y273000D02*
D03*
X446055D02*
D03*
X455555Y297000D02*
D03*
X465056Y273000D02*
D03*
X623833D02*
D03*
X633333Y297000D02*
D03*
X642833Y273000D02*
D03*
X712722D02*
D03*
X722222Y297000D02*
D03*
X731722Y273000D02*
D03*
D33*
X630000Y745000D02*
X650000Y765000D01*
Y805000D01*
X615000Y745000D02*
X630000D01*
X607500Y752500D02*
X615000Y745000D01*
X607500Y752500D02*
Y764571D01*
X604571Y767500D02*
X607500Y764571D01*
X597000Y767500D02*
X604571D01*
X607500Y772500D02*
X620000Y760000D01*
X597000Y772500D02*
X607500D01*
X546659Y813730D02*
X551270D01*
X532500Y792000D02*
Y799571D01*
X546659Y813730D01*
X487560Y736772D02*
X493288Y742500D01*
X513000D01*
X500000Y736960D02*
X500540Y737500D01*
X520571D02*
X530540Y747469D01*
X500540Y737500D02*
X520571D01*
X459544Y731236D02*
X480807Y752500D01*
X320000Y705000D02*
X441180D01*
X483679Y747500D01*
X513000D01*
X435000Y665000D02*
X491820Y721820D01*
X432929Y670000D02*
X489749Y726820D01*
X491820Y721820D02*
X506820D01*
X489749Y726820D02*
X504200D01*
X621758Y815000D02*
X691281D01*
X552500Y745743D02*
X621758Y815000D01*
X460003Y757500D02*
X482944D01*
X482944Y757500D02*
X507500D01*
X507500Y757500D01*
X482944D02*
X482944Y757500D01*
X507500Y757500D02*
X513000D01*
X504200Y726820D02*
X504880Y727500D01*
X513000D01*
X506820Y721820D02*
X507500Y722500D01*
X513000D01*
X617500Y777500D02*
X620000Y780000D01*
X597000Y777500D02*
X617500D01*
X60000Y355000D02*
X85000Y330000D01*
X60000Y648243D02*
X81757Y670000D01*
X70000Y370000D02*
X100000Y340000D01*
X70000Y370000D02*
Y638243D01*
X65000Y365000D02*
X95000Y335000D01*
X60000Y355000D02*
Y648243D01*
X65000Y365000D02*
Y645000D01*
X85000Y665000D01*
X70000Y638243D02*
X91757Y660000D01*
X75000Y635000D02*
X95000Y655000D01*
X75000Y380000D02*
Y635000D01*
Y380000D02*
X105000Y350000D01*
X91757Y660000D02*
X437071D01*
X100000Y340000D02*
X905000D01*
X85000Y330000D02*
X380000D01*
X85000Y665000D02*
X435000D01*
X95000Y335000D02*
X740000D01*
X81757Y670000D02*
X432929D01*
X105000Y350000D02*
X515000D01*
X95000Y655000D02*
X487071D01*
X400000Y910000D02*
X435000Y875000D01*
X540000D01*
X580000Y835000D01*
X513000Y823000D02*
X545000Y855000D01*
X545000D01*
X580000Y835000D02*
X650000D01*
X527500Y813000D02*
X529500Y815000D01*
X683185Y827645D02*
X786250D01*
X542645D02*
X683185D01*
X530000Y815000D02*
X542645Y827645D01*
X529500Y815000D02*
X530000D01*
X580000Y810000D02*
X582500Y807500D01*
Y792000D02*
Y807500D01*
X480807Y752500D02*
X513000D01*
X521500Y781754D02*
X530540Y772714D01*
Y747469D02*
Y772714D01*
X521500Y807000D02*
X527500Y813000D01*
X513000Y772500D02*
X522500D01*
X521500Y781754D02*
Y807000D01*
X522500Y772500D02*
X525000Y770000D01*
X552500Y708000D02*
Y745743D01*
X547500Y708000D02*
Y749439D01*
X568539Y770478D01*
X567500Y777500D02*
Y786500D01*
X567500Y786500D02*
Y792000D01*
Y786500D02*
X567500Y786500D01*
X565000Y775000D02*
X567500Y777500D01*
X487071Y655000D02*
X532500Y700429D01*
X437071Y660000D02*
X481071Y704000D01*
X548668Y683668D02*
X555000Y690000D01*
X548668Y677789D02*
Y683668D01*
X555000Y690000D02*
X572071D01*
X582500Y700429D02*
Y708000D01*
X572071Y690000D02*
X582500Y700429D01*
X791000Y125000D02*
X821000Y95000D01*
X645000Y125000D02*
X791000D01*
X585000Y185000D02*
X645000Y125000D01*
X786250Y827645D02*
X882355D01*
X885000Y825000D01*
X310000Y695000D02*
X320000Y705000D01*
X480000Y780000D02*
X492500Y767500D01*
X480000Y780000D02*
Y805000D01*
X492500Y767500D02*
X513000D01*
X460000Y790000D02*
X487500Y762500D01*
X513000D01*
X649858Y850000D02*
X905000D01*
X557500Y708000D02*
Y742500D01*
X585000Y770000D01*
X717500Y732500D02*
X738000Y753000D01*
Y773100D01*
X597000Y732500D02*
X717500D01*
X711960Y737500D02*
X712500Y738040D01*
X597000Y737500D02*
X711960D01*
X812500Y722500D02*
X839600Y749600D01*
X597000Y727500D02*
X747500D01*
X763400Y743400D01*
X597000Y722500D02*
X812500D01*
X763400Y743400D02*
Y773100D01*
X839600Y749600D02*
Y773100D01*
X513000Y777500D02*
Y823000D01*
X547500Y782500D02*
Y792000D01*
X540000Y775000D02*
X547500Y782500D01*
X527500Y792000D02*
Y813000D01*
X472498Y812502D02*
X480000Y805000D01*
X790000Y290000D02*
X797000Y297000D01*
X905000Y340000D02*
X925000Y320000D01*
X740000Y335000D02*
X750000Y325000D01*
X380000Y330000D02*
X390000Y320000D01*
X532500Y700429D02*
Y708000D01*
X527500Y704000D02*
Y708000D01*
X481071Y704000D02*
X527500D01*
X925000Y255000D02*
Y320000D01*
X750000Y250000D02*
Y325000D01*
X390000Y250000D02*
Y320000D01*
X900000Y255000D02*
Y297000D01*
X900000Y297000D02*
X900000Y297000D01*
X890000Y255000D02*
Y272500D01*
X890500Y273000D01*
X801611Y256611D02*
Y273000D01*
Y256611D02*
X809111Y249111D01*
X797000Y297000D02*
X811111D01*
X720000Y255000D02*
X722222Y257222D01*
Y297000D01*
X712722Y257722D02*
Y273000D01*
X710000Y255000D02*
X712722Y257722D01*
X610000Y285000D02*
X622000Y297000D01*
X633333D01*
X441094Y296094D02*
X454649D01*
X435000Y290000D02*
X441094Y296094D01*
X454649D02*
X455555Y297000D01*
X544228Y259228D02*
X544444Y259444D01*
Y297000D01*
X623833Y261167D02*
X630000Y255000D01*
X623833Y261167D02*
Y273000D01*
X534944Y259944D02*
Y273000D01*
X532444Y257444D02*
X534944Y259944D01*
X446055Y263944D02*
Y273000D01*
Y263944D02*
X455000Y255000D01*
D34*
X431141Y675000D02*
X487761Y731620D01*
X502212D01*
X503092Y732500D02*
X513000D01*
X502212Y731620D02*
X503092Y732500D01*
X55200Y651988D02*
X78212Y675000D01*
X55200Y353012D02*
Y651988D01*
Y353012D02*
X83012Y325200D01*
X78212Y675000D02*
X431141D01*
X83012Y325200D02*
X199800D01*
X210000Y315000D01*
Y245000D02*
Y315000D01*
D35*
X20000Y130000D02*
Y865000D01*
X125000Y25000D02*
X325000D01*
X20000Y130000D02*
X125000Y25000D01*
X35000Y140000D02*
Y705000D01*
Y140000D02*
X90000Y85000D01*
X150000D01*
X45000Y715000D02*
X330500D01*
X35000Y705000D02*
X45000Y715000D01*
X50000Y735000D02*
X140000D01*
X310000Y905000D01*
X20000Y865000D02*
X55000Y900000D01*
X325000Y25000D02*
X357000Y57000D01*
D36*
X820611Y270500D02*
X835000Y256111D01*
X820611Y270500D02*
Y273000D01*
X835000Y185000D02*
Y256111D01*
X642833Y270500D02*
Y273000D01*
Y270500D02*
X655000Y258333D01*
Y190000D02*
Y258333D01*
X465056Y204944D02*
Y273000D01*
Y204944D02*
X480000Y190000D01*
D37*
X757400Y674115D02*
X768307Y663207D01*
X768279Y663179D02*
X768307Y663207D01*
X757400Y674115D02*
Y677500D01*
X738000Y696900D02*
X757400Y677500D01*
X763400Y676600D02*
Y696900D01*
Y676600D02*
X850000Y590000D01*
X814200Y645800D02*
Y696900D01*
X839600Y650429D02*
Y696900D01*
Y650429D02*
X862540Y627489D01*
Y582540D02*
Y627489D01*
X857460Y577460D02*
X862540Y582540D01*
X835491Y577460D02*
X857460D01*
X810000Y580000D02*
X832951D01*
X835491Y577460D01*
X955000Y555000D02*
Y740000D01*
X908360Y786640D02*
X955000Y740000D01*
X878540Y786640D02*
X908360D01*
X865000Y773100D02*
X878540Y786640D01*
X945000Y580000D02*
Y718500D01*
X890400Y773100D02*
X945000Y718500D01*
X865000Y696900D02*
Y700000D01*
X875440Y710440D02*
X896008D01*
X865000Y700000D02*
X875440Y710440D01*
X896008D02*
X936000Y670449D01*
Y465766D02*
Y670449D01*
X906285Y436051D02*
X936000Y465766D01*
X826051Y436051D02*
X906285D01*
X810000Y420000D02*
X826051Y436051D01*
X930000Y477500D02*
Y620000D01*
X907500Y455000D02*
X930000Y477500D01*
X890400Y659600D02*
X930000Y620000D01*
X890400Y659600D02*
Y696900D01*
X817734Y590000D02*
X850000D01*
X809194Y598540D02*
X817734Y590000D01*
X690000Y580000D02*
X747951D01*
X760491Y567460D02*
X877460D01*
X747951Y580000D02*
X760491Y567460D01*
X155343Y575000D02*
X172882Y592540D01*
X118247Y575000D02*
X155343D01*
X113247Y580000D02*
X118247Y575000D01*
X110000Y580000D02*
X113247D01*
X358485Y575000D02*
X376025Y592540D01*
X318247Y575000D02*
X358485D01*
X376025Y592540D02*
X597460D01*
X351205Y591205D02*
X366205D01*
X373540Y598540D02*
X609194D01*
X317734Y590000D02*
X350000D01*
X366205Y591205D02*
X373540Y598540D01*
X350000Y590000D02*
X351205Y591205D01*
X310000Y580000D02*
X313247D01*
X318247Y575000D01*
X297460Y592540D02*
X310000Y580000D01*
X390000D02*
X393247D01*
X398247Y575000D02*
X502951D01*
X510491Y567460D01*
X393247Y580000D02*
X398247Y575000D01*
X210000Y580000D02*
X225000Y565000D01*
X361867D02*
X370867Y574000D01*
X225000Y565000D02*
X361867D01*
X673540Y598540D02*
X809194D01*
X665000Y590000D02*
X673540Y598540D01*
X667266Y575000D02*
X684806Y592540D01*
X797460D01*
X650000Y590000D02*
X665000D01*
X610000Y580000D02*
X613247D01*
X618247Y575000D01*
X667266D01*
X707500Y545000D02*
X747951D01*
X760491Y532460D01*
X894960D01*
X907500Y545000D01*
X545651D02*
X647951D01*
X407500D02*
X407960Y544540D01*
X522430D01*
X534510Y532460D01*
X643896D01*
X656436Y545000D01*
X707500D01*
X496509Y550540D02*
X540111D01*
X489509Y557540D02*
X496509Y550540D01*
X540111D02*
X545651Y545000D01*
X795957Y477960D02*
X885462D01*
X773919Y499998D02*
X795957Y477960D01*
X707500Y499998D02*
X773919D01*
X885462Y477960D02*
X907500Y499998D01*
X747951Y455000D02*
X760491Y442460D01*
X894960D01*
X707500Y455000D02*
X747951D01*
X894960Y442460D02*
X907500Y455000D01*
X797460Y432540D02*
X810000Y420000D01*
X654806Y432540D02*
X797460D01*
X642266Y420000D02*
X654806Y432540D01*
X610000Y420000D02*
X642266D01*
X770460Y522040D02*
X792500Y500000D01*
X638458Y522040D02*
X770460D01*
X616418Y500000D02*
X638458Y522040D01*
X592500Y500000D02*
X616418D01*
X660491Y557540D02*
X779960D01*
X792500Y545000D01*
X647951D02*
X660491Y557540D01*
X420040Y442460D02*
X694960D01*
X589253Y455000D02*
X592500D01*
X586713Y452460D02*
X589253Y455000D01*
X444761Y452460D02*
X586713D01*
X429681Y467540D02*
X444761Y452460D01*
X360491Y467540D02*
X429681D01*
X347951Y455000D02*
X360491Y467540D01*
X292500Y455000D02*
X347951D01*
X407500D02*
X420040Y442460D01*
X685462Y477960D02*
X707500Y499998D01*
X489636Y477960D02*
X685462D01*
X467598Y499998D02*
X489636Y477960D01*
X407500Y499998D02*
X467598D01*
X694960Y442460D02*
X707500Y455000D01*
X310000Y420000D02*
X322540Y432540D01*
X489509D01*
X502049Y420000D01*
X610000D01*
X660491Y467540D02*
X779960D01*
X592500Y455000D02*
X647951D01*
X660491Y467540D01*
X779960D02*
X792500Y455000D01*
X292500Y500000D02*
X314540Y522040D01*
X454042D01*
X476082Y500000D01*
X592500D01*
X292500Y545000D02*
X305040Y557540D01*
X489509D01*
X877460Y567460D02*
X890000Y580000D01*
X797460Y592540D02*
X810000Y580000D01*
X609194Y598540D02*
X617734Y590000D01*
X370867Y574000D02*
X390000D01*
X597460Y592540D02*
X610000Y580000D01*
X390000Y574000D02*
Y580000D01*
X247951Y545000D02*
X260491Y532460D01*
X207500Y545000D02*
X247951D01*
X260491Y532460D02*
X394960D01*
X407500Y545000D01*
X510491Y567460D02*
X677460D01*
X690000Y580000D01*
X385462Y477960D02*
X407500Y499998D01*
X295957Y477960D02*
X385462D01*
X273919Y499998D02*
X295957Y477960D01*
X207500Y499998D02*
X273919D01*
X207500Y455000D02*
X247951D01*
X260491Y442460D01*
X394960D01*
X407500Y455000D01*
X160491Y467540D02*
X279960D01*
X154806Y432540D02*
X297460D01*
X279960Y467540D02*
X292500Y455000D01*
X142266Y420000D02*
X154806Y432540D01*
X147951Y455000D02*
X160491Y467540D01*
X297460Y432540D02*
X310000Y420000D01*
X110000D02*
X142266D01*
X92500Y455000D02*
X147951D01*
X270460Y522040D02*
X292500Y500000D01*
X138458Y522040D02*
X270460D01*
X116418Y500000D02*
X138458Y522040D01*
X92500Y500000D02*
X116418D01*
X160491Y557540D02*
X279960D01*
X292500Y545000D01*
X147951D02*
X160491Y557540D01*
X92500Y545000D02*
X147951D01*
X309194Y598540D02*
X317734Y590000D01*
X172882Y592540D02*
X297460D01*
X152719Y590000D02*
X161259Y598540D01*
X309194D01*
X150000Y590000D02*
X152719D01*
X190000Y580000D02*
X210000D01*
X617734Y590000D02*
X650000D01*
X90000Y295000D02*
X92000Y297000D01*
X100000D01*
X90000Y255000D02*
Y272500D01*
X90500Y273000D01*
X300000Y190000D02*
Y250000D01*
X366667Y261667D02*
Y297000D01*
X365000Y260000D02*
X366667Y261667D01*
X355000Y255000D02*
X357167Y257167D01*
Y273000D01*
X109500Y260500D02*
X115000Y255000D01*
Y190000D02*
Y255000D01*
X109500Y260500D02*
Y273000D01*
X287278Y262722D02*
X300000Y250000D01*
X287278Y262722D02*
Y273000D01*
X268278Y261722D02*
Y273000D01*
Y261722D02*
X275000Y255000D01*
X262000Y297000D02*
X277778D01*
X255000Y290000D02*
X262000Y297000D01*
X176889Y253111D02*
X179389Y255611D01*
Y273000D01*
X188889Y263889D02*
Y297000D01*
X186889Y261889D02*
X188889Y263889D01*
D38*
X510000Y462000D02*
D03*
Y535000D02*
D03*
D39*
X490000Y462000D02*
D03*
Y535000D02*
D03*
D40*
X110000Y580000D02*
D03*
X190000D02*
D03*
Y420000D02*
D03*
X110000D02*
D03*
X92500Y545000D02*
D03*
Y455000D02*
D03*
X207500D02*
D03*
Y545000D02*
D03*
Y499998D02*
D03*
X92500Y500000D02*
D03*
X150000Y410000D02*
D03*
Y590000D02*
D03*
X310000Y580000D02*
D03*
X390000D02*
D03*
Y420000D02*
D03*
X310000D02*
D03*
X292500Y545000D02*
D03*
Y455000D02*
D03*
X407500D02*
D03*
Y545000D02*
D03*
Y499998D02*
D03*
X292500Y500000D02*
D03*
X350000Y410000D02*
D03*
Y590000D02*
D03*
X745000Y95000D02*
D03*
X821000D02*
D03*
X850000Y590000D02*
D03*
Y410000D02*
D03*
X792500Y500000D02*
D03*
X907500Y499998D02*
D03*
Y545000D02*
D03*
Y455000D02*
D03*
X792500D02*
D03*
Y545000D02*
D03*
X810000Y420000D02*
D03*
X890000D02*
D03*
Y580000D02*
D03*
X810000D02*
D03*
X650000Y590000D02*
D03*
Y410000D02*
D03*
X592500Y500000D02*
D03*
X707500Y499998D02*
D03*
Y545000D02*
D03*
Y455000D02*
D03*
X592500D02*
D03*
Y545000D02*
D03*
X610000Y420000D02*
D03*
X690000D02*
D03*
Y580000D02*
D03*
X610000D02*
D03*
X345000Y905000D02*
D03*
D41*
X150000Y500000D02*
D03*
X350000D02*
D03*
X850000D02*
D03*
X650000D02*
D03*
D42*
X50000Y50000D02*
D03*
X960000Y950000D02*
D03*
Y50000D02*
D03*
D43*
X459000Y91000D02*
D03*
X541000Y90000D02*
D03*
D44*
X500000Y50000D02*
D03*
D45*
X890400Y773100D02*
D03*
D46*
X865000D02*
D03*
X839600D02*
D03*
X814200D02*
D03*
X788800D02*
D03*
X763400D02*
D03*
X738000D02*
D03*
X714186Y773371D02*
D03*
X865000Y696900D02*
D03*
X839600D02*
D03*
X814200D02*
D03*
X763400D02*
D03*
X738000D02*
D03*
X712600D02*
D03*
X890400D02*
D03*
X788800D02*
D03*
D47*
X671047Y939416D02*
D03*
X716047D02*
D03*
X671047Y874416D02*
D03*
X716047D02*
D03*
X873000Y941000D02*
D03*
X918000D02*
D03*
X873000Y876000D02*
D03*
X918000D02*
D03*
X772026Y941000D02*
D03*
X817026D02*
D03*
X772026Y876000D02*
D03*
X817026D02*
D03*
D48*
X310000Y905000D02*
D03*
D49*
X551270Y816270D02*
D03*
X487560Y736772D02*
D03*
X620000Y760000D02*
D03*
X885000Y825000D02*
D03*
X786250Y827645D02*
D03*
X683185D02*
D03*
X90000Y295000D02*
D03*
D50*
X500000Y736960D02*
D03*
X400000Y910000D02*
D03*
X545000Y855000D02*
D03*
X650000Y835000D02*
D03*
Y805000D02*
D03*
X580000Y810000D02*
D03*
X459544Y731236D02*
D03*
X525000Y770000D02*
D03*
X568539Y770478D02*
D03*
X565000Y775000D02*
D03*
X50000Y735000D02*
D03*
X515000Y350000D02*
D03*
X585000Y185000D02*
D03*
X310000Y695000D02*
D03*
X330500Y715000D02*
D03*
X691281Y815000D02*
D03*
X750000Y250000D02*
D03*
X925000Y255000D02*
D03*
X835000Y185000D02*
D03*
X655000Y190000D02*
D03*
X480000D02*
D03*
X390000Y250000D02*
D03*
X210000Y245000D02*
D03*
X905000Y850000D02*
D03*
X649858D02*
D03*
X585000Y770000D02*
D03*
X712500Y738040D02*
D03*
X768279Y663179D02*
D03*
X814200Y645800D02*
D03*
X955000Y555000D02*
D03*
X945000Y580000D02*
D03*
X540000Y775000D02*
D03*
X548668Y677789D02*
D03*
X529500Y815000D02*
D03*
X620000Y780000D02*
D03*
X460000Y790000D02*
D03*
X472498Y812502D02*
D03*
X790000Y290000D02*
D03*
X55000Y900000D02*
D03*
X357000Y57000D02*
D03*
X150000Y85000D02*
D03*
X460003Y757500D02*
D03*
X900000Y255000D02*
D03*
X890000D02*
D03*
X809111Y249111D02*
D03*
X720000Y255000D02*
D03*
X710000D02*
D03*
X610000Y285000D02*
D03*
X435000Y290000D02*
D03*
X544228Y259228D02*
D03*
X630000Y255000D02*
D03*
X532444Y257444D02*
D03*
X455000Y255000D02*
D03*
X300000Y190000D02*
D03*
X365000Y260000D02*
D03*
X355000Y255000D02*
D03*
X115000Y190000D02*
D03*
X275000Y255000D02*
D03*
X255000Y290000D02*
D03*
X176889Y253111D02*
D03*
X186889Y261889D02*
D03*
X90000Y255000D02*
D03*
M02*
