G04*
G04 #@! TF.GenerationSoftware,Altium Limited,Altium Designer,23.1.1 (15)*
G04*
G04 Layer_Color=32896*
%FSLAX44Y44*%
%MOMM*%
G71*
G04*
G04 #@! TF.SameCoordinates,57464860-8124-4CEE-8048-BAEBFFAEA9BF*
G04*
G04*
G04 #@! TF.FilePolarity,Positive*
G04*
G01*
G75*
%ADD10C,0.2540*%
%ADD11C,0.2500*%
%ADD12C,0.2000*%
%ADD79C,0.5000*%
%ADD80C,0.1000*%
G36*
X332500Y945000D02*
Y865000D01*
X340500Y867000D01*
X348000Y870500D01*
X353750Y875000D01*
X358750Y880000D01*
X363250Y887250D01*
X366000Y894000D01*
X367500Y901750D01*
X367250Y909250D01*
X366000Y916250D01*
X363000Y923500D01*
X359500Y929000D01*
X354500Y934500D01*
X348750Y938750D01*
X339750Y943000D01*
X332500Y945000D01*
D02*
G37*
D10*
X370332Y139187D02*
Y123952D01*
X362715D01*
X360175Y126491D01*
Y136648D01*
X362715Y139187D01*
X370332D01*
X355097Y123952D02*
Y134109D01*
X350019Y139187D01*
X344940Y134109D01*
Y123952D01*
Y131569D01*
X355097D01*
X339862Y123952D02*
X334784D01*
X337323D01*
Y139187D01*
X339862Y136648D01*
X250955Y139442D02*
X253494Y141981D01*
X258573D01*
X261112Y139442D01*
Y129285D01*
X258573Y126746D01*
X253494D01*
X250955Y129285D01*
X245877Y126746D02*
X240799D01*
X243338D01*
Y141981D01*
X245877Y139442D01*
X233181Y141981D02*
X223024D01*
Y139442D01*
X233181Y129285D01*
Y126746D01*
X198887Y110078D02*
X201426Y112618D01*
X206505D01*
X209044Y110078D01*
Y99922D01*
X206505Y97382D01*
X201426D01*
X198887Y99922D01*
X193809Y97382D02*
X188730D01*
X191269D01*
Y112618D01*
X193809Y110078D01*
X170956Y112618D02*
X176035Y110078D01*
X181113Y105000D01*
Y99922D01*
X178574Y97382D01*
X173495D01*
X170956Y99922D01*
Y102461D01*
X173495Y105000D01*
X181113D01*
X413887Y105078D02*
X416426Y107618D01*
X421505D01*
X424044Y105078D01*
Y94922D01*
X421505Y92382D01*
X416426D01*
X413887Y94922D01*
X408809Y92382D02*
X403730D01*
X406269D01*
Y107618D01*
X408809Y105078D01*
X385956Y107618D02*
X396113D01*
Y100000D01*
X391035Y102539D01*
X388495D01*
X385956Y100000D01*
Y94922D01*
X388495Y92382D01*
X393574D01*
X396113Y94922D01*
X472696Y717617D02*
X462539D01*
Y715078D01*
X472696Y704922D01*
Y702383D01*
X462539D01*
X447304D02*
X457461D01*
X447304Y712539D01*
Y715078D01*
X449843Y717617D01*
X454922D01*
X457461Y715078D01*
X580157Y97618D02*
X570000Y82382D01*
Y97618D02*
X580157Y82382D01*
X564922D02*
X559843D01*
X562382D01*
Y97618D01*
X564922Y95078D01*
X894657Y973578D02*
X897196Y976117D01*
X902274D01*
X904813Y973578D01*
Y971039D01*
X902274Y968500D01*
X897196D01*
X894657Y965961D01*
Y963422D01*
X897196Y960882D01*
X902274D01*
X904813Y963422D01*
X889578Y976117D02*
Y960882D01*
X884500Y965961D01*
X879422Y960882D01*
Y976117D01*
X874343Y973578D02*
X871804Y976117D01*
X866726D01*
X864187Y973578D01*
Y971039D01*
X866726Y968500D01*
X869265D01*
X866726D01*
X864187Y965961D01*
Y963422D01*
X866726Y960882D01*
X871804D01*
X874343Y963422D01*
X788183Y975078D02*
X790722Y977617D01*
X795801D01*
X798340Y975078D01*
Y972539D01*
X795801Y970000D01*
X790722D01*
X788183Y967461D01*
Y964922D01*
X790722Y962383D01*
X795801D01*
X798340Y964922D01*
X783105Y977617D02*
Y962383D01*
X778026Y967461D01*
X772948Y962383D01*
Y977617D01*
X757713Y962383D02*
X767870D01*
X757713Y972539D01*
Y975078D01*
X760252Y977617D01*
X765331D01*
X767870Y975078D01*
X686664Y974494D02*
X689203Y977034D01*
X694282D01*
X696821Y974494D01*
Y971955D01*
X694282Y969416D01*
X689203D01*
X686664Y966877D01*
Y964338D01*
X689203Y961798D01*
X694282D01*
X696821Y964338D01*
X681586Y977034D02*
Y961798D01*
X676508Y966877D01*
X671429Y961798D01*
Y977034D01*
X666351Y961798D02*
X661273D01*
X663812D01*
Y977034D01*
X666351Y974494D01*
X872311Y818544D02*
Y833779D01*
X864694D01*
X862154Y831240D01*
Y826162D01*
X864694Y823622D01*
X872311D01*
X867233D02*
X862154Y818544D01*
X846919D02*
X857076D01*
X846919Y828701D01*
Y831240D01*
X849459Y833779D01*
X854537D01*
X857076Y831240D01*
X841841D02*
X839302Y833779D01*
X834223D01*
X831684Y831240D01*
Y828701D01*
X834223Y826162D01*
X836763D01*
X834223D01*
X831684Y823622D01*
Y821083D01*
X834223Y818544D01*
X839302D01*
X841841Y821083D01*
X773557Y819506D02*
Y834741D01*
X765939D01*
X763400Y832202D01*
Y827123D01*
X765939Y824584D01*
X773557D01*
X768478D02*
X763400Y819506D01*
X758322D02*
X753243D01*
X755783D01*
Y834741D01*
X758322Y832202D01*
X745626Y834741D02*
X735469D01*
Y832202D01*
X745626Y822045D01*
Y819506D01*
X668964Y820734D02*
Y835969D01*
X661346D01*
X658807Y833430D01*
Y828352D01*
X661346Y825813D01*
X668964D01*
X663885D02*
X658807Y820734D01*
X643572Y835969D02*
X648650Y833430D01*
X653729Y828352D01*
Y823273D01*
X651190Y820734D01*
X646111D01*
X643572Y823273D01*
Y825813D01*
X646111Y828352D01*
X653729D01*
X374752Y757800D02*
X377291Y760340D01*
X382370D01*
X384909Y757800D01*
Y747644D01*
X382370Y745105D01*
X377291D01*
X374752Y747644D01*
X369674Y745105D02*
X364595D01*
X367135D01*
Y760340D01*
X369674Y757800D01*
X349360Y745105D02*
Y760340D01*
X356978Y752722D01*
X346821D01*
X375116Y730144D02*
X377655Y732684D01*
X382734D01*
X385273Y730144D01*
Y719988D01*
X382734Y717449D01*
X377655D01*
X375116Y719988D01*
X370038Y717449D02*
X364959D01*
X367499D01*
Y732684D01*
X370038Y730144D01*
X357342D02*
X354803Y732684D01*
X349724D01*
X347185Y730144D01*
Y727605D01*
X349724Y725066D01*
X352263D01*
X349724D01*
X347185Y722527D01*
Y719988D01*
X349724Y717449D01*
X354803D01*
X357342Y719988D01*
X863039Y856106D02*
X865578Y858646D01*
X870657D01*
X873196Y856106D01*
Y845950D01*
X870657Y843410D01*
X865578D01*
X863039Y845950D01*
X847804Y858646D02*
X857961D01*
Y851028D01*
X852882Y853567D01*
X850343D01*
X847804Y851028D01*
Y845950D01*
X850343Y843410D01*
X855422D01*
X857961Y845950D01*
X763789Y856106D02*
X766328Y858646D01*
X771407D01*
X773946Y856106D01*
Y845950D01*
X771407Y843410D01*
X766328D01*
X763789Y845950D01*
X758711Y856106D02*
X756172Y858646D01*
X751093D01*
X748554Y856106D01*
Y853567D01*
X751093Y851028D01*
X753632D01*
X751093D01*
X748554Y848489D01*
Y845950D01*
X751093Y843410D01*
X756172D01*
X758711Y845950D01*
X660216Y856328D02*
X662755Y858867D01*
X667833D01*
X670372Y856328D01*
Y846171D01*
X667833Y843632D01*
X662755D01*
X660216Y846171D01*
X644980Y843632D02*
X655137D01*
X644980Y853789D01*
Y856328D01*
X647520Y858867D01*
X652598D01*
X655137Y856328D01*
X887774Y132618D02*
Y117382D01*
X880157D01*
X877617Y119922D01*
Y122461D01*
X880157Y125000D01*
X887774D01*
X880157D01*
X877617Y127539D01*
Y130078D01*
X880157Y132618D01*
X887774D01*
X862383D02*
X872539D01*
Y125000D01*
X867461D01*
X872539D01*
Y117382D01*
X857304D02*
X852226D01*
X854765D01*
Y132618D01*
X857304Y130078D01*
X635157Y982617D02*
Y967383D01*
X627539D01*
X625000Y969922D01*
Y972461D01*
X627539Y975000D01*
X635157D01*
X627539D01*
X625000Y977539D01*
Y980078D01*
X627539Y982617D01*
X635157D01*
X619922Y967383D02*
X614843D01*
X617382D01*
Y982617D01*
X619922Y980078D01*
X318000Y970078D02*
X320539Y972617D01*
X325617D01*
X328157Y970078D01*
Y959922D01*
X325617Y957383D01*
X320539D01*
X318000Y959922D01*
X312922Y957383D02*
X307843D01*
X310382D01*
Y972617D01*
X312922Y970078D01*
X254774Y965618D02*
Y955461D01*
X249696Y950383D01*
X244618Y955461D01*
Y965618D01*
X239539D02*
X229382D01*
X234461D01*
Y950383D01*
X224304D02*
X219226D01*
X221765D01*
Y965618D01*
X224304Y963078D01*
X118774Y972617D02*
Y962461D01*
X113696Y957383D01*
X108617Y962461D01*
Y972617D01*
X103539D02*
Y957383D01*
X95922D01*
X93382Y959922D01*
Y970078D01*
X95922Y972617D01*
X103539D01*
X88304Y957383D02*
X83226D01*
X85765D01*
Y972617D01*
X88304Y970078D01*
X910607Y243899D02*
Y259134D01*
X902990D01*
X900450Y256595D01*
Y251516D01*
X902990Y248977D01*
X910607D01*
X905529D02*
X900450Y243899D01*
X885215D02*
X895372D01*
X885215Y254055D01*
Y256595D01*
X887755Y259134D01*
X892833D01*
X895372Y256595D01*
X880137Y246438D02*
X877598Y243899D01*
X872519D01*
X869980Y246438D01*
Y256595D01*
X872519Y259134D01*
X877598D01*
X880137Y256595D01*
Y254055D01*
X877598Y251516D01*
X869980D01*
X383343Y243681D02*
Y258916D01*
X375725D01*
X373186Y256377D01*
Y251298D01*
X375725Y248759D01*
X383343D01*
X378264D02*
X373186Y243681D01*
X357951D02*
X368108D01*
X357951Y253838D01*
Y256377D01*
X360490Y258916D01*
X365569D01*
X368108Y256377D01*
X352873D02*
X350333Y258916D01*
X345255D01*
X342716Y256377D01*
Y253838D01*
X345255Y251298D01*
X342716Y248759D01*
Y246220D01*
X345255Y243681D01*
X350333D01*
X352873Y246220D01*
Y248759D01*
X350333Y251298D01*
X352873Y253838D01*
Y256377D01*
X350333Y251298D02*
X345255D01*
X297768Y767382D02*
Y782617D01*
X290151D01*
X287612Y780078D01*
Y775000D01*
X290151Y772461D01*
X297768D01*
X292690D02*
X287612Y767382D01*
X272377D02*
X282533D01*
X272377Y777539D01*
Y780078D01*
X274916Y782617D01*
X279994D01*
X282533Y780078D01*
X257142Y767382D02*
X267298D01*
X257142Y777539D01*
Y780078D01*
X259681Y782617D01*
X264759D01*
X267298Y780078D01*
X825533Y243992D02*
Y259227D01*
X817915D01*
X815376Y256688D01*
Y251610D01*
X817915Y249070D01*
X825533D01*
X820454D02*
X815376Y243992D01*
X800141D02*
X810297D01*
X800141Y254149D01*
Y256688D01*
X802680Y259227D01*
X807758D01*
X810297Y256688D01*
X795062Y259227D02*
X784906D01*
Y256688D01*
X795062Y246531D01*
Y243992D01*
X915413Y193491D02*
Y208726D01*
X907795D01*
X905256Y206187D01*
Y201108D01*
X907795Y198569D01*
X915413D01*
X910334D02*
X905256Y193491D01*
X890021D02*
X900178D01*
X890021Y203648D01*
Y206187D01*
X892560Y208726D01*
X897638D01*
X900178Y206187D01*
X874786Y208726D02*
X879864Y206187D01*
X884943Y201108D01*
Y196030D01*
X882403Y193491D01*
X877325D01*
X874786Y196030D01*
Y198569D01*
X877325Y201108D01*
X884943D01*
X291978Y243681D02*
Y258916D01*
X284361D01*
X281822Y256377D01*
Y251298D01*
X284361Y248759D01*
X291978D01*
X286900D02*
X281822Y243681D01*
X266587D02*
X276743D01*
X266587Y253838D01*
Y256377D01*
X269126Y258916D01*
X274204D01*
X276743Y256377D01*
X251352Y258916D02*
X261508D01*
Y251298D01*
X256430Y253838D01*
X253891D01*
X251352Y251298D01*
Y246220D01*
X253891Y243681D01*
X258969D01*
X261508Y246220D01*
X380878Y194143D02*
Y209378D01*
X373261D01*
X370722Y206839D01*
Y201760D01*
X373261Y199221D01*
X380878D01*
X375800D02*
X370722Y194143D01*
X355486D02*
X365643D01*
X355486Y204300D01*
Y206839D01*
X358026Y209378D01*
X363104D01*
X365643Y206839D01*
X342791Y194143D02*
Y209378D01*
X350408Y201760D01*
X340251D01*
X297080Y709029D02*
Y724264D01*
X289463D01*
X286924Y721725D01*
Y716647D01*
X289463Y714108D01*
X297080D01*
X292002D02*
X286924Y709029D01*
X271689D02*
X281845D01*
X271689Y719186D01*
Y721725D01*
X274228Y724264D01*
X279306D01*
X281845Y721725D01*
X266610Y709029D02*
X261532D01*
X264071D01*
Y724264D01*
X266610Y721725D01*
X296341Y737658D02*
Y752893D01*
X288724D01*
X286184Y750354D01*
Y745276D01*
X288724Y742737D01*
X296341D01*
X291263D02*
X286184Y737658D01*
X281106D02*
X276028D01*
X278567D01*
Y752893D01*
X281106Y750354D01*
X268410D02*
X265871Y752893D01*
X260793D01*
X258253Y750354D01*
Y747815D01*
X260793Y745276D01*
X258253Y742737D01*
Y740198D01*
X260793Y737658D01*
X265871D01*
X268410Y740198D01*
Y742737D01*
X265871Y745276D01*
X268410Y747815D01*
Y750354D01*
X265871Y745276D02*
X260793D01*
X825313Y193927D02*
Y209162D01*
X817696D01*
X815157Y206623D01*
Y201545D01*
X817696Y199006D01*
X825313D01*
X820235D02*
X815157Y193927D01*
X799922D02*
X810078D01*
X799922Y204084D01*
Y206623D01*
X802461Y209162D01*
X807539D01*
X810078Y206623D01*
X794843D02*
X792304Y209162D01*
X787226D01*
X784687Y206623D01*
Y196467D01*
X787226Y193927D01*
X792304D01*
X794843Y196467D01*
Y206623D01*
X291941Y193263D02*
Y208498D01*
X284324D01*
X281784Y205959D01*
Y200880D01*
X284324Y198341D01*
X291941D01*
X286863D02*
X281784Y193263D01*
X276706D02*
X271628D01*
X274167D01*
Y208498D01*
X276706Y205959D01*
X264010Y195802D02*
X261471Y193263D01*
X256393D01*
X253853Y195802D01*
Y205959D01*
X256393Y208498D01*
X261471D01*
X264010Y205959D01*
Y203419D01*
X261471Y200880D01*
X253853D01*
X565054Y246888D02*
Y262123D01*
X557437D01*
X554898Y259584D01*
Y254506D01*
X557437Y251966D01*
X565054D01*
X559976D02*
X554898Y246888D01*
X549819D02*
X544741D01*
X547280D01*
Y262123D01*
X549819Y259584D01*
X526967Y262123D02*
X532045Y259584D01*
X537123Y254506D01*
Y249427D01*
X534584Y246888D01*
X529506D01*
X526967Y249427D01*
Y251966D01*
X529506Y254506D01*
X537123D01*
X736329Y243582D02*
Y258817D01*
X728712D01*
X726173Y256277D01*
Y251199D01*
X728712Y248660D01*
X736329D01*
X731251D02*
X726173Y243582D01*
X721094D02*
X716016D01*
X718555D01*
Y258817D01*
X721094Y256277D01*
X698242Y258817D02*
X708398D01*
Y251199D01*
X703320Y253738D01*
X700781D01*
X698242Y251199D01*
Y246121D01*
X700781Y243582D01*
X705859D01*
X708398Y246121D01*
X203281Y243794D02*
Y259029D01*
X195664D01*
X193124Y256490D01*
Y251411D01*
X195664Y248872D01*
X203281D01*
X198203D02*
X193124Y243794D01*
X188046D02*
X182968D01*
X185507D01*
Y259029D01*
X188046Y256490D01*
X167733Y243794D02*
Y259029D01*
X175350Y251411D01*
X165194D01*
X477520Y246888D02*
Y262123D01*
X469902D01*
X467363Y259584D01*
Y254506D01*
X469902Y251966D01*
X477520D01*
X472442D02*
X467363Y246888D01*
X462285D02*
X457207D01*
X459746D01*
Y262123D01*
X462285Y259584D01*
X449589D02*
X447050Y262123D01*
X441972D01*
X439432Y259584D01*
Y257045D01*
X441972Y254506D01*
X444511D01*
X441972D01*
X439432Y251966D01*
Y249427D01*
X441972Y246888D01*
X447050D01*
X449589Y249427D01*
X560578Y196850D02*
Y212085D01*
X552961D01*
X550421Y209546D01*
Y204468D01*
X552961Y201928D01*
X560578D01*
X555500D02*
X550421Y196850D01*
X545343Y209546D02*
X542804Y212085D01*
X537725D01*
X535186Y209546D01*
Y207007D01*
X537725Y204468D01*
X535186Y201928D01*
Y199389D01*
X537725Y196850D01*
X542804D01*
X545343Y199389D01*
Y201928D01*
X542804Y204468D01*
X545343Y207007D01*
Y209546D01*
X542804Y204468D02*
X537725D01*
X648276Y244744D02*
Y259979D01*
X640659D01*
X638120Y257440D01*
Y252362D01*
X640659Y249822D01*
X648276D01*
X643198D02*
X638120Y244744D01*
X633041D02*
X627963D01*
X630502D01*
Y259979D01*
X633041Y257440D01*
X610189Y244744D02*
X620345D01*
X610189Y254901D01*
Y257440D01*
X612728Y259979D01*
X617806D01*
X620345Y257440D01*
X733303Y194272D02*
Y209507D01*
X725686D01*
X723147Y206968D01*
Y201890D01*
X725686Y199351D01*
X733303D01*
X728225D02*
X723147Y194272D01*
X718068D02*
X712990D01*
X715529D01*
Y209507D01*
X718068Y206968D01*
X705372Y194272D02*
X700294D01*
X702833D01*
Y209507D01*
X705372Y206968D01*
X114554Y243314D02*
Y258549D01*
X106936D01*
X104397Y256010D01*
Y250932D01*
X106936Y248393D01*
X114554D01*
X109475D02*
X104397Y243314D01*
X99319D02*
X94240D01*
X96779D01*
Y258549D01*
X99319Y256010D01*
X86623D02*
X84084Y258549D01*
X79005D01*
X76466Y256010D01*
Y245853D01*
X79005Y243314D01*
X84084D01*
X86623Y245853D01*
Y256010D01*
X199226Y193918D02*
Y209153D01*
X191609D01*
X189070Y206614D01*
Y201536D01*
X191609Y198997D01*
X199226D01*
X194148D02*
X189070Y193918D01*
X183991Y196457D02*
X181452Y193918D01*
X176374D01*
X173835Y196457D01*
Y206614D01*
X176374Y209153D01*
X181452D01*
X183991Y206614D01*
Y204075D01*
X181452Y201536D01*
X173835D01*
X118433Y794515D02*
Y809750D01*
X110815D01*
X108276Y807211D01*
Y802133D01*
X110815Y799594D01*
X118433D01*
X113355D02*
X108276Y794515D01*
X103198Y809750D02*
X93041D01*
Y807211D01*
X103198Y797054D01*
Y794515D01*
X335696Y816383D02*
Y831618D01*
X328078D01*
X325539Y829078D01*
Y824000D01*
X328078Y821461D01*
X335696D01*
X330618D02*
X325539Y816383D01*
X310304Y831618D02*
X320461D01*
Y824000D01*
X315382Y826539D01*
X312843D01*
X310304Y824000D01*
Y818922D01*
X312843Y816383D01*
X317922D01*
X320461Y818922D01*
X63157Y795383D02*
Y810618D01*
X55539D01*
X53000Y808078D01*
Y803000D01*
X55539Y800461D01*
X63157D01*
X58078D02*
X53000Y795383D01*
X47922D02*
X42843D01*
X45382D01*
Y810618D01*
X47922Y808078D01*
X464820Y196850D02*
Y212085D01*
X457202D01*
X454663Y209546D01*
Y204468D01*
X457202Y201928D01*
X464820D01*
X459742D02*
X454663Y196850D01*
X441967D02*
Y212085D01*
X449585Y204468D01*
X439428D01*
X645152Y193838D02*
Y209073D01*
X637534D01*
X634995Y206533D01*
Y201455D01*
X637534Y198916D01*
X645152D01*
X640074D02*
X634995Y193838D01*
X629917Y206533D02*
X627378Y209073D01*
X622299D01*
X619760Y206533D01*
Y203994D01*
X622299Y201455D01*
X624839D01*
X622299D01*
X619760Y198916D01*
Y196377D01*
X622299Y193838D01*
X627378D01*
X629917Y196377D01*
X104334Y194426D02*
Y209661D01*
X96717D01*
X94178Y207122D01*
Y202043D01*
X96717Y199504D01*
X104334D01*
X99256D02*
X94178Y194426D01*
X78942D02*
X89099D01*
X78942Y204582D01*
Y207122D01*
X81482Y209661D01*
X86560D01*
X89099Y207122D01*
X57157Y969617D02*
Y954382D01*
X47000D01*
X41922D02*
X36843D01*
X39382D01*
Y969617D01*
X41922Y967078D01*
X767530Y805953D02*
X770069Y808492D01*
X775147D01*
X777687Y805953D01*
Y795797D01*
X775147Y793257D01*
X770069D01*
X767530Y795797D01*
X762452Y793257D02*
X757373D01*
X759912D01*
Y808492D01*
X762452Y805953D01*
X739599Y793257D02*
X749756D01*
X739599Y803414D01*
Y805953D01*
X742138Y808492D01*
X747217D01*
X749756Y805953D01*
X577539Y820078D02*
X580078Y822617D01*
X585157D01*
X587696Y820078D01*
Y809922D01*
X585157Y807383D01*
X580078D01*
X577539Y809922D01*
X572461D02*
X569922Y807383D01*
X564843D01*
X562304Y809922D01*
Y820078D01*
X564843Y822617D01*
X569922D01*
X572461Y820078D01*
Y817539D01*
X569922Y815000D01*
X562304D01*
X492062Y760389D02*
X494601Y762928D01*
X499680D01*
X502219Y760389D01*
Y750232D01*
X499680Y747693D01*
X494601D01*
X492062Y750232D01*
X486984Y760389D02*
X484445Y762928D01*
X479366D01*
X476827Y760389D01*
Y757850D01*
X479366Y755311D01*
X476827Y752772D01*
Y750232D01*
X479366Y747693D01*
X484445D01*
X486984Y750232D01*
Y752772D01*
X484445Y755311D01*
X486984Y757850D01*
Y760389D01*
X484445Y755311D02*
X479366D01*
X621605Y806081D02*
X624144Y808620D01*
X629223D01*
X631762Y806081D01*
Y795924D01*
X629223Y793385D01*
X624144D01*
X621605Y795924D01*
X616527Y808620D02*
X606370D01*
Y806081D01*
X616527Y795924D01*
Y793385D01*
X526207Y682867D02*
X528747Y685406D01*
X533825D01*
X536364Y682867D01*
Y672710D01*
X533825Y670171D01*
X528747D01*
X526207Y672710D01*
X510972Y685406D02*
X516051Y682867D01*
X521129Y677789D01*
Y672710D01*
X518590Y670171D01*
X513512D01*
X510972Y672710D01*
Y675249D01*
X513512Y677789D01*
X521129D01*
X287539Y695078D02*
X290078Y697617D01*
X295157D01*
X297696Y695078D01*
Y684922D01*
X295157Y682383D01*
X290078D01*
X287539Y684922D01*
X274843Y682383D02*
Y697617D01*
X282461Y690000D01*
X272304D01*
X469900Y844291D02*
X459743D01*
Y841752D01*
X469900Y831595D01*
Y829056D01*
X459743D01*
X454665D02*
X449587D01*
X452126D01*
Y844291D01*
X454665Y841752D01*
X375753Y820129D02*
X378292Y822669D01*
X383370D01*
X385910Y820129D01*
Y809973D01*
X383370Y807433D01*
X378292D01*
X375753Y809973D01*
X370674Y807433D02*
X365596D01*
X368135D01*
Y822669D01*
X370674Y820129D01*
X357979Y807433D02*
X352900D01*
X355439D01*
Y822669D01*
X357979Y820129D01*
X375445Y795127D02*
X377984Y797667D01*
X383063D01*
X385602Y795127D01*
Y784971D01*
X383063Y782432D01*
X377984D01*
X375445Y784971D01*
X370367Y782432D02*
X365289D01*
X367828D01*
Y797667D01*
X370367Y795127D01*
X357671D02*
X355132Y797667D01*
X350053D01*
X347514Y795127D01*
Y784971D01*
X350053Y782432D01*
X355132D01*
X357671Y784971D01*
Y795127D01*
D11*
X360500Y113000D02*
G03*
X360500Y113000I-1250J0D01*
G01*
D12*
X447053Y889750D02*
G03*
X568024Y853944I72000J21000D01*
G01*
Y967556D02*
G03*
X447053Y931750I-48970J-56806D01*
G01*
X844000Y95000D02*
G03*
X844000Y95000I-61000J0D01*
G01*
X713667Y906956D02*
G03*
X713667Y906956I-20000J0D01*
G01*
X915620Y908540D02*
G03*
X915620Y908540I-20000J0D01*
G01*
X814646D02*
G03*
X814646Y908540I-20000J0D01*
G01*
X367500Y905000D02*
G03*
X367500Y905000I-40000J0D01*
G01*
X478438Y742000D02*
X494938D01*
X478438Y708000D02*
X494938D01*
X478438D02*
Y742000D01*
X494938Y708000D02*
Y742000D01*
X438000Y188250D02*
X472000D01*
X438000Y171750D02*
X472000D01*
Y188250D01*
X438000Y171750D02*
Y188250D01*
X878000Y833250D02*
X912000D01*
X878000Y816750D02*
X912000D01*
Y833250D01*
X878000Y816750D02*
Y833250D01*
X878500Y842778D02*
Y859278D01*
X912500Y842778D02*
Y859278D01*
X878500Y842778D02*
X912500D01*
X878500Y859278D02*
X912500D01*
X386750Y82000D02*
X403250D01*
X386750Y48000D02*
X403250D01*
X386750D02*
Y82000D01*
X403250Y48000D02*
Y82000D01*
X186750Y58000D02*
X203250D01*
X186750Y92000D02*
X203250D01*
Y58000D02*
Y92000D01*
X186750Y58000D02*
Y92000D01*
X222000Y98000D02*
X258000D01*
X222000Y42000D02*
Y118000D01*
Y42000D02*
X258000D01*
Y118000D01*
X222000D02*
X258000D01*
X345500Y46500D02*
Y113500D01*
X314500Y46500D02*
Y113500D01*
X345500D01*
X314500Y46500D02*
X345500D01*
X303000Y681750D02*
X337000D01*
X303000Y698250D02*
X337000D01*
X303000Y681750D02*
Y698250D01*
X337000Y681750D02*
Y698250D01*
X303000Y736750D02*
Y753250D01*
X337000Y736750D02*
Y753250D01*
X303000Y736750D02*
X337000D01*
X303000Y753250D02*
X337000D01*
X303000Y706750D02*
Y723250D01*
X337000Y706750D02*
Y723250D01*
X303000Y706750D02*
X337000D01*
X303000Y723250D02*
X337000D01*
Y766750D02*
Y783250D01*
X303000Y766750D02*
Y783250D01*
X337000D01*
X303000Y766750D02*
X337000D01*
X523000Y806750D02*
X557000D01*
X523000Y823250D02*
X557000D01*
X523000Y806750D02*
Y823250D01*
X557000Y806750D02*
Y823250D01*
X541668Y669539D02*
X575668D01*
X541668Y686039D02*
X575668D01*
X541668Y669539D02*
Y686039D01*
X575668Y669539D02*
Y686039D01*
X611750Y753000D02*
Y787000D01*
X628250Y753000D02*
Y787000D01*
X611750D02*
X628250D01*
X611750Y753000D02*
X628250D01*
X393000Y798250D02*
X427000D01*
X393000Y781750D02*
X427000D01*
Y798250D01*
X393000Y781750D02*
Y798250D01*
Y823250D02*
X427000D01*
X393000Y806750D02*
X427000D01*
Y823250D01*
X393000Y806750D02*
Y823250D01*
X471502Y779502D02*
Y820502D01*
X448502D02*
X471502D01*
X448502Y779502D02*
Y820502D01*
Y779502D02*
X471502D01*
X675676Y819395D02*
Y835895D01*
X709676Y819395D02*
Y835895D01*
X675676Y819395D02*
X709676D01*
X675676Y835895D02*
X709676D01*
X675676Y859500D02*
X709676D01*
X675676Y843000D02*
X709676D01*
Y859500D01*
X675676Y843000D02*
Y859500D01*
X688107Y876956D02*
X698267D01*
X663667Y896956D02*
Y916956D01*
X688107Y937916D02*
X698267D01*
X723667Y896956D02*
Y916956D01*
X779250Y819395D02*
Y835895D01*
X813250Y819395D02*
Y835895D01*
X779250Y819395D02*
X813250D01*
X779250Y835895D02*
X813250D01*
X779250Y859278D02*
X813250D01*
X779250Y842778D02*
X813250D01*
Y859278D01*
X779250Y842778D02*
Y859278D01*
X471502Y724502D02*
Y765502D01*
X448502D02*
X471502D01*
X448502Y724502D02*
Y765502D01*
Y724502D02*
X471502D01*
X890060Y878540D02*
X900220D01*
X865620Y898540D02*
Y918540D01*
X890060Y939500D02*
X900220D01*
X925620Y898540D02*
Y918540D01*
X783000Y791750D02*
X817000D01*
X783000Y808250D02*
X817000D01*
X783000Y791750D02*
Y808250D01*
X817000Y791750D02*
Y808250D01*
X393000Y741750D02*
Y758250D01*
X427000Y741750D02*
Y758250D01*
X393000Y741750D02*
X427000D01*
X393000Y758250D02*
X427000D01*
X793000Y171750D02*
Y188250D01*
X827000Y171750D02*
Y188250D01*
X793000Y171750D02*
X827000D01*
X793000Y188250D02*
X827000D01*
X826111Y221750D02*
Y238250D01*
X792111Y221750D02*
Y238250D01*
X826111D01*
X792111Y221750D02*
X826111D01*
X737000D02*
Y238250D01*
X703000Y221750D02*
Y238250D01*
X737000D01*
X703000Y221750D02*
X737000D01*
Y171750D02*
Y188250D01*
X703000Y171750D02*
Y188250D01*
X737000D01*
X703000Y171750D02*
X737000D01*
X647000Y221750D02*
Y238250D01*
X613000Y221750D02*
Y238250D01*
X647000D01*
X613000Y221750D02*
X647000D01*
X613000Y171750D02*
Y188250D01*
X647000Y171750D02*
Y188250D01*
X613000Y171750D02*
X647000D01*
X613000Y188250D02*
X647000D01*
X75000Y943000D02*
X97000D01*
X75000Y851000D02*
X97000D01*
X789086Y878540D02*
X799246D01*
X764646Y898540D02*
Y918540D01*
X789086Y939500D02*
X799246D01*
X824646Y898540D02*
Y918540D01*
X292000Y221750D02*
Y238250D01*
X258000Y221750D02*
Y238250D01*
X292000D01*
X258000Y221750D02*
X292000D01*
X382000Y171750D02*
Y188250D01*
X348000Y171750D02*
Y188250D01*
X382000D01*
X348000Y171750D02*
X382000D01*
Y221750D02*
Y238250D01*
X348000Y221750D02*
Y238250D01*
X382000D01*
X348000Y221750D02*
X382000D01*
X915000D02*
Y238250D01*
X881000Y221750D02*
Y238250D01*
X915000D01*
X881000Y221750D02*
X915000D01*
X917000Y171750D02*
Y188250D01*
X883000Y171750D02*
Y188250D01*
X917000D01*
X883000Y171750D02*
X917000D01*
X73000Y221750D02*
X107000D01*
X73000Y238250D02*
X107000D01*
X73000Y221750D02*
Y238250D01*
X107000Y221750D02*
Y238250D01*
X73000Y188250D02*
X107000D01*
X73000Y171750D02*
X107000D01*
Y188250D01*
X73000Y171750D02*
Y188250D01*
X562000Y171750D02*
Y188250D01*
X528000Y171750D02*
Y188250D01*
X562000D01*
X528000Y171750D02*
X562000D01*
X472000Y221750D02*
Y238250D01*
X438000Y221750D02*
Y238250D01*
X472000D01*
X438000Y221750D02*
X472000D01*
X559444D02*
Y238250D01*
X525444Y221750D02*
Y238250D01*
X559444D01*
X525444Y221750D02*
X559444D01*
X258000Y171750D02*
Y188250D01*
X292000Y171750D02*
Y188250D01*
X258000Y171750D02*
X292000D01*
X258000Y188250D02*
X292000D01*
X202000Y171750D02*
Y188250D01*
X168000Y171750D02*
Y188250D01*
X202000D01*
X168000Y171750D02*
X202000D01*
X203889Y221750D02*
Y238250D01*
X169889Y221750D02*
Y238250D01*
X203889D01*
X169889Y221750D02*
X203889D01*
X393000Y733250D02*
X427000D01*
X393000Y716750D02*
X427000D01*
Y733250D01*
X393000Y716750D02*
Y733250D01*
X157000Y834000D02*
Y839000D01*
Y834000D02*
X257000D01*
Y839000D01*
X72000Y816750D02*
Y833250D01*
X38000Y816750D02*
Y833250D01*
X72000D01*
X38000Y816750D02*
X72000D01*
X303000Y853250D02*
X337000D01*
X303000Y836750D02*
X337000D01*
Y853250D01*
X303000Y836750D02*
Y853250D01*
X88000Y816750D02*
Y833250D01*
X122000Y816750D02*
Y833250D01*
X88000Y816750D02*
X122000D01*
X88000Y833250D02*
X122000D01*
X124750Y957000D02*
Y975000D01*
Y957000D02*
X170500D01*
Y975000D01*
X124750D02*
X170500D01*
X155250Y957000D02*
Y975000D01*
D79*
X850000Y95000D02*
D03*
D80*
X460000Y50000D02*
Y65000D01*
Y115000D02*
Y140000D01*
X540000Y50000D02*
Y65000D01*
Y115000D02*
Y140000D01*
X460000Y50000D02*
X477496D01*
X522858D02*
X540000D01*
X460000Y140000D02*
X540000D01*
M02*
