G04*
G04 #@! TF.GenerationSoftware,Altium Limited,Altium Designer,23.1.1 (15)*
G04*
G04 Layer_Color=128*
%FSLAX44Y44*%
%MOMM*%
G71*
G04*
G04 #@! TF.SameCoordinates,57464860-8124-4CEE-8048-BAEBFFAEA9BF*
G04*
G04*
G04 #@! TF.FilePolarity,Positive*
G04*
G01*
G75*
%ADD51R,4.0000X2.0000*%
%ADD52O,4.0000X2.0000*%
%ADD53R,1.2500X1.0000*%
%ADD54R,1.0000X1.2500*%
G04:AMPARAMS|DCode=55|XSize=3mm|YSize=5mm|CornerRadius=0.75mm|HoleSize=0mm|Usage=FLASHONLY|Rotation=270.000|XOffset=0mm|YOffset=0mm|HoleType=Round|Shape=RoundedRectangle|*
%AMROUNDEDRECTD55*
21,1,3.0000,3.5000,0,0,270.0*
21,1,1.5000,5.0000,0,0,270.0*
1,1,1.5000,-1.7500,-0.7500*
1,1,1.5000,-1.7500,0.7500*
1,1,1.5000,1.7500,0.7500*
1,1,1.5000,1.7500,-0.7500*
%
%ADD55ROUNDEDRECTD55*%
%ADD56R,3.2000X1.6000*%
%ADD57R,2.1500X1.2000*%
%ADD58R,2.1500X3.2000*%
%ADD59R,1.8000X1.1000*%
%ADD60R,3.6000X9.4000*%
%ADD61R,1.3000X4.5000*%
%ADD62R,0.9100X1.2200*%
%ADD63R,10.7000X9.9000*%
D51*
X395000Y859200D02*
D03*
D52*
Y884600D02*
D03*
Y910000D02*
D03*
Y935400D02*
D03*
D53*
X486688Y735000D02*
D03*
Y715000D02*
D03*
X395000Y75000D02*
D03*
Y55000D02*
D03*
X195000Y65000D02*
D03*
Y85000D02*
D03*
X620000Y780000D02*
D03*
Y760000D02*
D03*
D54*
X465000Y180000D02*
D03*
X445000D02*
D03*
X905000Y825000D02*
D03*
X885000D02*
D03*
X885500Y851028D02*
D03*
X905500D02*
D03*
X310000Y690000D02*
D03*
X330000D02*
D03*
X310000Y745000D02*
D03*
X330000D02*
D03*
X310000Y715000D02*
D03*
X330000D02*
D03*
X310000Y775000D02*
D03*
X330000D02*
D03*
X530000Y815000D02*
D03*
X550000D02*
D03*
X548668Y677789D02*
D03*
X568668D02*
D03*
X420000Y790000D02*
D03*
X400000D02*
D03*
X420000Y815000D02*
D03*
X400000D02*
D03*
X682676Y827645D02*
D03*
X702676D02*
D03*
X702676Y851250D02*
D03*
X682676D02*
D03*
X786250Y827645D02*
D03*
X806250D02*
D03*
X806250Y851028D02*
D03*
X786250D02*
D03*
X790000Y800000D02*
D03*
X810000D02*
D03*
X420000Y750000D02*
D03*
X400000D02*
D03*
X800000Y180000D02*
D03*
X820000D02*
D03*
X819111Y230000D02*
D03*
X799111D02*
D03*
X730000D02*
D03*
X710000D02*
D03*
X730000Y180000D02*
D03*
X710000D02*
D03*
X640000Y230000D02*
D03*
X620000D02*
D03*
Y180000D02*
D03*
X640000D02*
D03*
X285000Y230000D02*
D03*
X265000D02*
D03*
X375000Y180000D02*
D03*
X355000D02*
D03*
X375000Y230000D02*
D03*
X355000D02*
D03*
X908000D02*
D03*
X888000D02*
D03*
X910000Y180000D02*
D03*
X890000D02*
D03*
X80000Y230000D02*
D03*
X100000D02*
D03*
Y180000D02*
D03*
X80000D02*
D03*
X555000D02*
D03*
X535000D02*
D03*
X465000Y230000D02*
D03*
X445000D02*
D03*
X552444D02*
D03*
X532444D02*
D03*
X265000Y180000D02*
D03*
X285000D02*
D03*
X195000D02*
D03*
X175000D02*
D03*
X196889Y230000D02*
D03*
X176889D02*
D03*
X330000Y845000D02*
D03*
X400000Y725000D02*
D03*
X115000Y825000D02*
D03*
X310000Y845000D02*
D03*
X420000Y725000D02*
D03*
X65000Y825000D02*
D03*
X45000D02*
D03*
X95000D02*
D03*
D55*
X445053Y911750D02*
D03*
X593053D02*
D03*
D56*
X240000Y52000D02*
D03*
Y108000D02*
D03*
D57*
X359250Y103000D02*
D03*
Y80000D02*
D03*
Y57000D02*
D03*
D58*
X300750Y80000D02*
D03*
D59*
X460002Y787502D02*
D03*
Y812502D02*
D03*
Y732502D02*
D03*
Y757502D02*
D03*
D60*
X55000Y897000D02*
D03*
X117000D02*
D03*
D61*
X182000Y799000D02*
D03*
X232000D02*
D03*
D62*
X164000Y966000D02*
D03*
X131250D02*
D03*
D63*
X207000Y894000D02*
D03*
M02*
