G04*
G04 #@! TF.GenerationSoftware,Altium Limited,Altium Designer,23.1.1 (15)*
G04*
G04 Layer_Color=65535*
%FSLAX44Y44*%
%MOMM*%
G71*
G04*
G04 #@! TF.SameCoordinates,57464860-8124-4CEE-8048-BAEBFFAEA9BF*
G04*
G04*
G04 #@! TF.FilePolarity,Positive*
G04*
G01*
G75*
%ADD10C,0.2540*%
%ADD11C,0.2500*%
%ADD12C,0.2000*%
%ADD13C,0.7000*%
D10*
X205000Y420000D02*
G03*
X205000Y420000I-15000J0D01*
G01*
X80000Y390000D02*
G03*
X220000Y390000I70000J70000D01*
G01*
Y600000D02*
G03*
X80000Y600000I-70000J-70000D01*
G01*
X405000Y420000D02*
G03*
X405000Y420000I-15000J0D01*
G01*
X280000Y390000D02*
G03*
X420000Y390000I70000J70000D01*
G01*
Y600000D02*
G03*
X280000Y600000I-70000J-70000D01*
G01*
X920000D02*
G03*
X780000Y600000I-70000J-70000D01*
G01*
Y390000D02*
G03*
X920000Y390000I70000J70000D01*
G01*
X905000Y420000D02*
G03*
X905000Y420000I-15000J0D01*
G01*
X720000Y600000D02*
G03*
X580000Y600000I-70000J-70000D01*
G01*
Y390000D02*
G03*
X720000Y390000I70000J70000D01*
G01*
X705000Y420000D02*
G03*
X705000Y420000I-15000J0D01*
G01*
X879878Y328618D02*
Y318461D01*
X884956Y313382D01*
X890034Y318461D01*
Y328618D01*
X895113D02*
X905269D01*
X900191D01*
Y313382D01*
X910348D02*
X915426D01*
X912887D01*
Y328618D01*
X910348Y326078D01*
X923044Y313382D02*
X928122D01*
X925583D01*
Y328618D01*
X923044Y326078D01*
X340005Y327617D02*
Y317461D01*
X345084Y312383D01*
X350162Y317461D01*
Y327617D01*
X355240D02*
X365397D01*
X360319D01*
Y312383D01*
X370475D02*
X375554D01*
X373015D01*
Y327617D01*
X370475Y325078D01*
X383171D02*
X385710Y327617D01*
X390789D01*
X393328Y325078D01*
Y314922D01*
X390789Y312383D01*
X385710D01*
X383171Y314922D01*
Y325078D01*
X789798Y328618D02*
Y318461D01*
X794876Y313382D01*
X799954Y318461D01*
Y328618D01*
X805033D02*
X815189D01*
X810111D01*
Y313382D01*
X820268Y315922D02*
X822807Y313382D01*
X827885D01*
X830424Y315922D01*
Y326078D01*
X827885Y328618D01*
X822807D01*
X820268Y326078D01*
Y323539D01*
X822807Y321000D01*
X830424D01*
X261464Y323618D02*
Y313461D01*
X266543Y308382D01*
X271621Y313461D01*
Y323618D01*
X276699D02*
X286856D01*
X281778D01*
Y308382D01*
X291935Y321078D02*
X294474Y323618D01*
X299552D01*
X302091Y321078D01*
Y318539D01*
X299552Y316000D01*
X302091Y313461D01*
Y310922D01*
X299552Y308382D01*
X294474D01*
X291935Y310922D01*
Y313461D01*
X294474Y316000D01*
X291935Y318539D01*
Y321078D01*
X294474Y316000D02*
X299552D01*
X528888Y327655D02*
Y317498D01*
X533967Y312420D01*
X539045Y317498D01*
Y327655D01*
X544123D02*
X554280D01*
X549202D01*
Y312420D01*
X559358Y327655D02*
X569515D01*
Y325116D01*
X559358Y314959D01*
Y312420D01*
X706700Y327655D02*
Y317498D01*
X711778Y312420D01*
X716857Y317498D01*
Y327655D01*
X721935D02*
X732092D01*
X727014D01*
Y312420D01*
X747327Y327655D02*
X742249Y325116D01*
X737170Y320037D01*
Y314959D01*
X739709Y312420D01*
X744788D01*
X747327Y314959D01*
Y317498D01*
X744788Y320037D01*
X737170D01*
X168575Y322617D02*
Y312461D01*
X173654Y307382D01*
X178732Y312461D01*
Y322617D01*
X183811D02*
X193967D01*
X188889D01*
Y307382D01*
X209202Y322617D02*
X199046D01*
Y315000D01*
X204124Y317539D01*
X206663D01*
X209202Y315000D01*
Y309922D01*
X206663Y307382D01*
X201585D01*
X199046Y309922D01*
X440149Y327655D02*
Y317498D01*
X445228Y312420D01*
X450306Y317498D01*
Y327655D01*
X455385D02*
X465541D01*
X460463D01*
Y312420D01*
X478237D02*
Y327655D01*
X470620Y320037D01*
X480776D01*
X617867Y327655D02*
Y317498D01*
X622946Y312420D01*
X628024Y317498D01*
Y327655D01*
X633102D02*
X643259D01*
X638181D01*
Y312420D01*
X648337Y325116D02*
X650877Y327655D01*
X655955D01*
X658494Y325116D01*
Y322577D01*
X655955Y320037D01*
X653416D01*
X655955D01*
X658494Y317498D01*
Y314959D01*
X655955Y312420D01*
X650877D01*
X648337Y314959D01*
X74687Y322617D02*
Y312461D01*
X79765Y307383D01*
X84843Y312461D01*
Y322617D01*
X89922D02*
X100078D01*
X95000D01*
Y307383D01*
X115314D02*
X105157D01*
X115314Y317539D01*
Y320078D01*
X112774Y322617D01*
X107696D01*
X105157Y320078D01*
X912226Y737617D02*
Y722383D01*
X919843D01*
X922383Y724922D01*
Y735078D01*
X919843Y737617D01*
X912226D01*
X927461D02*
Y722383D01*
X935078D01*
X937618Y724922D01*
Y735078D01*
X935078Y737617D01*
X927461D01*
X942696Y722383D02*
X947774D01*
X945235D01*
Y737617D01*
X942696Y735078D01*
X484843Y807617D02*
Y792383D01*
X492461D01*
X495000Y794922D01*
Y805078D01*
X492461Y807617D01*
X484843D01*
X500078Y792383D02*
X505157D01*
X502618D01*
Y807617D01*
X500078Y805078D01*
D11*
X514250Y784000D02*
G03*
X514250Y784000I-1250J0D01*
G01*
D12*
X903200Y741350D02*
G03*
X903200Y728650I0J-6350D01*
G01*
X220000Y390000D02*
Y600000D01*
X80000Y390000D02*
Y600000D01*
X420000Y390000D02*
Y600000D01*
X280000Y390000D02*
Y600000D01*
X525000Y720000D02*
X585000D01*
X525000Y780000D02*
X585000D01*
Y720000D02*
Y780000D01*
X525000Y720000D02*
Y780000D01*
X704250Y760000D02*
X903200D01*
X704250Y710000D02*
X903200D01*
Y741350D02*
Y760000D01*
Y710000D02*
Y728650D01*
X704250Y710000D02*
Y760000D01*
X529444Y282000D02*
Y292000D01*
X537444D01*
X559444Y282000D02*
Y292000D01*
X551444D02*
X559444D01*
X195889D02*
X203889D01*
Y282000D02*
Y292000D01*
X173889D02*
X181889D01*
X173889Y282000D02*
Y292000D01*
X780000Y390000D02*
Y600000D01*
X920000Y390000D02*
Y600000D01*
X580000Y390000D02*
Y600000D01*
X720000Y390000D02*
Y600000D01*
X885000Y282000D02*
Y292000D01*
X893000D01*
X915000Y282000D02*
Y292000D01*
X907000D02*
X915000D01*
X796111Y282000D02*
Y292000D01*
X804111D01*
X826111Y282000D02*
Y292000D01*
X818111D02*
X826111D01*
X107000D02*
X115000D01*
Y282000D02*
Y292000D01*
X85000D02*
X93000D01*
X85000Y282000D02*
Y292000D01*
X262778Y282000D02*
Y292000D01*
X270778D01*
X292778Y282000D02*
Y292000D01*
X284778D02*
X292778D01*
X351667Y282000D02*
Y292000D01*
X359667D01*
X381667Y282000D02*
Y292000D01*
X373667D02*
X381667D01*
X440555Y282000D02*
Y292000D01*
X448555D01*
X470555Y282000D02*
Y292000D01*
X462556D02*
X470555D01*
X618333Y282000D02*
Y292000D01*
X626333D01*
X648333Y282000D02*
Y292000D01*
X640333D02*
X648333D01*
X707222Y282000D02*
Y292000D01*
X715222D01*
X737222Y282000D02*
Y292000D01*
X729222D02*
X737222D01*
D13*
X905000Y773100D02*
D03*
M02*
