G04*
G04 #@! TF.GenerationSoftware,Altium Limited,Altium Designer,23.1.1 (15)*
G04*
G04 Layer_Color=8421504*
%FSLAX44Y44*%
%MOMM*%
G71*
G04*
G04 #@! TF.SameCoordinates,57464860-8124-4CEE-8048-BAEBFFAEA9BF*
G04*
G04*
G04 #@! TF.FilePolarity,Positive*
G04*
G01*
G75*
%ADD14O,0.3000X1.4000*%
%ADD15O,1.4000X0.3000*%
%ADD16R,0.6000X1.1000*%
D14*
X527500Y792000D02*
D03*
X537500D02*
D03*
X542500D02*
D03*
X547500D02*
D03*
X552500D02*
D03*
X557500D02*
D03*
X562500D02*
D03*
X567500D02*
D03*
X572500D02*
D03*
X577500D02*
D03*
X582500D02*
D03*
Y708000D02*
D03*
X572500D02*
D03*
X567500D02*
D03*
X557500D02*
D03*
X552500D02*
D03*
X547500D02*
D03*
X542500D02*
D03*
X537500D02*
D03*
X532500D02*
D03*
X527500D02*
D03*
X532500Y792000D02*
D03*
X577500Y708000D02*
D03*
X562500D02*
D03*
D15*
X597000Y777500D02*
D03*
Y767500D02*
D03*
Y762500D02*
D03*
Y757500D02*
D03*
Y752500D02*
D03*
Y747500D02*
D03*
Y742500D02*
D03*
Y737500D02*
D03*
Y732500D02*
D03*
Y727500D02*
D03*
Y722500D02*
D03*
X513000D02*
D03*
Y727500D02*
D03*
Y732500D02*
D03*
Y737500D02*
D03*
Y747500D02*
D03*
Y752500D02*
D03*
Y757500D02*
D03*
Y762500D02*
D03*
Y767500D02*
D03*
Y772500D02*
D03*
Y777500D02*
D03*
X597000Y772500D02*
D03*
X513000Y742500D02*
D03*
D16*
X534944Y273000D02*
D03*
X544444Y297000D02*
D03*
X553944Y273000D02*
D03*
X188889Y297000D02*
D03*
X198389Y273000D02*
D03*
X179389D02*
D03*
X890500D02*
D03*
X900000Y297000D02*
D03*
X909500Y273000D02*
D03*
X801611D02*
D03*
X811111Y297000D02*
D03*
X820611Y273000D02*
D03*
X100000Y297000D02*
D03*
X109500Y273000D02*
D03*
X90500D02*
D03*
X268278D02*
D03*
X277778Y297000D02*
D03*
X287278Y273000D02*
D03*
X357167D02*
D03*
X366667Y297000D02*
D03*
X376167Y273000D02*
D03*
X446055D02*
D03*
X455555Y297000D02*
D03*
X465056Y273000D02*
D03*
X623833D02*
D03*
X633333Y297000D02*
D03*
X642833Y273000D02*
D03*
X712722D02*
D03*
X722222Y297000D02*
D03*
X731722Y273000D02*
D03*
M02*
