M48
;Layer_Color=9474304
;FILE_FORMAT=4:4
METRIC,LZ
;TYPE=PLATED
T1F00S00C0.1500
T2F00S00C0.6000
T3F00S00C0.8000
T4F00S00C0.9000
T5F00S00C1.2000
T7F00S00C3.0000
T8F00S00C3.5000
%
T01
X0015Y00085
X00115Y0019
X0009Y00255
Y00295
X00176889Y00253111
X00186889Y00261889
X0021Y00245
X00275Y00255
X00255Y0029
X00355Y00255
X00365Y0026
X0039Y0025
X003Y0019
X00357Y00057
X0048Y0019
X00455Y00255
X00435Y0029
X00532444Y00257444
X00544228Y00259228
X0063Y00255
X0061Y00285
X00585Y00185
X00655Y0019
X0071Y00255
X0072
X0075Y0025
X0079Y0029
X00515Y0035
X00809111Y00249111
X0089Y00255
X009
X00925
X00835Y00185
X008142Y006458
X00945Y0058
X00955Y00555
X00768279Y00663179
X007125Y0073804
X0062Y0076
Y0078
X00585Y0077
X00568539Y00770478
X00565Y00775
X0054
X00525Y0077
X005Y0073696
X0048756Y00736772
X00459544Y00731236
X00460003Y007575
X0046Y0079
X00548668Y00677789
X003305Y00715
X0031Y00695
X0005Y00735
X00055Y009
X004Y0091
X00472498Y00812502
X005295Y00815
X0055127Y0081627
X0058Y0081
X0065Y00805
Y00835
X00649858Y0085
X00683185Y00827645
X00691281Y00815
X0078625Y00827645
X00545Y00855
X00905Y0085
X00885Y00825
T02
X0049Y00462
X0051
Y00535
X0049
T03
X00745Y00095
X00821
X0081Y0042
X0085Y0041
X0089Y0042
X009075Y00455
Y00499998
Y00545
X0089Y0058
X0085Y0059
X0081Y0058
X007925Y00545
Y005
Y00455
X007075
Y00499998
Y00545
X0069Y0058
X0065Y0059
X0061Y0058
X005925Y00545
Y005
Y00455
X0061Y0042
X0065Y0041
X0069Y0042
X004075Y00455
Y00499998
Y00545
X0039Y0058
X0035Y0059
X0031Y0058
X002925Y00545
Y005
Y00455
X0031Y0042
X0035Y0041
X0039Y0042
X0019
X0015Y0041
X0011Y0042
X000925Y00455
Y005
Y00545
X0011Y0058
X0015Y0059
X0019Y0058
X002075Y00545
Y00499998
Y00455
X0031Y00905
X00345
T04
X008142Y006969
X008396
X00865
X008904
Y007731
X00865
X008396
X008142
X007888
X007634
X00738
X00714186Y00773371
X007126Y006969
X00738
X007634
X007888
T05
X00479053Y0091175
X00554053
X00671047Y00939416
X00716047
X00772026Y00941
Y00876
X00716047Y00874416
X00671047
X00817026Y00876
X00873
X00918
Y00941
X00873
X00817026
T07
X0005Y0005
X0096
Y0095
T08
X0085Y005
X0065
X0035
X0015
M30
